<svg xmlns:xlink="http://www.w3.org/1999/xlink" viewBox="0 0 21000 29700" style="shape-rendering:geometricPrecision; text-rendering:geometricPrecision; image-rendering:optimizeQuality; fill-rule:evenodd; clip-rule:evenodd" version="1.1" height="297mm" width="210mm" xml:space="preserve" xmlns="http://www.w3.org/2000/svg">
 <defs>
  <style type="text/css">
   
    .str0 {stroke:#16314F;stroke-width:105.83;stroke-miterlimit:22.9256}
    .str4 {stroke:#1E0500;stroke-width:105.83;stroke-miterlimit:22.9256}
    .str10 {stroke:#1E0500;stroke-width:70.56;stroke-miterlimit:22.9256}
    .str9 {stroke:white;stroke-width:52.92;stroke-miterlimit:22.9256}
    .str6 {stroke:#332C2B;stroke-width:35.28;stroke-miterlimit:22.9256}
    .str2 {stroke:#1E0500;stroke-width:20;stroke-miterlimit:22.9256}
    .str3 {stroke:#2159BA;stroke-width:20;stroke-miterlimit:22.9256}
    .str7 {stroke:#3F2C26;stroke-width:20;stroke-miterlimit:22.9256}
    .str5 {stroke:#F2DAC0;stroke-width:20;stroke-miterlimit:22.9256}
    .str8 {stroke:#FA5F5B;stroke-width:20;stroke-miterlimit:22.9256}
    .str1 {stroke:#FCDE5A;stroke-width:20;stroke-miterlimit:22.9256}
    .fil0 {fill:none}
    .fil2 {fill:#1E0500}
    .fil3 {fill:#2159BA}
    .fil5 {fill:#3F2C26}
    .fil4 {fill:#F2DAC0}
    .fil6 {fill:#FA5F5B}
    .fil1 {fill:#FCDE5A}
   
  </style>
 </defs>
 <g id="图层_x0020_1">
  <metadata id="CorelCorpID_0Corel-Layer"></metadata>
  <rect height="29700" width="21000" y="0.53" x="-7.13" class="fil0"></rect>
  <rect height="29700" width="21000" y="0.53" x="-7.13" class="fil0"></rect>
  <polyline points="1520.8,16602.44 2063.66,17785.09 3672.83,17843.24 4060.61,18812.62" class="fil0 str0"></polyline>
  <path d="M15368.45 16195.32c0,0 1027.54,-155.08 1027.54,-562.23 0,-1803.01 -1430.32,-1469.66 -1560.75,-1255.37 -135.65,222.93 533.21,1817.6 533.21,1817.6z" class="fil1 str1"></path>
  <circle r="2108.42" cy="22326.65" cx="5577.72" class="fil2 str2"></circle>
  <circle r="2108.42" cy="22326.65" cx="17074.61" class="fil2 str2"></circle>
  <path d="M16551.07 19022.39c0,0 -1415.31,-5541.91 -1764.28,-5563.13 -348.97,-21.22 -1295.14,-292.05 -1355.23,289.26 -60.08,581.3 637.91,3171.76 754.22,3766.29 116.3,594.54 1117.52,4341.61 -1628.55,4543.91 -2746.06,202.3 -4082.82,-91.42 -4082.82,-91.42 0,0 108.36,-4303.86 -1035.51,-4346.33 -1143.87,-42.47 -2539.78,-233.6 -2908.15,-84.94 -368.38,148.66 -1899.96,1210.32 -1454.06,5096l16964.17 0c0,0 -174.49,-3333.64 -3489.79,-3609.64z" class="fil3 str3"></path>
  <path d="M2165.42 13282.27c0,0 2520.41,0.03 2733.67,58.18 213.26,58.15 1076.02,19.41 979.09,1861.21 -96.93,1841.81 -96.93,1686.73 -96.93,1686.73 0,0 155.08,775.53 -1628.58,678.57 -1725.68,-93.8 -2502.93,427.43 -2433.2,-1943.61 67.85,-2307.14 -67.86,-2210.18 445.95,-2341.08z" class="fil1 str1"></path>
  <path d="M5893.6 14709.72c-71.52,-3.67 -4188.47,-7.27 -4188.47,-7.27" class="fil0 str4"></path>
  <polygon points="13593.84,13338.62 11968.67,13793.89 12151.24,14514.18 13813.79,14044.75" class="fil4 str5"></polygon>
  <line y2="20331.75" x2="7095.2" y1="20331.75" x1="4238.76" class="fil0 str6"></line>
  <line y2="20797.06" x2="7095.2" y1="20797.06" x1="4238.76" class="fil0 str6"></line>
  <line y2="21275.28" x2="7095.2" y1="21275.28" x1="4238.76" class="fil0 str6"></line>
  <g id="_1653721570096">
   <g>
    <path d="M9984.6 7348.8c0,0 200.31,775.33 64.37,1241.67 -135.93,466.34 71.52,716.98 -980.14,501.31 0,0 -314.78,629.63 -214.63,752.03 100.2,122.39 -603.53,124.08 -651.2,29.85 -304.97,-602.41 -744.4,-1779.46 -525.01,-2628.64 0,0 1018.86,-164.34 2306.61,103.78z" class="fil4 str5"></path>
    <path d="M5545.21 22810.24c0,0 -562.17,1308.62 -232.61,1483.14 329.57,174.51 3064.76,221.79 3753.03,367.2 -426.53,-1744.91 -825.47,-1704.93 -1174.47,-1840.64 -349,-135.7 -2345.95,-9.7 -2345.95,-9.7z" class="fil2 str2"></path>
    <path d="M9287.07 20309.21l-1803.06 1008.16 4207.13 1764.29c0,0 15.71,-1638.81 -709.49,-1817.87 -725.2,-179.05 -1694.58,-954.58 -1694.58,-954.58z" class="fil2 str2"></path>
    <path d="M7193.16 13678.78c0,0 387.75,3198.97 -620.41,4556.1 -1008.17,1357.14 -1202.03,4342.73 -1143.87,4808.06 2035.69,0 2694.89,-135.71 2694.89,-135.71 0,0 1725.5,-4129.66 1628.57,-5641.88 1182.65,911.24 1182.65,1337.76 1182.65,1337.76 0,0 -2224.58,1938.21 -1863.03,2062.46 361.54,124.25 1572.18,322.21 1804.85,593.65 232.66,271.45 2636.73,-2559.15 3063.26,-3644.87 -58.15,-1202.05 -4420.4,-4032.64 -4633.66,-4071.42 -213.26,-38.78 -2113.25,135.85 -2113.25,135.85z" class="fil5 str7"></path>
    <path d="M8578.86 12581.2l131.56 809.38c0,0 2571.13,-138.05 3221.33,52.5 779.64,-337.32 1505.64,-515.03 1670.19,-361.85 164.54,153.18 848.79,1042.97 588.3,1164.53 -260.5,121.56 -220.14,33.88 -289.96,36.32 -69.83,2.45 -138.64,261.51 -237.36,169.58 -98.71,-91.93 -267.44,230.71 -328.59,-40.7 -61.16,-271.42 36.55,-848.2 -240.66,-874.78 -277.21,-26.59 -806.86,78.35 -526.27,737.15 -652.03,20.6 -5153.5,592.7 -5105.05,-169.07 49.21,-773.71 263.61,-1815.46 263.61,-1815.46l852.9 292.4z" class="fil4 str5"></path>
    <path d="M7193.57 10964.78c0,0 133.82,-839.41 1189.68,-1224.15 327.2,-139.91 594.88,-93.31 817.95,-23.33 223.07,69.97 892.23,641.26 907.11,2145.23 14.89,1503.98 -193.3,2238.45 -1635.81,2553.24 -2774.63,605.52 -1495.39,-1995.59 -1278.93,-3450.99z" class="fil1 str1"></path>
    <path d="M7550.37 12573.56c0,0 1100.46,104.94 1204.55,104.94 104.1,0 208.19,-2069.44 59.49,-2308.45 -148.7,-239 -877.44,-349.73 -1115.35,116.61 -237.9,466.35 -148.69,2086.9 -148.69,2086.9z" class="fil6 str8"></path>
    <path d="M9778.54 7587.73c0,0 652.8,48.32 397.79,-280.2 -255,-328.52 -642.6,-975.87 -1631.98,-859.93 -989.37,115.93 -1193.38,782.65 -1152.58,1149.8 40.8,367.16 316.19,1256.08 815.99,1188.44 499.8,-67.63 765,-86.94 652.8,-811.61 91.8,-724.67 917.98,-386.5 917.98,-386.5z" class="fil6 str8"></path>
    <polygon points="9142.63,9114.56 8733.23,8653.8 8556.91,8755.16 9041.46,9300.92" class="fil2 str2"></polygon>
   </g>
   <line y2="12305.68" x2="8876.96" y1="12171.67" x1="7502.03" class="fil0 str9"></line>
  </g>
  <circle r="553.67" cy="11831.54" cx="13469.15" class="fil2 str10"></circle>
  <polyline points="14436.2,13929.68 14609.35,11935.14 13783.71,11895.12" class="fil0 str10"></polyline>
  <path d="M16551.07 19022.4c0,0 -1390.57,236.53 -1855.88,1192.99" class="fil0 str6"></path>
 </g>
</svg>
