<svg xml:space="preserve" style="enable-background:new 0 0 1024 1024;" viewBox="0 0 1024 1024" y="0px" x="0px" xmlns:xlink="http://www.w3.org/1999/xlink" xmlns="http://www.w3.org/2000/svg" id="图层_1" version="1.1">
<style type="text/css">
	.st0{fill-rule:evenodd;clip-rule:evenodd;fill:#CDE6FF;}
	.st1{fill-rule:evenodd;clip-rule:evenodd;fill:#B1D9FF;}
	.st2{fill-rule:evenodd;clip-rule:evenodd;fill:#9FCFFF;}
	.st3{fill-rule:evenodd;clip-rule:evenodd;fill:url(#SVGID_1_);}
	.st4{fill-rule:evenodd;clip-rule:evenodd;fill:url(#SVGID_2_);}
	.st5{fill-rule:evenodd;clip-rule:evenodd;fill:url(#SVGID_3_);}
	.st6{fill-rule:evenodd;clip-rule:evenodd;fill:url(#SVGID_4_);}
	.st7{fill-rule:evenodd;clip-rule:evenodd;fill:url(#SVGID_5_);}
	.st8{fill-rule:evenodd;clip-rule:evenodd;fill:url(#SVGID_6_);}
	.st9{fill-rule:evenodd;clip-rule:evenodd;fill:url(#SVGID_7_);}
	.st10{fill-rule:evenodd;clip-rule:evenodd;fill:url(#SVGID_8_);}
	.st11{fill-rule:evenodd;clip-rule:evenodd;fill:url(#SVGID_9_);}
	.st12{fill-rule:evenodd;clip-rule:evenodd;fill:url(#SVGID_10_);}
	.st13{fill-rule:evenodd;clip-rule:evenodd;fill:url(#SVGID_11_);}
	.st14{fill-rule:evenodd;clip-rule:evenodd;fill:url(#SVGID_12_);}
	.st15{fill-rule:evenodd;clip-rule:evenodd;fill:url(#Buy-Button_1_);}
	.st16{fill-rule:evenodd;clip-rule:evenodd;fill:url(#SVGID_13_);}
	.st17{fill-rule:evenodd;clip-rule:evenodd;fill:url(#SVGID_14_);}
	.st18{fill-rule:evenodd;clip-rule:evenodd;fill:url(#SVGID_15_);}
	.st19{fill-rule:evenodd;clip-rule:evenodd;fill:url(#SVGID_16_);}
	.st20{fill-rule:evenodd;clip-rule:evenodd;fill:url(#SVGID_17_);}
	.st21{fill-rule:evenodd;clip-rule:evenodd;fill:url(#SVGID_18_);}
	.st22{fill-rule:evenodd;clip-rule:evenodd;fill:url(#SVGID_19_);}
	.st23{fill-rule:evenodd;clip-rule:evenodd;fill:url(#SVGID_20_);}
	.st24{fill-rule:evenodd;clip-rule:evenodd;fill:url(#SVGID_21_);}
	.st25{fill-rule:evenodd;clip-rule:evenodd;fill:url(#SVGID_22_);}
	.st26{fill-rule:evenodd;clip-rule:evenodd;fill:url(#SVGID_23_);}
	.st27{fill-rule:evenodd;clip-rule:evenodd;fill:url(#SVGID_24_);}
	.st28{fill:url(#SVGID_25_);}
	.st29{fill-rule:evenodd;clip-rule:evenodd;fill:url(#SVGID_26_);}
	.st30{fill-rule:evenodd;clip-rule:evenodd;fill:url(#Volume-Button_1_);}
	.st31{fill-rule:evenodd;clip-rule:evenodd;fill:url(#SVGID_27_);}
	.st32{fill-rule:evenodd;clip-rule:evenodd;fill:url(#SVGID_28_);}
	.st33{fill-rule:evenodd;clip-rule:evenodd;fill:url(#SVGID_29_);}
	.st34{fill-rule:evenodd;clip-rule:evenodd;fill:url(#SVGID_30_);}
	.st35{fill-rule:evenodd;clip-rule:evenodd;fill:url(#SVGID_31_);}
	.st36{fill-rule:evenodd;clip-rule:evenodd;fill:url(#SVGID_32_);}
	.st37{fill-rule:evenodd;clip-rule:evenodd;fill:url(#SVGID_33_);}
	.st38{fill-rule:evenodd;clip-rule:evenodd;fill:url(#SVGID_34_);}
	.st39{fill-rule:evenodd;clip-rule:evenodd;fill:url(#SVGID_35_);}
	.st40{fill-rule:evenodd;clip-rule:evenodd;fill:url(#SVGID_36_);}
	.st41{fill-rule:evenodd;clip-rule:evenodd;fill:url(#SVGID_37_);}
	.st42{fill-rule:evenodd;clip-rule:evenodd;fill:url(#SVGID_38_);}
	.st43{fill-rule:evenodd;clip-rule:evenodd;fill:url(#SVGID_39_);}
	.st44{fill-rule:evenodd;clip-rule:evenodd;fill:url(#SVGID_40_);}
	.st45{fill-rule:evenodd;clip-rule:evenodd;fill:url(#SVGID_41_);}
	.st46{fill-rule:evenodd;clip-rule:evenodd;fill:url(#SVGID_42_);}
	.st47{fill-rule:evenodd;clip-rule:evenodd;fill:url(#SVGID_43_);}
	.st48{fill:url(#SVGID_44_);}
	.st49{fill-rule:evenodd;clip-rule:evenodd;fill:url(#SVGID_45_);}
	.st50{fill-rule:evenodd;clip-rule:evenodd;fill:url(#SVGID_46_);}
	.st51{fill:url(#SVGID_47_);}
	.st52{fill-rule:evenodd;clip-rule:evenodd;fill:url(#SVGID_48_);}
	.st53{fill-rule:evenodd;clip-rule:evenodd;fill:url(#SVGID_49_);}
</style>
<g id="图层_2_1_">
	<g id="Online_Transportation_Car">
		<g id="Cyber_Monday_5">
			<g id="Artboard11">
				<g id="BG">
					<path d="M203.1,832.1c3,5.1,8.5,8.2,14.4,8.2h494.3c11.8,0,22.7-6.2,28.7-16.4
						c36.9-62.1,168.3-283.1,206-346.4c6.2-10.5,6.2-23.6,0-34.1L810.1,213.9c-6-10.1-16.9-16.4-28.7-16.4H332.8
						c-11.8,0-22.7,6.2-28.7,16.4L80,590.9c-6.2,10.5-6.2,23.6,0,34.1C107.6,671.4,183.2,798.5,203.1,832.1L203.1,832.1z M809.1,815
						c-4.7,7.9-2.1,18.2,5.9,22.9c2.6,1.5,5.5,2.3,8.5,2.3h71.1c11.8,0,22.7-6.2,28.7-16.4l65.6-110.4c6.2-10.5,6.2-23.6,0-34.1
						c-9.7-16.3-24.4-40.9-35.2-59.3c-4.7-7.9-15-10.5-22.9-5.8c-2.4,1.4-4.4,3.4-5.8,5.8C897.4,666.5,837.1,767.7,809.1,815
						L809.1,815z M142,228.9c-11.8,0-22.7,6.2-28.7,16.3C94.6,276.6,54,344.8,35.1,376.7c-6.2,10.5-6.2,23.6,0,34.1l27.7,46.8
						c4,6.6,12.6,8.7,19.2,4.7c1.9-1.2,3.6-2.8,4.7-4.7c26.9-45.1,91.6-153.9,121.1-203.4c4.7-7.9,2.1-18.2-5.8-22.9
						c-2.6-1.6-5.6-2.4-8.6-2.4H142z" class="st0" id="background"></path>
					<path d="M836.5,769L925,620.1c4.7-7.9,15-10.5,22.9-5.8c2.4,1.4,4.4,3.4,5.8,5.8
						c10.9,18.3,25.6,43,35.2,59.3c6.2,10.5,6.2,23.6,0,34.1L950,779L836.5,769z M154.2,466.1c20.2,5.6,39.8,13.3,58.4,22.9
						c174.4,88.9,262.1,76.8,478.2,4.3c101-33.8,189.2-40.3,260.3-35.1c0.4,6.7-1.2,13.4-4.6,19.2L776.3,763.6l-648.2-57.5L80,625
						c-6.2-10.5-6.2-23.6,0-34.1L154.2,466.1z M62.1,456.5c8.4-0.5,16.9-0.6,25.6-0.4l-0.9,1.6c-4,6.6-12.5,8.7-19.1,4.8
						c-1.9-1.2-3.6-2.8-4.8-4.8L62.1,456.5z" class="st1" id="bliss-top"></path>
					<path d="M75.6,603.3c80.7-13.5,206.4-14.9,356.3,50.6c161.7,70.6,250,98.5,366,73.4l-57.4,96.5
						c-6,10.1-17,16.3-28.7,16.3H217.5c-5.9,0-11.4-3.1-14.4-8.2C183.2,798.6,107.6,671.5,80,625C76.1,618.5,74.6,610.8,75.6,603.3
						L75.6,603.3z M984.5,671.9l4.5,7.5c6.2,10.5,6.2,23.6,0,34.1l-65.6,110.4c-6,10.1-17,16.3-28.7,16.3h-71.1
						c-9.2,0-16.7-7.5-16.7-16.7c0-3,0.8-6,2.3-8.6l65.4-110.1c11-4,22.4-8.3,34.1-13C933,681.9,958.5,675.2,984.5,671.9
						L984.5,671.9z" class="st2" id="bliss-bottom"></path>
					<g id="tree">
						<path d="M209.7,372.8c27.2,39.5,17.2,93.5-22.3,120.7c-14.5,9.9-31.6,15.3-49.2,15.3c-3,0-6.1-0.2-9.1-0.5
							L209.7,372.8z M106.4,256.8c30.2-16.9,68.2-7.3,86.8,21.9L86.8,457.6c-4,6.6-12.6,8.7-19.2,4.7c-1.9-1.2-3.6-2.8-4.7-4.7
							l-8.9-15c-8.2-33.8,4.5-69.2,32.2-90.1c-8.5-11.3-13-25-13-39.1v-0.8L106.4,256.8L106.4,256.8z" class="st1"></path>
						<path d="M142.6,485.7v145.3h-8.7V500.3L142.6,485.7z M167.2,444.2l9.8-9.8c1.7-1.7,4.5-1.7,6.2,0l0,0
							c1.7,1.7,1.7,4.5,0,6.2l-34.1,34.1L167.2,444.2z M122.5,397.7l-19.9-19.8c-1.7-1.7-1.7-4.5,0-6.2l0,0c1.7-1.7,4.5-1.7,6.2,0
							L127,390L122.5,397.7z M133.9,378.4v-98.7c0-2.4,1.9-4.4,4.3-4.4l0,0c2.4,0,4.4,2,4.4,4.4v45.1l17.9-18c1.7-1.7,4.5-1.7,6.2,0
							c0,0,0,0,0,0l0,0c1.7,1.7,1.7,4.5,0,6.2c0,0,0,0,0,0l-24.1,24.1v26.7L133.9,378.4L133.9,378.4z" class="st0"></path>
					</g>
				</g>
				<g id="plants-right">
					
						<linearGradient gradientTransform="matrix(-125.35 253.69 -253.48 -154.34 -543043.6875 534788.5)" y2="-849.4589" x2="-2621.3853" y1="-849.4931" x1="-2621.9482" gradientUnits="userSpaceOnUse" id="SVGID_1_">
						<stop style="stop-color:#FFBC56" offset="0"></stop>
						<stop style="stop-color:#FFA14D" offset="0.49"></stop>
						<stop style="stop-color:#FF5133" offset="1"></stop>
					</linearGradient>
					<path d="M832.8,840.2l157.8-87.9c-11.7,32.4-36.2,63.7-70.8,87.9H832.8z" class="st3"></path>
					
						<linearGradient gradientTransform="matrix(198.18 -113.43 9.58 14.73 525761.25 -283029.0938)" y2="-821.9282" x2="-2607.7764" y1="-821.5188" x1="-2608.3394" gradientUnits="userSpaceOnUse" id="SVGID_2_">
						<stop style="stop-color:#FF5133" offset="0"></stop>
						<stop style="stop-color:#FFBC56" offset="1"></stop>
					</linearGradient>
					<path d="M783.2,840.2c16.8-23.4,40.5-44.7,69.8-61c45.3-25.2,95-33.7,137.5-26.8l-157.8,87.9H783.2z" class="st4"></path>
					
						<linearGradient gradientTransform="matrix(0 335.78 -335.78 0 -284672.1562 879889)" y2="-850.3785" x2="-2617.8979" y1="-850.3785" x1="-2618.4609" gradientUnits="userSpaceOnUse" id="SVGID_3_">
						<stop style="stop-color:#FFBC56" offset="0"></stop>
						<stop style="stop-color:#FFA14D" offset="0.49"></stop>
						<stop style="stop-color:#FF5133" offset="1"></stop>
					</linearGradient>
					<path d="M808.7,840.2l116.4-187.1c7,43-3.4,93.8-32.6,140.9c-10.5,16.8-22.9,32.4-37,46.3H808.7z" class="st5"></path>
					
						<linearGradient gradientTransform="matrix(165.65 -238.25 19.17 11.71 448640.9688 -612280.25)" y2="-790.5063" x2="-2611.2371" y1="-790.08" x1="-2611.7996" gradientUnits="userSpaceOnUse" id="SVGID_4_">
						<stop style="stop-color:#FF5133" offset="0"></stop>
						<stop style="stop-color:#FFBC56" offset="1"></stop>
					</linearGradient>
					<path d="M777,840.2c3.8-29.9,14.7-61.2,33.2-91c29.2-47,71.4-80.6,114.8-96.2L808.7,840.2H777z" class="st6"></path>
				</g>
				<g id="plants-left">
					
						<linearGradient gradientTransform="matrix(125.35 253.69 253.48 -154.34 540296.8125 534788.5)" y2="-837.192" x2="-2613.9316" y1="-837.243" x1="-2614.4946" gradientUnits="userSpaceOnUse" id="SVGID_5_">
						<stop style="stop-color:#FFBC56" offset="0"></stop>
						<stop style="stop-color:#FFA14D" offset="0.49"></stop>
						<stop style="stop-color:#FF5133" offset="1"></stop>
					</linearGradient>
					<path d="M462.8,840.2L305,752.4c11.7,32.4,36.2,63.7,70.8,87.9L462.8,840.2z" class="st7"></path>
					
						<linearGradient gradientTransform="matrix(-198.18 -113.43 -9.58 14.73 -528508.1875 -283029.0938)" y2="-936.3998" x2="-2622.6343" y1="-935.9905" x1="-2623.1968" gradientUnits="userSpaceOnUse" id="SVGID_6_">
						<stop style="stop-color:#FF5133" offset="0"></stop>
						<stop style="stop-color:#FFBC56" offset="1"></stop>
					</linearGradient>
					<path d="M512.4,840.2c-16.8-23.4-40.5-44.7-69.8-61c-45.3-25.2-95-33.7-137.6-26.8l157.7,87.9L512.4,840.2z" class="st8"></path>
					
						<linearGradient gradientTransform="matrix(2.056060e-14 335.78 335.78 -2.056060e-14 281925.3438 879889)" y2="-838.3397" x2="-2617.8979" y1="-838.3397" x1="-2618.4609" gradientUnits="userSpaceOnUse" id="SVGID_7_">
						<stop style="stop-color:#FFBC56" offset="0"></stop>
						<stop style="stop-color:#FFA14D" offset="0.49"></stop>
						<stop style="stop-color:#FF5133" offset="1"></stop>
					</linearGradient>
					<path d="M486.9,840.2L370.5,653.1c-7,43,3.4,93.8,32.6,140.9c10.5,16.8,22.9,32.4,37,46.3H486.9z" class="st9"></path>
					
						<linearGradient gradientTransform="matrix(-165.65 -238.25 -19.17 11.71 -451387.7812 -612280.25)" y2="-938.5124" x2="-2618.5159" y1="-938.086" x1="-2619.0789" gradientUnits="userSpaceOnUse" id="SVGID_8_">
						<stop style="stop-color:#FF5133" offset="0"></stop>
						<stop style="stop-color:#FFBC56" offset="1"></stop>
					</linearGradient>
					<path d="M518.6,840.2c-3.8-29.9-14.7-61.2-33.2-91c-29.2-47-71.4-80.6-114.8-96.2l116.4,187.1H518.6z" class="st10"></path>
				</g>
				<g id="Smartphone">
					
						<linearGradient gradientTransform="matrix(8.123817e-14 1326.72 398.12 -2.437782e-14 335115.4688 3472319.25)" y2="-840.025" x2="-2616.5576" y1="-840.025" x1="-2617.1206" gradientUnits="userSpaceOnUse" id="SVGID_9_">
						<stop style="stop-color:#E6CBB0" offset="0"></stop>
						<stop style="stop-color:#C5A586" offset="1"></stop>
					</linearGradient>
					<path d="M849.1,192c0-27.5-22.3-49.7-49.7-49.8c0,0,0,0,0,0h-279v739.4h279c27.5,0,49.8-22.3,49.8-49.8
						c0,0,0,0,0,0V192z" class="st11"></path>
					
						<linearGradient gradientTransform="matrix(8.123817e-14 1326.72 3452.3 -2.113924e-13 2915864 3472319.25)" y2="-844.4307" x2="-2616.5576" y1="-844.4307" x1="-2617.1206" gradientUnits="userSpaceOnUse" id="SVGID_10_">
						<stop style="stop-color:#F7E9DD" offset="0"></stop>
						<stop style="stop-color:#E9CAAF" offset="1"></stop>
					</linearGradient>
					<path d="M824.9,192c0-27.5-22.3-49.7-49.7-49.8c0,0,0,0,0,0H496.2c-27.5,0-49.7,22.3-49.7,49.8V832
						c0,27.5,22.3,49.8,49.8,49.8h0h278.9c27.5,0,49.8-22.3,49.8-49.8v0V192z" class="st12"></path>
					
						<linearGradient gradientTransform="matrix(9.364813e-14 1529.39 504.07 -3.086539e-14 424552.3438 4002762.75)" y2="-840.9876" x2="-2616.554" y1="-840.9876" x1="-2617.1169" gradientUnits="userSpaceOnUse" id="SVGID_11_">
						<stop style="stop-color:#2B5ACC" offset="0"></stop>
						<stop style="stop-color:#152873" offset="1"></stop>
					</linearGradient>
					<path d="M808.1,196.2c0-20.6-16.7-37.3-37.3-37.3H500.6c-20.6,0-37.3,16.7-37.3,37.3v631.6
						c0,20.6,16.7,37.3,37.3,37.3h270.2c20.6,0,37.3-16.7,37.3-37.3V196.2z" class="st13"></path>
					
						<linearGradient gradientTransform="matrix(8.123817e-14 1326.72 3452.3 -2.113924e-13 2915864 3472319.25)" y2="-844.4307" x2="-2616.5576" y1="-844.4307" x1="-2617.1206" gradientUnits="userSpaceOnUse" id="SVGID_12_">
						<stop style="stop-color:#F7E9DD" offset="0"></stop>
						<stop style="stop-color:#E6C2A2" offset="1"></stop>
					</linearGradient>
					<path d="M724.3,158.9L724.3,158.9c0,16.2-13.1,29.4-29.3,29.5c0,0-0.1,0-0.1,0H576.5c-16.2,0-29.4-13.2-29.3-29.5
						c0,0,0,0,0,0l0,0v-16.6h177.1V158.9z" class="st14"></path>
					<g id="Card">
						
							<linearGradient gradientTransform="matrix(7.112137e-15 -116.15 -59.06 -3.616382e-15 -51310.2539 -302625.4688)" y2="-879.5579" x2="-2611.5305" y1="-879.5579" x1="-2612.0764" gradientUnits="userSpaceOnUse" id="Buy-Button_1_">
							<stop style="stop-color:#FF5133" offset="0"></stop>
							<stop style="stop-color:#FFBC56" offset="1"></stop>
						</linearGradient>
						<path d="M734.9,753.7c0-15.1-12.2-27.3-27.3-27.3h-144c-15,0.8-26.6,13.7-25.7,28.8
							c0.8,13.9,11.9,24.9,25.7,25.7h144C722.7,780.9,734.9,768.7,734.9,753.7z" class="st15" id="Buy-Button"></path>
						
							<linearGradient gradientTransform="matrix(0 575.65 -575.65 0 -487828.875 1507023.875)" y2="-848.5444" x2="-2616.8464" y1="-848.5444" x1="-2617.4092" gradientUnits="userSpaceOnUse" id="SVGID_13_">
							<stop style="stop-color:#FFFFFF" offset="0"></stop>
							<stop style="stop-color:#F0E7DF" offset="1"></stop>
						</linearGradient>
						<path d="M774.7,311.3h-278v308.4c0,6.9,5.6,12.4,12.4,12.4c0,0,0,0,0,0h253.1c6.8,0,12.4-5.5,12.4-12.4
							c0,0,0,0,0-0.1L774.7,311.3L774.7,311.3z" class="st16"></path>
						
							<linearGradient gradientTransform="matrix(0 45.61 -110.69 0 -94931.8281 120301.1484)" y2="-863.38" x2="-2625.2463" y1="-863.38" x1="-2625.8096" gradientUnits="userSpaceOnUse" id="SVGID_14_">
							<stop style="stop-color:#E6CBB0" offset="0"></stop>
							<stop style="stop-color:#C49464" offset="1"></stop>
						</linearGradient>
						<path d="M700.9,561.6c0-4.4-3.6-8-8-8.1c0,0,0,0,0,0H578.6c-4.4,0-8.1,3.6-8.1,8.1l0,0c0,4.4,3.6,8,8.1,8.1
							h114.3C697.3,569.6,700.9,566,700.9,561.6z" class="st17"></path>
						
							<linearGradient gradientTransform="matrix(0 33 -48.97 0 -42783.2148 87350.375)" y2="-886.6436" x2="-2629.2854" y1="-886.6436" x1="-2629.8479" gradientUnits="userSpaceOnUse" id="SVGID_15_">
							<stop style="stop-color:#E6CBB0" offset="0"></stop>
							<stop style="stop-color:#C49464" offset="1"></stop>
						</linearGradient>
						<path d="M675.6,589.9c0-4.4-3.6-8.1-8.1-8.1h-63.6c-4.4,0-8.1,3.6-8.1,8.1l0,0c0,4.4,3.6,8,8,8.1c0,0,0,0,0,0
							h63.6C672,598,675.6,594.4,675.6,589.9C675.6,589.9,675.6,589.9,675.6,589.9z" class="st18"></path>
						<g id="Smartwatch">
							
								<linearGradient gradientTransform="matrix(5.438044e-15 -88.81 -20.69 -1.266897e-15 -18870.2871 -231760.7656)" y2="-942.775" x2="-2613.6006" y1="-942.775" x1="-2614.146" gradientUnits="userSpaceOnUse" id="SVGID_16_">
								<stop style="stop-color:#FF5133" offset="0"></stop>
								<stop style="stop-color:#FFBC56" offset="1"></stop>
							</linearGradient>
							<path d="M666.7,359c-0.7-5.6-5.4-9.8-11.1-9.8h-39.7c-5.6,0-10.4,4.2-11.1,9.8c-1.5,12.3-3.8,31.8-3.8,31.8
								h69.5C670.5,390.9,668.1,371.3,666.7,359z" class="st19"></path>
							
								<linearGradient gradientTransform="matrix(0 88.81 -20.69 0 -18870.2871 233230.5)" y2="-942.775" x2="-2620.3245" y1="-942.775" x1="-2620.8872" gradientUnits="userSpaceOnUse" id="SVGID_17_">
								<stop style="stop-color:#FFBC56" offset="0"></stop>
								<stop style="stop-color:#FF5133" offset="1"></stop>
							</linearGradient>
							<path d="M666.7,512.7c-0.7,5.6-5.4,9.8-11.1,9.8h-39.7c-5.6,0-10.4-4.2-11.1-9.8c-1.5-12.3-3.8-31.8-3.8-31.8
								h69.5C670.5,480.8,668.1,500.3,666.7,512.7z" class="st20"></path>
							
								<linearGradient gradientTransform="matrix(1.399098e-14 228.49 147.38 -9.024423e-15 123141.5 598619)" y2="-831.2238" x2="-2617.6082" y1="-831.2238" x1="-2618.1711" gradientUnits="userSpaceOnUse" id="SVGID_18_">
								<stop style="stop-color:#2B5ACC" offset="0"></stop>
								<stop style="stop-color:#152873" offset="1"></stop>
							</linearGradient>
							<path d="M686.1,403.3c0-11.1-9-20.2-20.2-20.2h-60.5c-11.1,0-20.2,9-20.2,20.2v65.2c0,11.1,9.1,20.1,20.2,20.1
								H666c11.1,0,20.2-9,20.2-20.2V403.3z" class="st21"></path>
							
								<linearGradient gradientTransform="matrix(4.157676e-15 67.9 43.79 -2.681364e-15 35615.9961 178362.0156)" y2="-798.8185" x2="-2620.5544" y1="-798.8185" x1="-2621.1174" gradientUnits="userSpaceOnUse" id="SVGID_19_">
								<stop style="stop-color:#E1F2FF" offset="0"></stop>
								<stop style="stop-color:#95D2FF" offset="1"></stop>
							</linearGradient>
							<path d="M670.5,409.9c0-5.8-4.7-10.4-10.4-10.4h-48.6c-5.8,0-10.4,4.7-10.4,10.4v51.9c0,5.8,4.7,10.4,10.4,10.4
								H660c5.8,0,10.4-4.7,10.4-10.4V409.9z" class="st22"></path>
							
								<linearGradient gradientTransform="matrix(3.345735e-15 54.64 43.79 -2.681364e-15 35615.9961 143692.7812)" y2="-798.8185" x2="-2621.6377" y1="-798.8185" x1="-2622.2007" gradientUnits="userSpaceOnUse" id="SVGID_20_">
								<stop style="stop-color:#E1F2FF" offset="0"></stop>
								<stop style="stop-color:#95D2FF" offset="1"></stop>
							</linearGradient>
							<path d="M601,413.7l69.5,40.1v8c0,5.8-4.7,10.4-10.4,10.4h-48.6c-5.8,0-10.4-4.7-10.4-10.4V413.7z" class="st23"></path>
						</g>
						
							<linearGradient gradientTransform="matrix(0 39.86 -39.86 0 -34894.4492 105028.5391)" y2="-893.942" x2="-2623.8408" y1="-893.942" x1="-2624.3862" gradientUnits="userSpaceOnUse" id="SVGID_21_">
							<stop style="stop-color:#E6CBB0" offset="0"></stop>
							<stop style="stop-color:#C49464" offset="1"></stop>
						</linearGradient>
						<path d="M745.9,433.2c1.5,0.9,2,2.8,1.1,4.2c-0.3,0.5-0.7,0.9-1.1,1.1l-12.5,7.2c-1.5,0.9-3.4,0.3-4.2-1.1
							c-0.3-0.5-0.4-1-0.4-1.6v-14.4c0-1.7,1.4-3.1,3.1-3.1c0.5,0,1.1,0.1,1.5,0.4L745.9,433.2z" class="st24"></path>
						
							<linearGradient gradientTransform="matrix(2.440721e-15 39.86 39.86 -2.440721e-15 32104.3262 105028.5391)" y2="-792.0461" x2="-2623.8408" y1="-792.0461" x1="-2624.3862" gradientUnits="userSpaceOnUse" id="SVGID_22_">
							<stop style="stop-color:#E6CBB0" offset="0"></stop>
							<stop style="stop-color:#C49464" offset="1"></stop>
						</linearGradient>
						<path d="M525.6,433.2c-1.5,0.8-2,2.7-1.2,4.2c0.3,0.5,0.7,0.9,1.2,1.2l12.4,7.2c1,0.5,2.1,0.5,3.1,0
							c1-0.6,1.6-1.6,1.6-2.7v-14.4c0-1.7-1.4-3.1-3.1-3.1c-0.5,0-1.1,0.1-1.5,0.4L525.6,433.2z" class="st25"></path>
						
							<linearGradient gradientTransform="matrix(0 101.7 -101.7 0 -87325.625 266569.4062)" y2="-864.9099" x2="-2618.1445" y1="-864.9099" x1="-2618.7073" gradientUnits="userSpaceOnUse" id="SVGID_23_">
							<stop style="stop-color:#FFBC56" offset="0"></stop>
							<stop style="stop-color:#FF5133" offset="1"></stop>
						</linearGradient>
						<path d="M774.7,311.3h-278v-26.4c0-6.9,5.6-12.4,12.4-12.4h253.1c6.9,0,12.4,5.6,12.4,12.4v0L774.7,311.3
							L774.7,311.3z" class="st26"></path>
						
							<linearGradient gradientTransform="matrix(0 38.07 -43.94 0 -38594.4961 100774.2891)" y2="-892.0152" x2="-2628.917" y1="-892.0152" x1="-2629.48" gradientUnits="userSpaceOnUse" id="SVGID_24_">
							<stop style="stop-color:#FFFFFF" offset="0"></stop>
							<stop style="stop-color:#F0E7DF" offset="1"></stop>
						</linearGradient>
						<path d="M600.7,659.7c5.9,0,10.6,4.7,10.6,10.6c0,5.9-4.7,10.6-10.6,10.6c-5.9,0-10.6-4.7-10.6-10.6
							C590,664.5,594.8,659.7,600.7,659.7L600.7,659.7z" class="st27"></path>
						
							<linearGradient gradientTransform="matrix(0 -38.2 17.64 0 13520.5244 -98801.2969)" y2="-730.431" x2="-2603.5083" y1="-730.431" x1="-2604.0713" gradientUnits="userSpaceOnUse" id="SVGID_25_">
							<stop style="stop-color:#FF5133" offset="0"></stop>
							<stop style="stop-color:#FFBC56" offset="1"></stop>
						</linearGradient>
						<circle r="10.6" cy="670.3" cx="635.7" class="st28"></circle>
						
							<linearGradient gradientTransform="matrix(0 38.07 -43.94 0 -38468.6055 100774.2891)" y2="-890.7468" x2="-2628.917" y1="-890.7468" x1="-2629.48" gradientUnits="userSpaceOnUse" id="SVGID_26_">
							<stop style="stop-color:#FFFFFF" offset="0"></stop>
							<stop style="stop-color:#F0E7DF" offset="1"></stop>
						</linearGradient>
						<path d="M670.8,659.7c5.9,0,10.6,4.7,10.6,10.6c0,5.9-4.7,10.6-10.6,10.6c-5.9,0-10.6-4.7-10.6-10.6
							C660.2,664.5,664.9,659.7,670.8,659.7L670.8,659.7z" class="st29"></path>
					</g>
					
						<linearGradient gradientTransform="matrix(0 196.07 -196.07 0 -166699.5938 513646.875)" y2="-854.4966" x2="-2617.5989" y1="-854.4966" x1="-2618.1619" gradientUnits="userSpaceOnUse" id="Volume-Button_1_">
						<stop style="stop-color:#B5977A" offset="0"></stop>
						<stop style="stop-color:#A98B6F" offset="1"></stop>
					</linearGradient>
					<path d="M849.1,328.6c0-4.1-3.4-7.5-7.5-7.5c0,0,0,0,0,0l0,0c-4.1,0-7.5,3.4-7.5,7.5v94.3
						c0,4.1,3.4,7.5,7.5,7.5l0,0c4.1,0,7.5-3.3,7.5-7.5c0,0,0,0,0,0V328.6z" class="st30" id="Volume-Button"></path>
				</g>
				<g id="Person">
					<g id="Arm-Left">
						<g id="Shopping-Bag">
							
								<linearGradient gradientTransform="matrix(-31.86 346.47 120.97 50.98 16621.5527 950810.5625)" y2="-826.514" x2="-2620.2661" y1="-826.0706" x1="-2620.8118" gradientUnits="userSpaceOnUse" id="SVGID_27_">
								<stop style="stop-color:#E6CBB0" offset="0"></stop>
								<stop style="stop-color:#D3A77C" offset="1"></stop>
							</linearGradient>
							<path d="M196.4,672.3h-46c-4.6,0-8.5,3.6-8.9,8.2l-7.6,92h54.2C188.1,772.4,196.4,672.3,196.4,672.3z" class="st31"></path>
							
								<linearGradient gradientTransform="matrix(0 92.31 -50.57 -1.89 -44995.957 241265.0156)" y2="-892.9736" x2="-2623.2905" y1="-893.0248" x1="-2623.8535" gradientUnits="userSpaceOnUse" id="SVGID_28_">
								<stop style="stop-color:#B5977A" offset="0"></stop>
								<stop style="stop-color:#7A6652" offset="1"></stop>
							</linearGradient>
							<path d="M188.8,760.3H135c0,0-0.9,10.2-1.6,18.8c-0.5,5.6,3.7,10.6,9.3,11.1c0.3,0,0.6,0,0.9,0h47.7
								L188.8,760.3L188.8,760.3z" class="st32"></path>
							
								<linearGradient gradientTransform="matrix(15.12 182.73 129.81 0 147098.1719 479368.5938)" y2="-826.4095" x2="-2619.1775" y1="-826.3583" x1="-2619.7405" gradientUnits="userSpaceOnUse" id="SVGID_29_">
								<stop style="stop-color:#F7E9DD" offset="0"></stop>
								<stop style="stop-color:#E6C2A2" offset="1"></stop>
							</linearGradient>
							<path d="M269.3,682.5c-0.5-5.8-5.3-10.2-11.1-10.2H166c-2.5,0.1-4.4,2.1-4.3,4.6c0,0.1,0,0.2,0,0.3
								c1.7,20.2,8,97,8,97h107.1C276.8,774.1,271.4,708.3,269.3,682.5z" class="st33"></path>
							
								<linearGradient gradientTransform="matrix(-6.6 27.6 -7.62 -2.08 -25828.3926 71633.3828)" y2="-1120.9607" x2="-2654.5071" y1="-1121.0291" x1="-2655.0701" gradientUnits="userSpaceOnUse" id="SVGID_30_">
								<stop style="stop-color:#B5977A" offset="0"></stop>
								<stop style="stop-color:#7A6652" offset="1"></stop>
							</linearGradient>
							<path d="M238.5,679.8c2.5,0.5,4.1,2.9,3.6,5.4c-0.5,2.5-2.9,4.1-5.4,3.6c-2.5-0.5-4.1-2.9-3.6-5.4
								C233.6,680.9,236,679.3,238.5,679.8C238.5,679.8,238.5,679.8,238.5,679.8z" class="st34"></path>
							
								<linearGradient gradientTransform="matrix(-19.27 55.09 -302.3 -105.75 -307989.7812 55930.6211)" y2="-851.4581" x2="-2637.4238" y1="-851.4581" x1="-2637.9868" gradientUnits="userSpaceOnUse" id="SVGID_31_">
								<stop style="stop-color:#B5977A" offset="0"></stop>
								<stop style="stop-color:#A98B6F" offset="1"></stop>
							</linearGradient>
							<path d="M227.3,647.5l12.3,35.4c0.3,1.1-0.4,2.2-1.5,2.5c-0.4,0.1-0.8,0.1-1.1,0c-0.4-0.2-0.8-0.5-1-0.9
								l-0.1-0.3l-11-32.1l0.8-1.1C226.4,650,227,648.8,227.3,647.5L227.3,647.5z" class="st35"></path>
							
								<linearGradient gradientTransform="matrix(4.44 53.68 -1397.95 0 -1171807.5 141794.6094)" y2="-846.7363" x2="-2626.9695" y1="-846.7363" x1="-2627.5154" gradientUnits="userSpaceOnUse" id="SVGID_32_">
								<stop style="stop-color:#B5977A" offset="0"></stop>
								<stop style="stop-color:#A98B6F" offset="1"></stop>
							</linearGradient>
							<path d="M275.7,760.3H168.5c0,0,1,11.8,1.7,20.5c0.4,5.3,4.9,9.4,10.2,9.4h86.6c5.7,0,10.2-4.5,10.3-10.2
								c0-0.3,0-0.6,0-0.9C276.5,770.7,275.7,760.3,275.7,760.3z" class="st36"></path>
						</g>
						
							<linearGradient gradientTransform="matrix(0 57.38 -57.38 0 -50638.3242 151233.0625)" y2="-886.1809" x2="-2624.4248" y1="-886.1809" x1="-2624.9873" gradientUnits="userSpaceOnUse" id="SVGID_33_">
							<stop style="stop-color:#FFDDD3" offset="0"></stop>
							<stop style="stop-color:#FFBBAA" offset="0.54"></stop>
							<stop style="stop-color:#FFAE9A" offset="1"></stop>
						</linearGradient>
						<path d="M227.6,624.6l5.3,13.4l-7.2,15.5c-0.9,1.9-2.8,3-4.9,2.9l-22.8-1.4c-1.5-0.1-2.9-1-3.6-2.3l-4.9-8.9
							c-0.9-1.6-1.2-3.4-0.9-5.2l2.7-14L227.6,624.6z" class="st37"></path>
						<g id="Handle">
							
								<linearGradient gradientTransform="matrix(-27.01 77.3 71.71 5.27 -12277.0625 207855.9062)" y2="-814.7359" x2="-2624.5229" y1="-814.9064" x1="-2625.0684" gradientUnits="userSpaceOnUse" id="SVGID_34_">
								<stop style="stop-color:#B5977A" offset="0"></stop>
								<stop style="stop-color:#A98B6F" offset="1"></stop>
							</linearGradient>
							<path d="M181.6,672.3l9.5-30.2c0.4-1,1.5-1.5,2.6-1.1c0.9,0.4,1.4,1.3,1.2,2.3l-9.1,29.1L181.6,672.3z" class="st38"></path>
							
								<linearGradient gradientTransform="matrix(-6.6 27.6 -7.62 -2.08 -25894.0527 71632.9844)" y2="-1124.5726" x2="-2654.8298" y1="-1124.6239" x1="-2655.3923" gradientUnits="userSpaceOnUse" id="SVGID_35_">
								<stop style="stop-color:#B5977A" offset="0"></stop>
								<stop style="stop-color:#7A6652" offset="1"></stop>
							</linearGradient>
							<path d="M201.8,679.6c2.5,0.5,4.1,2.9,3.7,5.4c-0.5,2.5-2.9,4.1-5.4,3.7c-2.5-0.5-4.1-2.9-3.7-5.4c0,0,0,0,0,0
								C196.9,680.7,199.3,679.1,201.8,679.6C201.8,679.6,201.8,679.6,201.8,679.6z" class="st39"></path>
							
								<linearGradient gradientTransform="matrix(15.43 80.52 -54.53 -4.01 -7885.0083 208437.3438)" y2="-890.8403" x2="-2624.5476" y1="-891.045" x1="-2625.093" gradientUnits="userSpaceOnUse" id="SVGID_36_">
								<stop style="stop-color:#B5977A" offset="0"></stop>
								<stop style="stop-color:#A98B6F" offset="1"></stop>
							</linearGradient>
							<path d="M193.7,640.7c0.5,0.2,0.9,0.6,1.2,1.2c0,0.1,0,0.2,0,0.3l7.9,40.9c0,0.1,0,0.2,0,0.3
								c-0.1,1.1-1,2-2.2,1.9c-0.3,0-0.6-0.1-0.8-0.2c-0.4-0.2-0.7-0.6-0.9-1c0-0.1,0-0.2,0-0.3l-7.9-40.9c-0.2-1.1,0.6-2.2,1.8-2.3
								C193.1,640.6,193.4,640.6,193.7,640.7L193.7,640.7z" class="st40"></path>
						</g>
						
							<linearGradient gradientTransform="matrix(0 449.81 -449.81 0 -382218.1875 1177856)" y2="-850.2552" x2="-2617.125" y1="-850.2552" x1="-2617.6875" gradientUnits="userSpaceOnUse" id="SVGID_37_">
							<stop style="stop-color:#FF963E" offset="0"></stop>
							<stop style="stop-color:#FF3A23" offset="1"></stop>
						</linearGradient>
						<path d="M191.4,512.2c0-3.5,0.8-7,2.3-10.2l36.7-81.2c5.8-12.8,20.8-18.4,33.6-12.7
							c12.8,5.8,18.4,20.8,12.7,33.6c-0.2,0.5-0.4,0.9-0.7,1.4l-37.2,76.2l-11.1,105.3h-36.3V512.2z" class="st41"></path>
					</g>
					<g id="Leg-Left">
						
							<linearGradient gradientTransform="matrix(0 -44.01 53.61 0 43258.3164 -113646.8047)" y2="-801.7258" x2="-2601.6089" y1="-801.7258" x1="-2602.1548" gradientUnits="userSpaceOnUse" id="SVGID_38_">
							<stop style="stop-color:#FF5133" offset="0"></stop>
							<stop style="stop-color:#FFBC56" offset="1"></stop>
						</linearGradient>
						<path d="M284.7,857.3l21.6,10.9c2.3,1.1,3.7,3.4,3.7,6v0.9c0,3.7-3,6.7-6.7,6.7c0,0,0,0,0,0h-55
							c-1.5,0-2.8-1.2-2.8-2.8c0,0,0,0,0,0v-21.6H284.7z" class="st42"></path>
						
							<linearGradient gradientTransform="matrix(0 -649.6 649.6 0 546861.1875 -1698543)" y2="-841.4135" x2="-2615.5408" y1="-841.4135" x1="-2616.1038" gradientUnits="userSpaceOnUse" id="SVGID_39_">
							<stop style="stop-color:#152873" offset="0"></stop>
							<stop style="stop-color:#2B5ACC" offset="1"></stop>
						</linearGradient>
						<path d="M312.6,587.1l-27.9,270.1h-39.2V587.1H312.6z" class="st43"></path>
					</g>
					<g id="Leg-Right">
						
							<linearGradient gradientTransform="matrix(0 -44.01 53.61 0 43422.0117 -113646.8047)" y2="-803.0776" x2="-2601.6089" y1="-803.0776" x1="-2602.1548" gradientUnits="userSpaceOnUse" id="SVGID_40_">
							<stop style="stop-color:#FF5133" offset="0"></stop>
							<stop style="stop-color:#FFBC56" offset="1"></stop>
						</linearGradient>
						<path d="M375.9,857.3l21.6,10.9c2.3,1.1,3.7,3.4,3.7,6v0.9c0,3.7-3,6.7-6.7,6.7h-55c-1.5,0-2.8-1.2-2.8-2.8
							c0,0,0,0,0,0v-21.6H375.9z" class="st44"></path>
						
							<linearGradient gradientTransform="matrix(0 484.66 -484.66 0 -411461.1562 1269393.5)" y2="-849.6137" x2="-2617.3774" y1="-849.6137" x1="-2617.9233" gradientUnits="userSpaceOnUse" id="SVGID_41_">
							<stop style="stop-color:#2B5ACC" offset="0"></stop>
							<stop style="stop-color:#152873" offset="1"></stop>
						</linearGradient>
						<path d="M315.6,620.7h-36.5c-18.5,0-33.5-15-33.5-33.5c0-18.5,133.6,0,133.6,0h0.5l-3.7,270.1h-39.2L315.6,620.7
							z" class="st45"></path>
					</g>
					<g id="Head">
						
							<linearGradient gradientTransform="matrix(0 221.07 -162.3 0 -139110.3594 579021.375)" y2="-859.0746" x2="-2617.2832" y1="-859.0746" x1="-2617.8462" gradientUnits="userSpaceOnUse" id="SVGID_42_">
							<stop style="stop-color:#2B5ACC" offset="0"></stop>
							<stop style="stop-color:#152873" offset="1"></stop>
						</linearGradient>
						<path d="M347.4,345.3c0,0,18.3-9.9,17.4-37.9c0,0-18.8-11.2-32.1-20.1c-16.8-11.1-42.3-3.6-47.1,14.7
							c0,0-10.2,3.4-13.8,16.5c-8.9,32.7,18.5,50.7,18.5,50.7L347.4,345.3L347.4,345.3z" class="st46"></path>
						
							<linearGradient gradientTransform="matrix(0 135.91 -135.91 0 -116820.9219 356219.8125)" y2="-861.907" x2="-2617.9724" y1="-861.907" x1="-2618.5356" gradientUnits="userSpaceOnUse" id="SVGID_43_">
							<stop style="stop-color:#FFDDD3" offset="0"></stop>
							<stop style="stop-color:#FFBBAA" offset="0.54"></stop>
							<stop style="stop-color:#FFAE9A" offset="1"></stop>
						</linearGradient>
						<path d="M335.3,318.7l16.2,4.4v41.5c0,10.8-8.8,19.6-19.6,19.6h-3.3v11.1h-38.4l0.1-25.9l26.7-19.4L335.3,318.7z" class="st47"></path>
						
							<linearGradient gradientTransform="matrix(0 135.91 -135.91 0 -116820.9219 356219.8125)" y2="-861.8745" x2="-2617.9727" y1="-861.8745" x1="-2618.5356" gradientUnits="userSpaceOnUse" id="SVGID_44_">
							<stop style="stop-color:#FFDDD3" offset="0"></stop>
							<stop style="stop-color:#FFBBAA" offset="0.54"></stop>
							<stop style="stop-color:#FFAE9A" offset="1"></stop>
						</linearGradient>
						<circle r="9.9" cy="349.6" cx="316.4" class="st48"></circle>
						
							<linearGradient gradientTransform="matrix(-23.75 0 0 18.75 -64102.6406 16503.6113)" y2="-859.4253" x2="-2712.2483" y1="-859.4253" x1="-2712.7937" gradientUnits="userSpaceOnUse" id="SVGID_45_">
							<stop style="stop-color:#F58B71" offset="0"></stop>
							<stop style="stop-color:#FCA289" offset="1"></stop>
						</linearGradient>
						<path d="M328.6,384.2h-13.2l13.2,10.4V384.2z" class="st49"></path>
					</g>
					<g id="Shirt">
						
							<linearGradient gradientTransform="matrix(0 -350.64 111.52 0 92277.0312 -916648.5625)" y2="-824.645" x2="-2615.2961" y1="-824.645" x1="-2615.8591" gradientUnits="userSpaceOnUse" id="SVGID_46_">
							<stop style="stop-color:#FF5133" offset="0"></stop>
							<stop style="stop-color:#FFBC56" offset="1"></stop>
						</linearGradient>
						<path d="M379.7,422.9c0-8.2-5.4-15.4-13.3-17.7l-37.7-10.6h-38.5l-35.6,9.4c-5.3,1.4-9,6.2-9,11.7v171.5h134.1
							L379.7,422.9L379.7,422.9z" class="st50"></path>
						
							<linearGradient gradientTransform="matrix(0 77.19 -86.18 0 -74823.5938 202772.4844)" y2="-871.8522" x2="-2620.6174" y1="-871.8522" x1="-2621.1633" gradientUnits="userSpaceOnUse" id="SVGID_47_">
							<stop style="stop-color:#FFFFFF" offset="0"></stop>
							<stop style="stop-color:#F0E7DF" offset="1"></stop>
						</linearGradient>
						<rect height="41.6" width="134.1" class="st51" y="453.6" x="245.6"></rect>
					</g>
					<g id="Leg-Right1">
						
							<linearGradient gradientTransform="matrix(0 93.57 -93.57 0 -80637.4141 245566.9219)" y2="-867.5578" x2="-2619.5891" y1="-867.5578" x1="-2620.1521" gradientUnits="userSpaceOnUse" id="SVGID_48_">
							<stop style="stop-color:#FFDDD3" offset="0"></stop>
							<stop style="stop-color:#FFBBAA" offset="0.54"></stop>
							<stop style="stop-color:#FFAE9A" offset="1"></stop>
						</linearGradient>
						<path d="M516.6,434.9l2.6-17.1c0.2-1.5,1.4-2.7,3-3l1.7-0.3c1.6-0.3,3.2,0.6,3.9,2.1l4.6,10.7l17.3-8.2
							c2.5-1.2,5.5-0.1,6.7,2.4c0,0,0,0.1,0,0.1l8.5,18.6c0.8,1.7,0.4,3.8-1,5.1l-13.6,12.7c-0.5,0.5-1.1,0.9-1.7,1.2l-15.9,8.1
							l-18-31.5l2.1-1L516.6,434.9z" class="st52"></path>
						
							<linearGradient gradientTransform="matrix(0 248.07 -971.5 0 -822711.5 649890.5)" y2="-847.2975" x2="-2617.6277" y1="-847.2975" x1="-2618.1904" gradientUnits="userSpaceOnUse" id="SVGID_49_">
							<stop style="stop-color:#FF963E" offset="0"></stop>
							<stop style="stop-color:#FF3A23" offset="1"></stop>
						</linearGradient>
						<path d="M349,446.8c-8.6-11-6.7-27,4.3-35.6c11-8.6,27-6.7,35.6,4.3c0.3,0.4,0.6,0.8,0.9,1.2l41.3,56l83.4-36.9
							l18,31.5L435,523.2c-10.5,6-23.8,3.3-31.1-6.3L349,446.8L349,446.8z" class="st53"></path>
					</g>
				</g>
			</g>
		</g>
	</g>
</g>
</svg>
