<svg viewBox="0 0 1758 1028" xmlns="http://www.w3.org/2000/svg"><g id="a"></g><g id="b"><g id="c"><g><path fill="#ebf3fa" d="M115.82,1020.76s-207.31-243.2-35.06-506.5c152.83-233.62,331.02-217.65,461.76-122.84,55.68,40.38,216.22,4.98,352.85-232.74,186.34-324.18,832.24-127.56,714.47,371.19-56.99,241.36,173.45,250.14,56.03,491.4l-1550.05-.51Z"></path><g><path fill="#82b378" d="M1036.25,895.07s-39.49-49.84-2.43-81.5c0,0,27.06-17.73,49.13-16.29,0,0-31.27,56.73-21.15,62.37,10.12,5.64,30.63-65.93,30.63-65.93,0,0,61.59-6.46,81.4,3.84,0,0-52.65,46.61-41.56,49.39,11.09,2.78,67.96-42.98,67.96-42.98,0,0,57.32,10.55,54.26,48.39-3.06,37.83-22.81,49.51-31.49,48.51-8.68-1.01-59.46-21.98-60.57-14.28-1.11,7.69,29.46,32.84,50.87,34.02,0,0-40.41,48.22-67.27,34.3-26.86-13.92-29.15-35.98-45.89-44.25-16.74-8.27-31.03-8.25-24.12,.19,6.91,8.44,37.21,16.64,46.79,34.96,9.57,18.32,18.17,30.68-9.62,26.16-27.79-4.52-72.96-26.52-74.94-51.71l-1.98-25.19Z"></path><g><path fill="#82b378" d="M1226.32,853.39s-155.69-6.49-190.07,41.68c0,0-7.6,24.64-31,47.07l-3.65,10.75s26.98-30.78,36.63-32.64c0,0-15.1-59.68,188.09-66.87Z"></path><path fill="#82b378" d="M1005.25,942.14s-33.42,26.74-35.74,74.51l6.06,.59s10.67-49.4,29.96-68.72c19.29-19.32-.29-6.38-.29-6.38Z"></path></g></g><g><path fill="#a8d29f" d="M629.43,487.95s60.4-36.59,32.21-86.26c0,0-22.55-30.5-46.71-38.34,0,0,12.89,74.06,0,75.8-12.89,1.74-8.86-83.64-8.86-83.64,0,0-63.62-33.11-88.59-30.5,0,0,39.46,72.32,26.58,70.58-12.89-1.74-57.18-74.93-57.18-74.93,0,0-65.23-13.07-75.7,28.75-10.47,41.82,6.44,62.73,16.11,65.35,9.66,2.61,71.67,1.74,70.06,10.46-1.61,8.71-43.49,22.65-66.84,14.81,0,0,25.77,68.83,59.59,65.35,33.82-3.49,44.29-26.14,65.23-27.88,20.94-1.74,36.24,4.36,25.77,10.46-10.47,6.1-45.9,2-62.82,17.55-16.91,15.56-30.6,25.14,.81,32.11,31.41,6.97,87.78,2.61,99.06-23.53l11.27-26.14Z"></path><g><path fill="#82b378" d="M440.98,362.48s169.12,59.25,188.45,125.47c0,0-.81,29.62,16.11,63.6v13.07s-17.72-44.44-27.38-50.54c0,0,37.85-57.51-177.17-151.61Z"></path><path fill="#82b378" d="M645.53,551.55s26.08,42.85,11.21,95.01l-6.71-1.95s6.51-57.45-7.13-86.35c-13.64-28.89,2.63-6.71,2.63-6.71Z"></path></g></g><g><path fill="#a8d29f" d="M998.12,779.91s-82.8-50.17-44.16-118.25c0,0,30.91-41.8,64.03-52.55,0,0-17.66,101.52,0,103.91,17.66,2.39,12.14-114.66,12.14-114.66,0,0,87.21-45.39,121.44-41.8,0,0-54.09,99.14-36.43,96.75,17.66-2.39,78.38-102.72,78.38-102.72,0,0,89.42-17.92,103.77,39.42,14.35,57.33-8.83,86-22.08,89.58-13.25,3.58-98.25,2.39-96.05,14.33,2.21,11.94,59.61,31.05,91.63,20.3,0,0-35.33,94.36-81.69,89.58-46.37-4.78-60.72-35.83-89.42-38.22-28.7-2.39-49.68,5.97-35.33,14.33,14.35,8.36,62.93,2.74,86.11,24.06,23.18,21.32,41.95,34.46-1.1,44.02-43.05,9.56-120.33,3.58-135.79-32.25l-15.46-35.83Z"></path><g><path fill="#82b378" d="M1256.45,607.91s-231.83,81.22-258.33,171.99c0,0,1.1,40.61-22.08,87.19v17.92s24.29-60.91,37.53-69.28c0,0-51.89-78.83,242.87-207.83Z"></path><path fill="#82b378" d="M976.04,867.1s-35.75,58.74-15.37,130.24l9.2-2.67s-8.93-78.75,9.78-118.36c18.71-39.61-3.61-9.2-3.61-9.2Z"></path></g></g><g><path fill="#233862" d="M219.65,533.97s-14.43,12.97,1.47,29.45c0,0-13.64,5.15-18.06,1.65,0,0,.93,1.78,1.74,2.55,0,0-13.96,1.37-19.98-3.01-6.01-4.38-6.21-82.05,33.06-75.68,0,0,32.78-4.63,31.79,36.75s11.44,40.65,11.44,40.65c0,0-3.36,2.05-5.03,2.15,0,0-2.49-.86-3.04-2.29,0,0,.6,2.26,1.26,2.95,0,0-13.34,2.17-20.32-2.91-6.97-5.08-15.8-23.65-14.32-32.27Z"></path><path fill="#233862" d="M217.54,555.13s-11.21-11.55-15.85-22.76c-3.31-8.01-19.31-40.42,10.58-43.76,0,0,21.33-1.09,30.54,2.53,7.32,2.88,18.65,10.31,14.81,40.15l-.51,9.87-39.58,13.97Z"></path><path fill="#b7d3f3" d="M183.42,785.41c-1.28-34.04-4.04-63.66-7.34-84.31-5.26-32.92-10-51.86-10.05-52.06-.69-2.9-10.71-14.61-32.97-14.25-22.26,.36-20.15,15.72-20.15,15.72h0c0,.52,.06,1,.16,1.37,.21,.79,20.65,80.96,19.77,184.47-.01,1.45-.16,3.97-.07,5.64,0,0,51.59,1.44,51.61,0,1.8-9.05,.92-34.11-.95-56.59Z"></path><path fill="#d2e3fc" d="M189.91,835.85c-.02,1.44-.72,2.6-1.58,2.6h-.02c-.86-.02-1.54-1.18-1.55-2.6h-44.21c-.02,1.44-.72,2.6-1.58,2.6h-.02c-.87-.02-1.57-1.21-1.56-2.67,.26-29.63-1.31-57.3-3.67-81.72-5.88-60.9-16.74-101.6-16.9-102.17-.1-.36-.16-.85-.16-1.37,0,0-2.11-15.36,20.15-15.72,22.27-.36,32.28,11.35,32.97,14.25,.04,.15,2.72,10.88,6.29,30.16,1.18,6.39,2.46,13.71,3.77,21.9,3.3,20.65,6.06,50.27,7.34,84.31,1.87,22.47,2.53,41.4,.73,50.44Z"></path><path fill="#c5dcf8" d="M136.12,838.45h173.35s-4.04-17.67-104.43-15.04c-71.04,1.86-68.92,15.04-68.92,15.04Z"></path><path fill="#d1e6fa" d="M122.01,1023.05c20.1-110.08,14.93-177.63,14.91-178.48-.05-1.7,2.84-3.23,4.39-3.29,1.57-.03,8.51-.5,9.31,.95,1.05,1.9,5.1,85.13-24.86,180.82h-3.75Z"></path><path fill="#d1e6fa" d="M283.87,1023.05c-20.1-110.08-14.93-177.63-14.91-178.48,.05-1.7-2.84-3.23-4.39-3.29-1.57-.03-8.51-.5-9.31,.95-1.05,1.9-5.1,85.13,24.86,180.82h3.75Z"></path><path fill="#d1e6fa" d="M315.94,1023.05c-20.1-110.08-14.93-177.63-14.91-178.48,.05-1.7-2.84-3.23-4.39-3.29-1.57-.03-8.51-.5-9.31,.95-1.05,1.9-5.1,85.13,24.86,180.82h3.75Z"></path><path fill="#d1e6fa" d="M154.31,1023.05c20.1-110.08,14.93-177.63,14.91-178.48-.05-1.7,2.84-3.23,4.39-3.29,1.57-.03,8.51-.5,9.31,.95,1.05,1.9,5.1,85.13-24.86,180.82h-3.75Z"></path><rect fill="#b7d3f3" ry="5.07" rx="5.07" height="10.21" width="180.45" y="833.88" x="132.68"></rect><g><path fill="#ffb27d" d="M401.31,1027.82c-6.33,0-19.39,1.78-25.12-5.78-5.74-7.56-18.14-11.27-19.72-13.68-.85-1.3,.28-7.09,1.51-12.17h0c3.09-4.6-1.89-10.87-1.89-10.87l16.59,1.21s7.91,11.35,13.73,20.49c2.21,3.47,8.88,8.67,12.89,10.22,5.19,2.01,10.35,3.25,12.25,5.25,3.37,3.55-3.91,5.34-10.24,5.33Z"></path><path fill="#932722" d="M401.31,1027.82c-6.33,0-19.39,1.78-25.12-5.78-5.74-7.56-18.14-11.27-19.72-13.68-.85-1.3-.9-6.56,1.51-12.17h0s10.45,4.62,16.36,13.49c5.9,8.87,21.62,12.73,24.93,7.61,.01-.02,.03-.04,.04-.06,5.19,2.01,10.35,3.25,12.25,5.25,3.37,3.55-3.91,5.34-10.24,5.33Z"></path><polygon fill="#932722" points="356.47 1008.36 362.83 1023.06 367.07 1023.56 366.44 1010.47 356.47 1008.36"></polygon></g><path fill="#163560" d="M232.16,748.01s92.34,30.94,112.2,48.81c19.87,17.87,33.71,195.1,33.71,195.1,0,0-2.37,1.56-7.23,1.44-4.52-.11-13.98-4.34-13.98-4.34,0,0-40.58-84.18-41.74-104.1-1.16-19.92,1.8-37.13-6.15-38.73-7.95-1.6-109.44-2.18-121.05-33.11-11.61-30.93,4.33-57.65,4.33-57.65l39.9-7.42Z"></path><g><path fill="#ffb27d" d="M379.89,1027.82c-6.33,0-19.39,1.78-25.12-5.78-5.74-7.56-18.14-11.27-19.72-13.68-.85-1.3,.28-7.09,1.51-12.17h0c3.09-4.6-1.89-10.87-1.89-10.87l16.59,1.21s7.91,11.35,13.73,20.49c2.21,3.47,8.88,8.67,12.89,10.22,5.19,2.01,10.35,3.25,12.25,5.25,3.37,3.55-3.91,5.34-10.24,5.33Z"></path><path fill="#b5453c" d="M379.89,1027.82c-6.33,0-19.39,1.78-25.12-5.78-5.74-7.56-18.14-11.27-19.72-13.68-.85-1.3-.9-6.56,1.51-12.17h0s10.45,4.62,16.36,13.49c5.9,8.87,21.62,12.73,24.93,7.61,.01-.02,.03-.04,.04-.06,5.19,2.01,10.35,3.25,12.25,5.25,3.37,3.55-3.91,5.34-10.24,5.33Z"></path><polygon fill="#b5453c" points="335.05 1008.36 341.42 1023.06 345.65 1023.56 345.02 1010.47 335.05 1008.36"></polygon></g><path fill="#1c468a" d="M207.99,757.36s95.09,21.58,114.96,39.45c19.87,17.87,33.71,195.1,33.71,195.1,0,0-2.37,1.56-7.23,1.44-4.52-.11-13.98-4.34-13.98-4.34,0,0-40.58-84.18-41.74-104.1-1.16-19.92,1.8-37.13-6.15-38.73-7.95-1.6-109.44-2.18-121.05-33.11-11.61-30.93,4.33-57.65,4.33-57.65l37.15,1.94Z"></path><path fill="#ffb27d" d="M243.72,591.4c.12,.06-11.07,6.34-19.48,3.85-7.91-2.33-13.09-13.44-12.98-13.46,3.35-.72,4.32-5.7,4.25-27.12l1.52,.32,25.48,5.46s-.58,8.67-.6,16.85c-.02,6.86,.37,13.37,1.82,14.1Z"></path><path fill="#ed975d" d="M242.5,560.45s-.58,8.67-.6,16.85c-14.26-.43-21.79-14.5-24.88-22.3l25.48,5.46Z"></path><path fill="#ffb27d" d="M247.26,568.19s-33.73,.6-33.75-22.13c-.02-22.73-4.39-37.96,17.14-39.31,21.54-1.35,25.73,7.32,27.44,14.91,1.71,7.59-2.06,45.79-10.83,46.53Z"></path><path fill="#fff" d="M168.61,689.57c-3.33-15.09,7.99-44.38,19.8-68.63,10.72-21.98,21.85-39.8,22.85-39.16,28.27,18.15,30.82,3.06,30.82,3.06h0s25.68,3.69,32.95,17.23c9.02,16.8,18.76,63.75,28.44,72.64-1.49,4.92-.85,7.54,.73,13.64,.34,1.31,.71,2.55,1.12,3.73,1.46,4.29,3.28,7.77,4.86,10.8-4.92,3.23-14.42,9.38-21.42,4.96-10.67-6.76-19-27.33-23.68-35.52l-.05-.09c-10.19,62.38,3.66,76.58-3.35,83.16-7.4,6.95-17.98-3.31-41.25,7.6-15.26,7.16-36.44,17.52-50.7,19.32-7.48,.95-13.06-.46-14.88-5.92-5.29-15.88,20.1-58.04,13.75-86.82Z"></path><path fill="#fff" d="M239.76,554.4s.63,2.89,7.27,2.44c0,0,5.57-.37,5.4-3.55,0,0-5.41-2.26-12.67,1.1Z"></path><path fill="#fff" d="M150.05,711.74c7.56-11.48,15.44-17.56,20.62-20.61-1.19-3.32,31.8-47.08,31.8-53.86s8.8-55.48,8.8-55.48c0,0-27.49,1.84-37.01,16.2-11.9,17.96-36.62,87.08-24.21,113.76Z"></path><path fill="#ffb27d" d="M170.66,691.13l54.93,15.51-5.16,10.01s-66.85-.5-70.39-4.91c-3.54-4.4,20.62-20.61,20.62-20.61Z"></path><path fill="#163560" d="M265.09,672.32c4.69,8.19,13.01,28.76,23.68,35.52,7,4.42,16.5-1.73,21.42-4.96-1.58-3.02-3.4-6.5-4.86-10.8-3.93,.97-8.72,2.21-11.81,3.22-6.01,1.97-28.44-22.98-28.44-22.98Z"></path><g><polygon fill="#b5453c" points="259.48 664.16 230.08 734.73 299.78 741.85 327.21 670.19 259.48 664.16"></polygon><path fill="#96302a" d="M327.21,670.19l32.52-22.32-32.52,76.95-27.43,17.04c1.46-3.82,27.43-71.66,27.43-71.66Z"></path></g><path fill="#ffb27d" d="M225.59,706.64s10.16-4.84,12.73-7.32c1.66-1.6,1.53,.68,1.38,1.31-.31,1.25-.73,3.77-3.69,5.88-4.26,3.03-10.41,.13-10.41,.13Z"></path><path fill="#233862" d="M243.83,498.58s-10.76,32.65-26.22,37.94c-15.46,5.29-20.45-1.4-20.45-1.4,0,0,11.5-11.05,13.09-29.24,0,0,25.17-20.89,33.58-7.3Z"></path><path fill="#233862" d="M241.42,501.12s7.96,6.14,10.15,12.43c2.18,6.29,3.69,19.43,7.21,18.77,0,0,6.68-20.51-2.54-31.34-9.78-11.49-14.82,.14-14.82,.14Z"></path><path fill="#233862" d="M242.89,502.04s-5.72,31.32-25,42.39c0,0,18.82-20.15,19.47-40.64,.65-20.49,5.53-1.74,5.53-1.74Z"></path><path fill="#233862" d="M184.81,564.62c6.01,4.38,19.98,3.01,19.98,3.01-.81-.78-1.74-2.56-1.74-2.56,8.24,4.42,24.44-4.18,24.44-4.18-14.33,.05-14.34-22.34-9.88-24.38-.63-16.74,.58-38.06,1.23-47.67-.63,.04-.98,.09-.98,.09-39.27-6.36-39.07,71.3-33.05,75.68Z"></path><path fill="#ffb27d" d="M225.59,706.64s17.84-3.68,21.77-2.75c3.94,.93,12.74,5.02,13.4,5.91,.66,.88-2.56,1.38-4.87,.35-2.96-1.31-7.87-.76-7.87-.76,0,0,9.48,3.36,11.8,4.79,.23,.14,.24,.51,.02,.66-.63,.43-2.15,.58-4.27,.01-3.03-.81-8.45-1.33-8.45-1.33l10.78,3.83c.13,.05,.22,.19,.21,.34-.07,.56-1.01,1.07-3.6,.91-1.99-.13-8.61-1.95-8.61-1.95l5.66,4.09s-1.56,.96-4.51-.47c-2.03-.98-8.12-3.38-9.6-3.21-1.48,.17-9.03,2.41-12.31,1.26-3.28-1.15-4.7-1.66-4.7-1.66l5.16-10.01Z"></path></g><g><path fill="#b7d3f3" d="M205.25,1023.05c1.57,0,2.92-1.2,3.19-2.83l15.63-95.84,22.48-137.84,6.29-38.54-16.01-.49-2.78,22.37-19.51,157.24-11.56,93.2c-.18,1.45,.89,2.73,2.28,2.73Z"></path><path fill="#97badd" d="M234.04,769.89c10.37,4.95,12.5,16.66,12.5,16.66l6.29-38.54-16.01-.49-2.78,22.37Z"></path><path fill="#b7d3f3" d="M603.49,1023.05c-1.57,0-2.92-1.2-3.19-2.83l-15.63-95.84-22.48-137.84-6.29-38.54,16.01-.49,2.78,22.37,19.51,157.24,11.56,93.2c.18,1.45-.89,2.73-2.28,2.73Z"></path><path fill="#97badd" d="M574.7,769.89c-10.37,4.95-12.5,16.66-12.5,16.66l-6.29-38.54,16.01-.49,2.78,22.37Z"></path><rect fill="#b7d3f3" transform="translate(799.15 1507.09) rotate(-180)" ry="9.59" rx="9.59" height="19.19" width="429.55" y="743.95" x="184.8"></rect></g><path fill="#fcecdb" d="M1051.93,782.73h-78.3c-2.17,0-3.94-1.92-3.94-4.26h0c0-2.34,1.77-4.26,3.94-4.26h78.3c2.16,0,3.94,1.92,3.94,4.26h0c0,2.34-1.77,4.26-3.94,4.26Z"></path><path fill="#fcecdb" d="M1051.93,799.41h-78.3c-2.17,0-3.94-1.92-3.94-4.26h0c0-2.34,1.77-4.26,3.94-4.26h78.3c2.16,0,3.94,1.92,3.94,4.26h0c0,2.34-1.77,4.26-3.94,4.26Z"></path><g><path fill="#78acea" d="M1068.42,79.19V996.38c0,14.16-10.54,25.78-23.55,26.14-.21,0-.41,0-.62,0h-423.92c-13.29,0-24.17-11.76-24.17-26.15V79.19c0-14.38,10.88-26.15,24.17-26.15h423.92c13.3,0,24.17,11.76,24.17,26.15Z"></path><path fill="#afcdfb" d="M1093.38,79.19V996.39c0,14.37-10.88,26.14-24.18,26.14h-423.92c-13.3,0-24.16-11.76-24.16-26.14V79.19c0-14.38,10.87-26.15,24.16-26.15h423.92c13.3,0,24.18,11.76,24.18,26.15Z"></path><g><path opacity=".4" fill="#5e92dd" d="M926.46,89.74h-122.76c-2.63,0-4.78-2.33-4.78-5.17h0c0-2.84,2.15-5.17,4.78-5.17h122.76c2.63,0,4.78,2.33,4.78,5.17h0c0,2.84-2.15,5.17-4.78,5.17Z"></path><path opacity=".4" fill="#5e92dd" d="M781.89,89.74h0c-2.63,0-4.78-2.33-4.78-5.17h0c0-2.84,2.15-5.17,4.78-5.17h0c2.63,0,4.78,2.33,4.78,5.17h0c0,2.84-2.15,5.17-4.78,5.17Z"></path></g><path fill="#95c0f4" d="M893.9,968.96c0,9.15-3.41,17.44-8.93,23.46-5.58,6.1-13.33,9.87-21.88,9.87-17.01,0-30.81-14.93-30.81-33.33,0-11.83,5.7-22.22,14.3-28.13,4.77-3.29,10.44-5.19,16.51-5.19,17.01,0,30.81,14.92,30.81,33.32Z"></path><rect fill="#d2e3fc" height="806.48" width="418.78" y="112.77" x="649.4"></rect><path fill="#8cbaf1" d="M884.97,992.42c-5.58,6.1-13.33,9.87-21.88,9.87-17.01,0-30.81-14.93-30.81-33.33,0-11.83,5.7-22.22,14.3-28.13,3.02,14.19,11.97,37.92,38.39,51.6Z"></path></g><path fill="#c0d8fb" d="M1068.42,178.08V495.34h-398.87c-4.46,0-8.12-4.2-8.12-9.34V187.43c0-5.15,3.66-9.35,8.12-9.35h398.87Z"></path><path fill="#c0d8fb" d="M954.66,559.14v298.58c0,5.13-3.31,9.34-7.34,9.34h-297.91v-317.26h297.91c4.03,0,7.34,4.2,7.34,9.35Z"></path><path fill="#fffbf8" d="M1251.68,161.05V459.63c0,5.13-3.88,9.33-8.65,9.33H684.16c-4.74,0-8.63-4.2-8.63-9.33V161.05c0-5.15,3.88-9.35,8.63-9.35h558.87c4.76,0,8.65,4.2,8.65,9.35Z"></path><path fill="#699dee" d="M1251.68,161.05V459.62c0,5.14-4.52,9.34-10.05,9.34h-278.03V151.7h278.03c5.53,0,10.05,4.2,10.05,9.35Z"></path><g><path fill="#fcecdb" d="M1128.42,192.99h-104.62c-1.72,0-3.13-1.52-3.13-3.39h0c0-1.86,1.41-3.39,3.13-3.39h104.62c1.72,0,3.13,1.52,3.13,3.39h0c0,1.86-1.41,3.39-3.13,3.39Z"></path><path fill="#fcecdb" d="M1128.42,206.05h-104.62c-1.72,0-3.13-1.52-3.13-3.39h0c0-1.86,1.41-3.39,3.13-3.39h104.62c1.72,0,3.13,1.52,3.13,3.39h0c0,1.86-1.41,3.39-3.13,3.39Z"></path><rect fill="#fcecdb" ry="4.12" rx="4.12" height="8.24" width="10.07" y="185.48" x="998.47"></rect></g><g><path fill="#fcecdb" d="M1128.42,241.06h-104.62c-1.72,0-3.13-1.52-3.13-3.39h0c0-1.86,1.41-3.39,3.13-3.39h104.62c1.72,0,3.13,1.52,3.13,3.39h0c0,1.86-1.41,3.39-3.13,3.39Z"></path><path fill="#fcecdb" d="M1128.42,254.12h-104.62c-1.72,0-3.13-1.52-3.13-3.39h0c0-1.86,1.41-3.39,3.13-3.39h104.62c1.72,0,3.13,1.52,3.13,3.39h0c0,1.86-1.41,3.39-3.13,3.39Z"></path><rect fill="#fcecdb" ry="4.12" rx="4.12" height="8.24" width="10.07" y="233.56" x="998.47"></rect></g><g><path fill="#fcecdb" d="M1128.42,288.6h-104.62c-1.72,0-3.13-1.52-3.13-3.39h0c0-1.86,1.41-3.39,3.13-3.39h104.62c1.72,0,3.13,1.52,3.13,3.39h0c0,1.86-1.41,3.39-3.13,3.39Z"></path><path fill="#fcecdb" d="M1128.42,301.66h-104.62c-1.72,0-3.13-1.52-3.13-3.39h0c0-1.86,1.41-3.39,3.13-3.39h104.62c1.72,0,3.13,1.52,3.13,3.39h0c0,1.86-1.41,3.39-3.13,3.39Z"></path><rect fill="#fcecdb" ry="4.12" rx="4.12" height="8.24" width="10.07" y="281.09" x="998.47"></rect></g><g><path fill="#fffbf8" d="M975.72,527.75v298.58c0,5.14-3.89,9.34-8.64,9.34H408.22c-4.76,0-8.65-4.2-8.65-9.34v-298.58c0-5.13,3.88-9.34,8.65-9.34H967.08c4.75,0,8.64,4.2,8.64,9.34Z"></path><path fill="#699dee" d="M975.72,527.75v298.58c0,5.15-3.89,9.35-8.63,9.35h-248.57v-317.27h248.57c4.75,0,8.63,4.2,8.63,9.34Z"></path><path fill="#f99746" d="M474.56,570.2c-17.12,0-30.99,15.01-30.99,33.53s13.87,33.53,30.99,33.53,30.99-15.01,30.99-33.53-13.87-33.53-30.99-33.53Zm21.46,34.6h-21.46c-.55,0-.99-.48-.99-1.07v-24.97c0-.59,.44-1.07,.99-1.07s.99,.48,.99,1.07v23.9h20.48c.55,0,.99,.48,.99,1.07s-.44,1.07-.99,1.07Z"></path><path fill="#f99746" d="M471.47,699.97c-15.41,0-27.9,13.51-27.9,30.18s27.9,53.73,27.9,53.73c0,0,27.9-37.06,27.9-53.73s-12.49-30.18-27.9-30.18Zm0,43.98c-7.2,0-13.04-6.32-13.04-14.11s5.84-14.11,13.04-14.11,13.04,6.32,13.04,14.11-5.84,14.11-13.04,14.11Z"></path><path fill="#fcecdb" d="M628.11,718.55h-101.52c-2.57,0-4.68-2.28-4.68-5.06h0c0-2.79,2.11-5.07,4.68-5.07h101.52c2.57,0,4.68,2.28,4.68,5.07h0c0,2.79-2.11,5.06-4.68,5.06Z"></path><path fill="#fcecdb" d="M526.97,727.81h73.75c2.8,0,5.06,2.27,5.06,5.06h0c0,2.8-2.27,5.06-5.06,5.06h-73.75c-2.8,0-5.06-2.27-5.06-5.06h0c0-2.8,2.27-5.06,5.06-5.06Z"></path><path fill="#fcecdb" d="M628.11,599.1h-101.52c-2.57,0-4.68-2.28-4.68-5.06h0c0-2.79,2.11-5.07,4.68-5.07h101.52c2.57,0,4.68,2.28,4.68,5.07h0c0,2.79-2.11,5.06-4.68,5.06Z"></path><path fill="#fcecdb" d="M526.97,608.36h73.75c2.8,0,5.06,2.27,5.06,5.06h0c0,2.8-2.27,5.07-5.07,5.07h-73.75c-2.8,0-5.06-2.27-5.06-5.06h0c0-2.8,2.27-5.07,5.06-5.07Z"></path></g><polygon fill="#ffb176" points="975.72 661.39 975.72 609.97 874.43 564.82 718.52 599.52 718.52 668.97 806.99 708.02 807.09 708.06 975.72 661.41 975.72 661.39"></polygon><polygon fill="#b25918" points="806.83 708.06 806.83 738.7 718.52 697.22 718.52 669.04 806.83 708.06"></polygon><polygon fill="#f99746" points="975.72 661.39 806.99 708.02 806.83 708.06 806.83 738.7 975.72 688.81 975.72 661.41 975.72 661.39"></polygon><g><path fill="#ffb27d" d="M1190.82,267.87c-.58-.38-1.38-.87-2.34-1.44h0l-15.13-13.36s-1.92,1.18,0,3.45c.25,.29,.58,.67,.98,1.11l-5.78-4.88s-1.02,1.1-.36,2.86c.47,1.25,5.89,6.25,8.93,9-1.83-.95-4.41-3.05-8.27-7.25-2.41-2.61-1.63,1.32-1.26,3.05,.65,3.05,8.16,13.34,10.81,17.97,2.64,4.63,3.96,9.21,2.11,7.2-1.85-2-11.89-8.69-12.94-7.2-1.06,1.49,5.02,7.2,7.92,11.78,2.91,4.57,6.08,12.29,16.38,14,10.3,1.71,12.07-3.92,12.07-3.92,0,0-8.38-29.23-13.13-32.38Z"></path><path fill="#ffb27d" d="M1509.23,546.37s-2.51,26.41-5.26,31.4c-2.75,4.99-15.56,19.5-19.48,24.09-.27,.31-2.81-2.12-.89-5.63,7.77-14.18,5.61-10.78,2.92-20.1-1.33-4.61-2.16,8.66-4.36,8.97-2.2,.31-1.42-13.99-1.5-18.34s11.04-6.39,12.35-22.08c.84-10.1,16.22,1.7,16.22,1.7Z"></path><path fill="#233862" d="M1432.69,275.45s-20.29,107.76-131.97,142.97c-34.86,10.99-114.06-113.18-114.06-113.18,0,0,2.78-11.45,20.23-8.82,0,0,77.11,55.23,86.82,61.23,8.61,5.32,65.26-68.44,91.09-80.34s47.89-1.87,47.89-1.87Z"></path><g><path fill="#233862" d="M1566.02,952.88s13.85,13.68,11.15,23.4c-2.7,9.72-15.21,16.2-16.9,28.08-1.69,11.88-8.45,18.36-14.53,18.36h-29s-4.48-8.36,6.34-10.88c10.81-2.52,14.89-16.48,14.21-29.44-.68-12.96,1.01-30.24,1.01-30.24l22.98-5.76,4.73,6.48Z"></path><path fill="#233862" d="M1396.05,988.26s2.49,31.13-3.59,34.37l-77.84-.17s0-9.72,12.5-11.88c12.5-2.16,34.47-10.08,38.18-27.72,3.72-17.64,30.75,5.4,30.75,5.4Z"></path><path fill="#f99746" d="M1330.34,548.52s4.11,54.57,8.93,120.16c6.56,89.1,14.45,198.55,15.23,219.29,1.35,36,6.76,93.6,6.76,93.6,0,0,12.83,13.68,38.52,7.92,0,0,22.89-82.21,29.43-169.2,.1-1.43,.2-2.86,.3-4.3,6.08-88.55,15.54-275.02,15.54-275.02l-114.71,7.56Z"></path><path fill="#ed7d2b" d="M1330.34,548.52s4.11,54.57,8.93,120.16l89.94,151.6c.1-1.43,.2-2.86,.3-4.3,6.08-88.55,15.54-275.02,15.54-275.02l-114.71,7.56Z"></path><path fill="#f99746" d="M1349.09,555s74,197.63,122.66,290.5c48.66,92.87,63.86,118.79,63.86,118.79,0,0,27.88-11.88,30.41-19.98,0,0-18.61-179.3-51.19-223-18.41-24.7-40.04-98.81-41.05-124.73-1.01-25.92-6.59-77.21-6.59-77.21l-118.1,35.64Z"></path></g><path fill="#ffb27d" d="M1446.45,250.44s-50.07,26.14-78.94,16.44c0,0,7.11-9.7,19.54-16.91-1-6.27-1.78-11.71-2.22-16.32-1.22-10.64-1.22-16.68-1.22-16.68l19.32-16.44,18.32-15.73c-1.44,44.23,25.2,65.64,25.2,65.64Z"></path><path fill="#2a4e96" d="M1472.83,529.48c.11,3.32-6.44,7.1-9.33,8.51-21.42,10.18-41.41,17.27-64.06,19.63-26.75,2.96-58.4-3.55-69.28-3.31-1.11,0-2.11-.47-3-1.3-.78-.59-1.33-35.48-.78-79.36,0-1.77,0-3.54,.11-5.32v-.59c.22-17.15,.78-35.13,1.55-53.11,1.55-39.5,4.45-77.59,9.33-98.64,5.88-24.84,19.21-41.28,31.31-53.23l9.99-9.46c9.99,2.13,20.54,1.53,31.09-4.02,11.55-6.03,23.98-12.54,25.98-10.88,15.1,11.94,25.31,38.79,30.76,73.09,.02,.17,.06,.33,.08,.51,3.05,19.62,4.58,41.56,4.47,64.54,0,8.52-.22,17.27-.67,25.9-2.23,39.11-.74,73.93,.72,98.06,.29,4.77,.58,9.11,.83,13,.44,6.86,.78,12.18,.89,15.96Z"></path><path fill="#233862" d="M1471.11,500.52c-83-103.68-31.51-179.03-31.51-179.03l26.98-9.47c3.05,19.62,4.58,41.56,4.47,64.54,0,8.52-.22,17.27-.67,25.9-2.23,39.11-.74,73.93,.72,98.06Z"></path><path fill="#ed985f" d="M1421.58,201.71s-12.66,24.96-36.75,31.93c-1.22-10.64-1.22-16.68-1.22-16.68l19.32-16.44,18.65,1.18Z"></path><path fill="#ffb27d" d="M1374.8,216.25s47.76,8.45,52.25-23.32c4.48-31.77,13.67-52.07-16.64-58.82-30.31-6.74-37.96,4.43-41.87,14.65-3.92,10.22-6.05,64.47,6.26,67.48Z"></path><path fill="#2c3a64" d="M1444.41,130.31c.43-.54,1.43-.97,3.66-1.1,0,0-1.78-1.2-4.16-1.27-.47-3.35-2.11-9.28-7.44-10.72,0,0,2.86,1.65,3.24,5.21-6.17-6.86-19.39-11.84-56-8.72-48.24,4.12-32.34,37.54-26.1,41.52,6.25,3.98,21.97-6.94,33.6-5.94,11.64,1,13.85,19.19,17.8,21.69,3.95,2.5,2.39-1.92,7.74-4.53,5.34-2.61,5.85,6.96,4.31,13.19-1.54,6.23,5.8,14.44,5.8,14.44l7.42-8.64c7.42-8.64,14.41-45.24,11.03-53.05-.3-.69-.59-1.39-.9-2.09Z"></path><path fill="#2a4e96" d="M1435.73,238.15s30.22,15.48,44.71,39.29c22.48,36.92,48.53,171.49,49.01,183.95,.48,12.46-19.02,100.43-19.02,100.43,0,0-19.77-1.41-24.87-12.21,0,0,3.95-90.39,1.45-96.2-2.5-5.81-82.44-121.25-73.45-145.88,8.99-24.63,22.17-69.38,22.17-69.38Z"></path><path fill="#ffb27d" d="M1503.96,577.77l-14.31,25.89s-1.71-.78-1.44-2.63c.27-1.85,4.41-15.87,4.41-15.87l11.34-7.39Z"></path><path fill="#ffb27d" d="M1489.63,578.52s-10.31,12.73-8.03,15.6l7.44-6.23,.58-9.37Z"></path></g><path fill="#82b378" d="M844.47,610.04s-4.31-.9-8.31,1.69c0,0,5.5,2.01,8.31-1.69Z"></path><g><path fill="#ffe4cc" d="M837.56,593.22c-33.64,2.62-64.17,4.77-85.59,12.41-19.71,7.03-31.79,16.5-31.79,26.91,0,11.57,13.12,23.94,38.68,29.16,21.48,4.39,55.29,13.38,78.7,10.15,29.36-4.06,55.44-3.51,75.91-9.33l-9.49-3.76-66.29-26.23,106.78,3.19,10,.3c.3-1.15,.46-2.32,.46-3.49,0-11.14-13.83-21.19-36.05-28.35-21.1-6.79-49.84-13.42-81.33-10.97Z"></path><path fill="#f77548" d="M944.46,635.73l-106.78-3.19,66.29,26.23c-6.58,1.61-13.78,2.99-21.47,4.09-13.64,1.95-29.43,.62-44.82,3.04-25.52,4.02-49.06-5.21-67.95-7.54-20.34-2.52-41.64-15.72-39.32-25.82,2.41-10.49,16.19-22.64,40.89-26.21,18.56-2.68,43.04-8.89,68.1-8.89,20.35,0,37.43,5.47,53.86,6.56,30.99,2.04,51.68,16.45,51.68,28.54,0,1.08-.16,2.14-.48,3.19Z"></path><g><path fill="#b5453c" d="M781.34,628.91c0,1.15-2.25,2.08-5.02,2.08s-5.02-.93-5.02-2.08,2.25-2.08,5.02-2.08,5.02,.93,5.02,2.08Z"></path><path fill="#b5453c" d="M811.85,618.93c0,1.15-2.25,2.08-5.02,2.08s-5.02-.93-5.02-2.08,2.25-2.08,5.02-2.08,5.02,.93,5.02,2.08Z"></path><path fill="#b5453c" d="M793.01,613.43c0,.95-1.85,1.71-4.13,1.71s-4.13-.77-4.13-1.71,1.85-1.71,4.13-1.71,4.13,.77,4.13,1.71Z"></path><path fill="#b5453c" d="M830.41,609.18c0,1.05-2.06,1.91-4.61,1.91s-4.61-.85-4.61-1.91,2.06-1.91,4.61-1.91,4.61,.85,4.61,1.91Z"></path><ellipse fill="#b5453c" ry="3.01" rx="7.27" cy="628.91" cx="823.14"></ellipse><path fill="#b5453c" d="M846.19,617.92c0,1.15-2.25,2.08-5.02,2.08s-5.02-.93-5.02-2.08,2.25-2.08,5.02-2.08,5.02,.93,5.02,2.08Z"></path><path fill="#b5453c" d="M869.42,618.96c0,.57-1.12,1.04-2.51,1.04s-2.51-.46-2.51-1.04,1.12-1.04,2.51-1.04,2.51,.47,2.51,1.04Z"></path><ellipse fill="#b5453c" ry="1.04" rx="2.51" cy="610.05" cx="856.38"></ellipse><path fill="#b5453c" d="M830.41,643.52c0,.57-1.12,1.04-2.51,1.04s-2.51-.47-2.51-1.04,1.12-1.04,2.51-1.04,2.51,.47,2.51,1.04Z"></path><path fill="#b5453c" d="M847.59,648.25c0,.57-1.12,1.04-2.51,1.04s-2.51-.47-2.51-1.04,1.12-1.04,2.51-1.04,2.51,.47,2.51,1.04Z"></path><ellipse fill="#b5453c" ry="2.35" rx="5.67" cy="640.1" cx="803.92"></ellipse><path fill="#82b378" d="M777.06,640.69s-3.72-1.02-7.33,1.03c0,0,4.7,2.05,7.33-1.03Z"></path><path fill="#82b378" d="M805.67,625.86s-5.04-1.38-9.93,1.4c0,0,6.37,2.77,9.93-1.4Z"></path><path fill="#82b378" d="M859.95,617.95s-5.2,.02-9.3,4.01c0,0,6.81,.98,9.3-4.01Z"></path><path fill="#82b378" d="M884.07,620.95s-4.4-2.99-9.84-1.97c0,0,5.28,4.76,9.84,1.97Z"></path><path fill="#82b378" d="M845.43,629.47s-2.45-3.94-6.97-5.18c0,0,2.56,5.63,6.97,5.18Z"></path><path fill="#82b378" d="M836.9,635.07s-4.38-.34-8.07,2.75c0,0,5.68,1.29,8.07-2.75Z"></path><path fill="#82b378" d="M841.01,652.69s-3.6-2.72-8.23-2.12c0,0,4.26,4.26,8.23,2.12Z"></path><path fill="#82b378" d="M847.39,640.87s-4.39-.19-7.98,3.03c0,0,5.71,1.09,7.98-3.03Z"></path><path fill="#82b378" d="M827.32,619.09s-4.28-1.06-8.36,1.37c0,0,5.43,2.22,8.36-1.37Z"></path><path fill="#82b378" d="M816.36,613.93s-3.27-3.16-7.94-3.16c0,0,3.77,4.77,7.94,3.16Z"></path><path fill="#efcbab" d="M783.85,643.29h0c-4.93,1.35-7.41,4.09-5.5,6.08h0c1.44,1.5,4.61,1.18,8.19,.36l1.82,1.9c.25,.26,.99,.33,1.64,.15l3.5-.96c.65-.18,.98-.54,.72-.8l-1.81-1.89c3.3-1.04,5.35-2.13,3.87-3.68h0c-1.91-1.99-7.5-2.52-12.43-1.16Z"></path><path fill="#efcbab" d="M877.5,608.44h0c4.02,1.1,6.04,3.33,4.48,4.96h0c-1.17,1.22-3.76,.96-6.68,.29l-1.49,1.55c-.2,.21-.81,.27-1.34,.13l-2.85-.78c-.53-.15-.8-.44-.59-.65l1.48-1.54c-2.69-.85-4.36-1.74-3.15-3h0c1.56-1.62,6.12-2.05,10.14-.95Z"></path><path fill="#efcbab" d="M820.12,634.82h0c4.02,1.1,6.04,3.34,4.48,4.96h0c-1.17,1.22-3.76,.96-6.68,.29l-1.49,1.55c-.21,.21-.81,.27-1.34,.13l-2.85-.78c-.53-.15-.8-.44-.59-.65l1.48-1.54c-2.69-.85-4.36-1.74-3.15-3h0c1.55-1.62,6.12-2.05,10.14-.95Z"></path><path fill="#efcbab" d="M786.11,617.94h0c-4.02,1.1-6.04,3.34-4.48,4.96h0c1.17,1.22,3.76,.96,6.68,.29l1.49,1.55c.21,.21,.81,.27,1.34,.13l2.85-.78c.53-.15,.8-.44,.59-.65l-1.48-1.54c2.69-.85,4.36-1.74,3.15-3h0c-1.56-1.62-6.12-2.05-10.14-.95Z"></path></g></g><g><path fill="#ffe4cc" d="M961.13,632.42l-92.16-2.75-12.58-3.79v3.42l71.93,28.46c21.72-6.18,36.28-15.09,38.92-25.14v-3.42l-6.11,3.24Z"></path><path fill="#ff7d5a" d="M967.24,629.19c-2.64,10.05-17.21,18.97-38.92,25.15l-32.6-12.9-6.79-2.68h0l-32.54-12.88,110.85,3.32Z"></path><g><path fill="#b5453c" d="M893.26,632.01c0,1.15-2.25,2.08-5.02,2.08s-5.02-.93-5.02-2.08,2.25-2.08,5.02-2.08,5.02,.93,5.02,2.08Z"></path><path fill="#b5453c" d="M898.56,639.56c0,.83-1.16,1.54-2.85,1.87l-6.79-2.68c.76-.75,2.55-1.26,4.62-1.26,2.77,0,5.01,.93,5.01,2.07Z"></path><path fill="#b5453c" d="M916.5,640.04c0,.57-1.12,1.04-2.51,1.04s-2.51-.47-2.51-1.04,1.12-1.04,2.51-1.04,2.51,.47,2.51,1.04Z"></path><ellipse fill="#b5453c" ry="1.04" rx="2.51" cy="634.09" cx="927.45"></ellipse><path fill="#b5453c" d="M904.48,632.53c0,.57-1.12,1.04-2.51,1.04s-2.51-.47-2.51-1.04,1.12-1.04,2.51-1.04,2.51,.47,2.51,1.04Z"></path><path fill="#b5453c" d="M917.32,630.7c0,.94-1.85,1.71-4.13,1.71s-4.13-.77-4.13-1.71,1.85-1.71,4.13-1.71,4.13,.77,4.13,1.71Z"></path><path fill="#b5453c" d="M913.19,636.26c0,.64-1.25,1.16-2.79,1.16s-2.79-.52-2.79-1.16,1.25-1.16,2.79-1.16,2.79,.52,2.79,1.16Z"></path><path fill="#b5453c" d="M876.49,629.94c0,.42-.82,.76-1.84,.76s-1.84-.34-1.84-.76,.83-.76,1.84-.76,1.84,.34,1.84,.76Z"></path><path fill="#82b378" d="M897.77,632.67s-3.61,.01-6.45,2.79c0,0,4.72,.68,6.45-2.79Z"></path><path fill="#82b378" d="M939.34,635.29s-2.75-2.53-6.58-2.42c0,0,3.18,3.84,6.58,2.42Z"></path><path fill="#82b378" d="M906.55,639.55s-2.82-2.43-6.65-2.19c0,0,3.3,3.73,6.65,2.19Z"></path><path fill="#82b378" d="M928.31,642.01s-3.58-.48-6.73,1.89c0,0,4.61,1.32,6.73-1.89Z"></path><path fill="#82b378" d="M873.04,627.6s-3.12-.75-6.08,1.05c0,0,3.96,1.58,6.08-1.05Z"></path></g></g><g><g><path fill="#ffe4cc" d="M740.79,184.06c-14.9,2.32-28.42,4.22-37.91,10.98-8.73,6.22-14.08,14.6-14.08,23.81,0,10.23,5.81,21.19,17.13,25.8,9.51,3.88,24.49,11.84,34.86,8.98,13-3.59,24.56-3.1,33.62-8.25l-4.2-3.32-29.36-23.2,47.29,2.83,4.43,.26c.14-1.02,.2-2.05,.2-3.09,0-9.86-6.12-18.75-15.97-25.08-9.34-6.01-22.07-11.88-36.02-9.71Z"></path><path fill="#f77548" d="M788.14,221.67l-47.29-2.83,29.36,23.2c-2.91,1.43-6.1,2.64-9.51,3.62-6.04,1.73-13.03,.54-19.85,2.69-11.3,3.56-21.73-4.61-30.09-6.67-9.01-2.23-18.44-13.91-17.42-22.84,1.07-9.28,7.17-20.03,18.11-23.19,8.22-2.37,19.06-7.86,30.16-7.86,9.01,0,16.58,4.84,23.85,5.8,13.73,1.81,22.89,14.55,22.89,25.25,0,.95-.07,1.89-.21,2.83Z"></path><g><path fill="#b5453c" d="M715.89,215.64c0,1.02-.99,1.84-2.22,1.84s-2.22-.82-2.22-1.84,.99-1.84,2.22-1.84,2.22,.82,2.22,1.84Z"></path><path fill="#b5453c" d="M729.41,206.81c0,1.02-1,1.84-2.22,1.84s-2.22-.82-2.22-1.84,1-1.84,2.22-1.84,2.22,.82,2.22,1.84Z"></path><ellipse fill="#b5453c" ry="1.51" rx="1.83" cy="201.94" cx="719.23"></ellipse><path fill="#b5453c" d="M737.63,198.18c0,.93-.91,1.69-2.04,1.69s-2.04-.76-2.04-1.69,.91-1.69,2.04-1.69,2.04,.76,2.04,1.69Z"></path><path fill="#b5453c" d="M737.63,215.64c0,1.47-1.44,2.66-3.22,2.66s-3.22-1.19-3.22-2.66,1.44-2.66,3.22-2.66,3.22,1.19,3.22,2.66Z"></path><path fill="#b5453c" d="M744.62,205.92c0,1.01-1,1.84-2.22,1.84s-2.22-.82-2.22-1.84,1-1.84,2.22-1.84,2.22,.82,2.22,1.84Z"></path><path fill="#b5453c" d="M754.91,206.84c0,.51-.5,.92-1.11,.92s-1.11-.41-1.11-.92,.5-.92,1.11-.92,1.11,.41,1.11,.92Z"></path><path fill="#b5453c" d="M750.24,198.95c0,.51-.5,.92-1.11,.92s-1.11-.41-1.11-.92,.5-.92,1.11-.92,1.11,.41,1.11,.92Z"></path><path fill="#b5453c" d="M737.63,228.57c0,.51-.5,.92-1.11,.92s-1.11-.41-1.11-.92,.5-.92,1.11-.92,1.11,.41,1.11,.92Z"></path><path fill="#b5453c" d="M745.23,232.75c0,.51-.5,.92-1.11,.92s-1.11-.41-1.11-.92,.5-.92,1.11-.92,1.11,.41,1.11,.92Z"></path><path fill="#b5453c" d="M728.4,225.54c0,1.15-1.12,2.08-2.51,2.08s-2.51-.93-2.51-2.08,1.12-2.08,2.51-2.08,2.51,.93,2.51,2.08Z"></path><path fill="#82b378" d="M714,226.06s-1.65-.9-3.25,.91c0,0,2.08,1.81,3.25-.91Z"></path><path fill="#82b378" d="M726.67,212.94s-2.23-1.22-4.4,1.23c0,0,2.82,2.45,4.4-1.23Z"></path><path fill="#82b378" d="M750.71,205.95s-2.3,.01-4.12,3.55c0,0,3.02,.87,4.12-3.55Z"></path><path fill="#82b378" d="M761.39,208.6s-1.95-2.64-4.36-1.74c0,0,2.34,4.21,4.36,1.74Z"></path><path fill="#82b378" d="M744.28,216.13s-1.09-3.48-3.09-4.58c0,0,1.14,4.98,3.09,4.58Z"></path><path fill="#82b378" d="M740.5,221.09s-1.94-.3-3.57,2.43c0,0,2.52,1.14,3.57-2.43Z"></path><path fill="#82b378" d="M742.32,236.68s-1.59-2.41-3.64-1.87c0,0,1.89,3.77,3.64,1.87Z"></path><path fill="#82b378" d="M745.15,226.22s-1.94-.16-3.53,2.68c0,0,2.53,.96,3.53-2.68Z"></path><path fill="#82b378" d="M736.26,206.95s-1.89-.94-3.7,1.21c0,0,2.4,1.96,3.7-1.21Z"></path><path fill="#82b378" d="M731.4,202.39s-1.45-2.8-3.52-2.8c0,0,1.67,4.22,3.52,2.8Z"></path><path fill="#efcbab" d="M717,228.36h0c-2.18,1.2-3.28,3.62-2.44,5.38h0c.64,1.33,2.04,1.05,3.63,.32l.81,1.68c.11,.23,.44,.29,.73,.14l1.55-.85c.29-.16,.43-.48,.32-.71l-.8-1.67c1.46-.92,2.37-1.89,1.71-3.26h0c-.84-1.76-3.32-2.23-5.51-1.03Z"></path><path fill="#efcbab" d="M758.48,197.53h0c1.78,.98,2.67,2.95,1.99,4.39h0c-.52,1.08-1.66,.85-2.96,.26l-.66,1.37c-.09,.19-.36,.24-.59,.11l-1.26-.69c-.23-.13-.35-.39-.26-.58l.65-1.36c-1.19-.75-1.93-1.54-1.4-2.66h0c.69-1.44,2.71-1.82,4.49-.84Z"></path><path fill="#efcbab" d="M733.07,220.87h0c1.78,.98,2.67,2.95,1.99,4.39h0c-.52,1.08-1.66,.85-2.96,.26l-.66,1.37c-.09,.19-.36,.24-.59,.11l-1.26-.69c-.23-.13-.35-.39-.26-.58l.65-1.36c-1.19-.75-1.93-1.54-1.4-2.66h0c.69-1.44,2.71-1.82,4.49-.84Z"></path><path fill="#efcbab" d="M718.01,205.94h0c-1.78,.98-2.67,2.95-1.99,4.39h0c.52,1.08,1.66,.85,2.96,.26l.66,1.37c.09,.19,.36,.24,.59,.11l1.26-.69c.23-.13,.35-.39,.26-.58l-.65-1.36c1.19-.75,1.93-1.54,1.4-2.66h0c-.69-1.44-2.71-1.82-4.49-.84Z"></path></g></g><g><path fill="#ffe4cc" d="M795.53,218.75l-40.82-2.44-5.57-3.36v3.02l31.86,25.18c9.62-5.46,16.07-13.35,17.24-22.25v-3.02l-2.7,2.86Z"></path><path fill="#ff7d5a" d="M798.23,215.89c-1.17,8.9-7.62,16.79-17.24,22.25l-14.44-11.41-3.01-2.37h0l-14.41-11.4,49.1,2.93Z"></path><g><path fill="#b5453c" d="M765.47,218.39c0,1.02-.99,1.84-2.22,1.84s-2.22-.82-2.22-1.84,.99-1.84,2.22-1.84,2.22,.82,2.22,1.84Z"></path><path fill="#b5453c" d="M767.81,225.06c0,.73-.51,1.36-1.26,1.66l-3.01-2.37c.34-.66,1.13-1.12,2.05-1.12,1.23,0,2.22,.82,2.22,1.83Z"></path><path fill="#b5453c" d="M775.76,225.48c0,.51-.5,.92-1.11,.92s-1.11-.41-1.11-.92,.5-.92,1.11-.92,1.11,.41,1.11,.92Z"></path><path fill="#b5453c" d="M781.72,220.23c0,.51-.5,.92-1.11,.92s-1.11-.41-1.11-.92,.5-.92,1.11-.92,1.11,.41,1.11,.92Z"></path><path fill="#b5453c" d="M770.43,218.84c0,.51-.5,.92-1.11,.92s-1.11-.41-1.11-.92,.5-.92,1.11-.92,1.11,.41,1.11,.92Z"></path><path fill="#b5453c" d="M776.12,217.22c0,.84-.82,1.51-1.83,1.51s-1.83-.68-1.83-1.51,.82-1.51,1.83-1.51,1.83,.68,1.83,1.51Z"></path><path fill="#b5453c" d="M774.29,222.14c0,.57-.55,1.02-1.24,1.02s-1.24-.46-1.24-1.02,.55-1.02,1.24-1.02,1.24,.46,1.24,1.02Z"></path><path fill="#b5453c" d="M758.04,216.55c0,.37-.37,.68-.82,.68s-.82-.3-.82-.68,.37-.67,.82-.67,.82,.3,.82,.67Z"></path><path fill="#82b378" d="M767.46,218.97s-1.6,0-2.86,2.46c0,0,2.09,.6,2.86-2.46Z"></path><path fill="#82b378" d="M785.88,221.29s-1.22-2.24-2.91-2.15c0,0,1.41,3.4,2.91,2.15Z"></path><path fill="#82b378" d="M771.35,225.05s-1.25-2.15-2.94-1.94c0,0,1.46,3.3,2.94,1.94Z"></path><path fill="#82b378" d="M780.99,227.23s-1.59-.42-2.98,1.67c0,0,2.04,1.16,2.98-1.67Z"></path><path fill="#82b378" d="M756.51,214.49s-1.38-.66-2.69,.93c0,0,1.76,1.4,2.69-.93Z"></path></g></g></g><g><g><path fill="#ffe4cc" d="M871.5,276.06c-14.9,2.32-28.42,4.22-37.91,10.98-8.73,6.22-14.08,14.6-14.08,23.81,0,10.23,5.81,21.19,17.13,25.8,9.51,3.88,24.49,11.84,34.86,8.98,13-3.59,24.56-3.1,33.62-8.25l-4.2-3.32-29.36-23.2,47.29,2.83,4.43,.26c.13-1.02,.2-2.05,.2-3.09,0-9.86-6.12-18.75-15.97-25.08-9.34-6.01-22.07-11.88-36.02-9.71Z"></path><path fill="#f77548" d="M918.85,313.68l-47.29-2.83,29.36,23.2c-2.91,1.43-6.1,2.64-9.51,3.62-6.04,1.73-13.03,.54-19.85,2.69-11.3,3.56-21.73-4.61-30.09-6.67-9.01-2.23-18.44-13.91-17.42-22.84,1.07-9.28,7.17-20.03,18.11-23.19,8.22-2.37,19.06-7.86,30.16-7.86,9.01,0,16.58,4.84,23.85,5.8,13.73,1.81,22.89,14.55,22.89,25.26,0,.95-.07,1.89-.21,2.83Z"></path><g><path fill="#b5453c" d="M846.6,307.65c0,1.02-1,1.84-2.22,1.84s-2.22-.82-2.22-1.84,1-1.84,2.22-1.84,2.22,.82,2.22,1.84Z"></path><path fill="#b5453c" d="M860.11,298.81c0,1.01-.99,1.84-2.22,1.84s-2.22-.82-2.22-1.84,.99-1.84,2.22-1.84,2.22,.82,2.22,1.84Z"></path><path fill="#b5453c" d="M851.77,293.94c0,.84-.82,1.51-1.83,1.51s-1.83-.68-1.83-1.51,.82-1.51,1.83-1.51,1.83,.68,1.83,1.51Z"></path><path fill="#b5453c" d="M868.33,290.19c0,.93-.91,1.69-2.04,1.69s-2.04-.76-2.04-1.69,.91-1.69,2.04-1.69,2.04,.76,2.04,1.69Z"></path><path fill="#b5453c" d="M868.33,307.65c0,1.47-1.44,2.66-3.22,2.66s-3.22-1.19-3.22-2.66,1.44-2.66,3.22-2.66,3.22,1.19,3.22,2.66Z"></path><path fill="#b5453c" d="M875.32,297.92c0,1.01-.99,1.84-2.22,1.84s-2.22-.82-2.22-1.84,.99-1.84,2.22-1.84,2.22,.82,2.22,1.84Z"></path><path fill="#b5453c" d="M885.61,298.84c0,.51-.5,.92-1.11,.92s-1.11-.41-1.11-.92,.5-.92,1.11-.92,1.11,.41,1.11,.92Z"></path><path fill="#b5453c" d="M880.95,290.95c0,.51-.5,.92-1.11,.92s-1.11-.41-1.11-.92,.5-.92,1.11-.92,1.11,.41,1.11,.92Z"></path><path fill="#b5453c" d="M868.33,320.57c0,.51-.5,.92-1.11,.92s-1.11-.41-1.11-.92,.5-.92,1.11-.92,1.11,.41,1.11,.92Z"></path><path fill="#b5453c" d="M875.94,324.75c0,.51-.5,.92-1.11,.92s-1.11-.41-1.11-.92,.5-.92,1.11-.92,1.11,.41,1.11,.92Z"></path><path fill="#b5453c" d="M859.11,317.55c0,1.15-1.12,2.08-2.51,2.08s-2.51-.93-2.51-2.08,1.12-2.08,2.51-2.08,2.51,.93,2.51,2.08Z"></path><path fill="#82b378" d="M844.7,318.06s-1.65-.9-3.25,.91c0,0,2.08,1.81,3.25-.91Z"></path><path fill="#82b378" d="M857.37,304.94s-2.23-1.22-4.4,1.23c0,0,2.82,2.45,4.4-1.23Z"></path><path fill="#82b378" d="M881.41,297.95s-2.3,.01-4.12,3.55c0,0,3.02,.87,4.12-3.55Z"></path><path fill="#82b378" d="M892.1,300.6s-1.95-2.64-4.36-1.74c0,0,2.34,4.21,4.36,1.74Z"></path><path fill="#82b378" d="M874.98,308.14s-1.09-3.48-3.09-4.58c0,0,1.14,4.98,3.09,4.58Z"></path><path fill="#82b378" d="M871.2,313.09s-1.94-.3-3.57,2.43c0,0,2.52,1.14,3.57-2.43Z"></path><path fill="#82b378" d="M873.03,328.68s-1.59-2.41-3.64-1.87c0,0,1.89,3.77,3.64,1.87Z"></path><path fill="#82b378" d="M875.85,318.23s-1.94-.16-3.53,2.68c0,0,2.53,.96,3.53-2.68Z"></path><path fill="#82b378" d="M866.96,298.96s-1.89-.94-3.7,1.21c0,0,2.4,1.96,3.7-1.21Z"></path><path fill="#82b378" d="M862.11,294.39s-1.45-2.8-3.52-2.8c0,0,1.67,4.22,3.52,2.8Z"></path><path fill="#efcbab" d="M847.71,320.36h0c-2.18,1.2-3.28,3.62-2.44,5.38h0c.64,1.33,2.04,1.05,3.63,.32l.81,1.68c.11,.23,.44,.29,.73,.14l1.55-.85c.29-.16,.43-.48,.32-.71l-.8-1.67c1.46-.92,2.37-1.89,1.71-3.26h0c-.84-1.76-3.32-2.23-5.51-1.03Z"></path><path fill="#efcbab" d="M889.19,289.53h0c1.78,.98,2.67,2.95,1.99,4.39h0c-.52,1.08-1.66,.85-2.96,.26l-.66,1.37c-.09,.19-.36,.24-.59,.11l-1.26-.69c-.23-.13-.35-.39-.26-.58l.65-1.36c-1.19-.75-1.93-1.54-1.4-2.66h0c.69-1.44,2.71-1.82,4.49-.84Z"></path><path fill="#efcbab" d="M863.77,312.87h0c1.78,.98,2.67,2.95,1.99,4.39h0c-.52,1.08-1.66,.85-2.96,.26l-.66,1.37c-.09,.19-.36,.24-.59,.11l-1.26-.69c-.23-.13-.35-.39-.26-.58l.65-1.36c-1.19-.75-1.93-1.54-1.4-2.66h0c.69-1.44,2.71-1.82,4.49-.84Z"></path><path fill="#efcbab" d="M848.71,297.94h0c-1.78,.98-2.67,2.95-1.99,4.39h0c.52,1.08,1.66,.85,2.96,.26l.66,1.37c.09,.19,.36,.24,.59,.11l1.26-.69c.23-.13,.35-.39,.26-.58l-.65-1.36c1.19-.75,1.93-1.54,1.4-2.66h0c-.69-1.44-2.71-1.82-4.49-.84Z"></path></g></g><g><path fill="#ffe4cc" d="M926.23,310.75l-40.82-2.44-5.57-3.36v3.02l31.86,25.18c9.62-5.46,16.07-13.35,17.24-22.25v-3.02l-2.71,2.86Z"></path><path fill="#ff7d5a" d="M928.93,307.89c-1.17,8.9-7.62,16.79-17.24,22.25l-14.44-11.41-3.01-2.37h0l-14.41-11.4,49.1,2.93Z"></path><g><path fill="#b5453c" d="M896.17,310.39c0,1.02-1,1.84-2.22,1.84s-2.22-.82-2.22-1.84,1-1.84,2.22-1.84,2.22,.82,2.22,1.84Z"></path><path fill="#b5453c" d="M898.52,317.07c0,.74-.51,1.36-1.26,1.66l-3.01-2.37c.34-.66,1.13-1.12,2.05-1.12,1.23,0,2.22,.82,2.22,1.83Z"></path><path fill="#b5453c" d="M906.46,317.49c0,.51-.5,.92-1.11,.92s-1.11-.41-1.11-.92,.5-.92,1.11-.92,1.11,.41,1.11,.92Z"></path><path fill="#b5453c" d="M912.42,312.23c0,.51-.5,.92-1.11,.92s-1.11-.41-1.11-.92,.5-.92,1.11-.92,1.11,.41,1.11,.92Z"></path><path fill="#b5453c" d="M901.14,310.85c0,.51-.5,.92-1.11,.92s-1.11-.41-1.11-.92,.5-.92,1.11-.92,1.11,.41,1.11,.92Z"></path><path fill="#b5453c" d="M906.82,309.23c0,.84-.82,1.51-1.83,1.51s-1.83-.68-1.83-1.51,.82-1.51,1.83-1.51,1.83,.68,1.83,1.51Z"></path><path fill="#b5453c" d="M904.99,314.15c0,.57-.55,1.02-1.24,1.02s-1.24-.46-1.24-1.02,.55-1.02,1.24-1.02,1.24,.46,1.24,1.02Z"></path><path fill="#b5453c" d="M888.74,308.55c0,.37-.37,.67-.82,.67s-.82-.3-.82-.67,.37-.67,.82-.67,.82,.3,.82,.67Z"></path><path fill="#82b378" d="M898.17,310.97s-1.6,0-2.86,2.46c0,0,2.09,.6,2.86-2.46Z"></path><path fill="#82b378" d="M916.58,313.29s-1.22-2.24-2.91-2.15c0,0,1.41,3.4,2.91,2.15Z"></path><path fill="#82b378" d="M902.06,317.06s-1.25-2.15-2.94-1.94c0,0,1.46,3.3,2.94,1.94Z"></path><path fill="#82b378" d="M911.69,319.24s-1.59-.42-2.98,1.67c0,0,2.04,1.16,2.98-1.67Z"></path><path fill="#82b378" d="M887.21,306.49s-1.38-.66-2.69,.93c0,0,1.76,1.4,2.69-.93Z"></path></g></g></g><g><g><path fill="#ffe4cc" d="M740.79,372.94c-14.9,2.32-28.42,4.22-37.91,10.98-8.73,6.22-14.08,14.6-14.08,23.81,0,10.23,5.81,21.19,17.13,25.8,9.51,3.88,24.49,11.84,34.86,8.98,13-3.59,24.56-3.1,33.62-8.25l-4.2-3.32-29.36-23.2,47.29,2.83,4.43,.26c.14-1.02,.2-2.05,.2-3.09,0-9.86-6.12-18.75-15.97-25.08-9.34-6.01-22.07-11.88-36.02-9.71Z"></path><path fill="#f77548" d="M788.14,410.55l-47.29-2.83,29.36,23.2c-2.91,1.43-6.1,2.64-9.51,3.62-6.04,1.73-13.03,.54-19.85,2.69-11.3,3.56-21.73-4.61-30.09-6.67-9.01-2.23-18.44-13.91-17.42-22.84,1.07-9.28,7.17-20.03,18.11-23.19,8.22-2.37,19.06-7.86,30.16-7.86,9.01,0,16.58,4.84,23.85,5.8,13.73,1.81,22.89,14.55,22.89,25.26,0,.95-.07,1.89-.21,2.83Z"></path><g><path fill="#b5453c" d="M715.89,404.53c0,1.01-.99,1.84-2.22,1.84s-2.22-.82-2.22-1.84,.99-1.84,2.22-1.84,2.22,.82,2.22,1.84Z"></path><path fill="#b5453c" d="M729.41,395.69c0,1.02-1,1.84-2.22,1.84s-2.22-.82-2.22-1.84,1-1.84,2.22-1.84,2.22,.82,2.22,1.84Z"></path><path fill="#b5453c" d="M721.06,390.82c0,.84-.82,1.52-1.83,1.52s-1.83-.68-1.83-1.52,.82-1.51,1.83-1.51,1.83,.68,1.83,1.51Z"></path><path fill="#b5453c" d="M737.63,387.06c0,.93-.91,1.69-2.04,1.69s-2.04-.76-2.04-1.69,.91-1.69,2.04-1.69,2.04,.76,2.04,1.69Z"></path><path fill="#b5453c" d="M737.63,404.53c0,1.47-1.44,2.66-3.22,2.66s-3.22-1.19-3.22-2.66,1.44-2.66,3.22-2.66,3.22,1.19,3.22,2.66Z"></path><path fill="#b5453c" d="M744.62,394.8c0,1.02-1,1.84-2.22,1.84s-2.22-.82-2.22-1.84,1-1.84,2.22-1.84,2.22,.82,2.22,1.84Z"></path><path fill="#b5453c" d="M754.91,395.72c0,.51-.5,.92-1.11,.92s-1.11-.41-1.11-.92,.5-.92,1.11-.92,1.11,.41,1.11,.92Z"></path><path fill="#b5453c" d="M750.24,387.83c0,.51-.5,.92-1.11,.92s-1.11-.41-1.11-.92,.5-.92,1.11-.92,1.11,.41,1.11,.92Z"></path><path fill="#b5453c" d="M737.63,417.45c0,.51-.5,.92-1.11,.92s-1.11-.41-1.11-.92,.5-.92,1.11-.92,1.11,.41,1.11,.92Z"></path><path fill="#b5453c" d="M745.23,421.63c0,.51-.5,.92-1.11,.92s-1.11-.41-1.11-.92,.5-.92,1.11-.92,1.11,.41,1.11,.92Z"></path><path fill="#b5453c" d="M728.4,414.43c0,1.15-1.12,2.08-2.51,2.08s-2.51-.93-2.51-2.08,1.12-2.08,2.51-2.08,2.51,.93,2.51,2.08Z"></path><path fill="#82b378" d="M714,414.94s-1.65-.9-3.25,.91c0,0,2.08,1.81,3.25-.91Z"></path><path fill="#82b378" d="M726.67,401.82s-2.23-1.22-4.4,1.23c0,0,2.82,2.45,4.4-1.23Z"></path><path fill="#82b378" d="M750.71,394.83s-2.3,.01-4.12,3.55c0,0,3.02,.87,4.12-3.55Z"></path><path fill="#82b378" d="M761.39,397.48s-1.95-2.64-4.36-1.74c0,0,2.34,4.21,4.36,1.74Z"></path><path fill="#82b378" d="M744.28,405.02s-1.09-3.48-3.09-4.58c0,0,1.14,4.98,3.09,4.58Z"></path><path fill="#82b378" d="M740.5,409.97s-1.94-.3-3.57,2.43c0,0,2.52,1.14,3.57-2.43Z"></path><path fill="#82b378" d="M742.32,425.56s-1.59-2.41-3.64-1.87c0,0,1.89,3.77,3.64,1.87Z"></path><path fill="#82b378" d="M745.15,415.11s-1.94-.16-3.53,2.68c0,0,2.53,.96,3.53-2.68Z"></path><path fill="#82b378" d="M736.26,395.83s-1.89-.94-3.7,1.21c0,0,2.4,1.96,3.7-1.21Z"></path><path fill="#82b378" d="M731.4,391.27s-1.45-2.8-3.52-2.8c0,0,1.67,4.22,3.52,2.8Z"></path><path fill="#efcbab" d="M717,417.24h0c-2.18,1.2-3.28,3.62-2.44,5.38h0c.64,1.33,2.04,1.05,3.63,.32l.81,1.68c.11,.23,.44,.29,.73,.14l1.55-.85c.29-.16,.43-.48,.32-.71l-.8-1.67c1.46-.92,2.37-1.89,1.71-3.26h0c-.84-1.76-3.32-2.23-5.51-1.03Z"></path><path fill="#efcbab" d="M758.48,386.41h0c1.78,.98,2.67,2.95,1.99,4.39h0c-.52,1.08-1.66,.85-2.96,.26l-.66,1.37c-.09,.19-.36,.24-.59,.11l-1.26-.69c-.23-.13-.35-.39-.26-.58l.65-1.36c-1.19-.75-1.93-1.54-1.4-2.66h0c.69-1.44,2.71-1.82,4.49-.84Z"></path><path fill="#efcbab" d="M733.07,409.75h0c1.78,.98,2.67,2.95,1.99,4.39h0c-.52,1.08-1.66,.85-2.96,.26l-.66,1.37c-.09,.19-.36,.24-.59,.11l-1.26-.69c-.23-.13-.35-.39-.26-.58l.65-1.36c-1.19-.75-1.93-1.54-1.4-2.66h0c.69-1.44,2.71-1.82,4.49-.84Z"></path><path fill="#efcbab" d="M718.01,394.82h0c-1.78,.98-2.67,2.95-1.99,4.39h0c.52,1.08,1.66,.85,2.96,.26l.66,1.37c.09,.19,.36,.24,.59,.11l1.26-.69c.23-.13,.35-.39,.26-.58l-.65-1.36c1.19-.75,1.93-1.54,1.4-2.66h0c-.69-1.44-2.71-1.82-4.49-.84Z"></path></g></g><g><path fill="#ffe4cc" d="M795.53,407.63l-40.82-2.44-5.57-3.36v3.02l31.86,25.18c9.62-5.46,16.07-13.35,17.24-22.25v-3.02l-2.7,2.86Z"></path><path fill="#ff7d5a" d="M798.23,404.77c-1.17,8.9-7.62,16.79-17.24,22.25l-14.44-11.41-3.01-2.37h0l-14.41-11.4,49.1,2.93Z"></path><g><path fill="#b5453c" d="M765.47,407.27c0,1.02-.99,1.84-2.22,1.84s-2.22-.82-2.22-1.84,.99-1.84,2.22-1.84,2.22,.82,2.22,1.84Z"></path><path fill="#b5453c" d="M767.81,413.95c0,.73-.51,1.36-1.26,1.66l-3.01-2.37c.34-.66,1.13-1.12,2.05-1.12,1.23,0,2.22,.82,2.22,1.83Z"></path><path fill="#b5453c" d="M775.76,414.37c0,.51-.5,.92-1.11,.92s-1.11-.41-1.11-.92,.5-.92,1.11-.92,1.11,.41,1.11,.92Z"></path><path fill="#b5453c" d="M781.72,409.11c0,.51-.5,.92-1.11,.92s-1.11-.41-1.11-.92,.5-.92,1.11-.92,1.11,.41,1.11,.92Z"></path><path fill="#b5453c" d="M770.43,407.73c0,.51-.5,.92-1.11,.92s-1.11-.41-1.11-.92,.5-.92,1.11-.92,1.11,.41,1.11,.92Z"></path><path fill="#b5453c" d="M776.12,406.11c0,.84-.82,1.51-1.83,1.51s-1.83-.68-1.83-1.51,.82-1.51,1.83-1.51,1.83,.68,1.83,1.51Z"></path><path fill="#b5453c" d="M774.29,411.02c0,.57-.55,1.02-1.24,1.02s-1.24-.46-1.24-1.02,.55-1.02,1.24-1.02,1.24,.46,1.24,1.02Z"></path><path fill="#b5453c" d="M758.04,405.43c0,.37-.37,.67-.82,.67s-.82-.3-.82-.67,.37-.68,.82-.68,.82,.3,.82,.68Z"></path><path fill="#82b378" d="M767.46,407.85s-1.6,0-2.86,2.46c0,0,2.09,.6,2.86-2.46Z"></path><path fill="#82b378" d="M785.88,410.17s-1.22-2.24-2.91-2.15c0,0,1.41,3.4,2.91,2.15Z"></path><path fill="#82b378" d="M771.35,413.93s-1.25-2.15-2.94-1.94c0,0,1.46,3.3,2.94,1.94Z"></path><path fill="#82b378" d="M780.99,416.11s-1.59-.42-2.98,1.67c0,0,2.04,1.16,2.98-1.67Z"></path><path fill="#82b378" d="M756.51,403.37s-1.38-.66-2.69,.93c0,0,1.76,1.4,2.69-.93Z"></path></g></g></g><path fill="#ffe4cc" d="M959.96,628.97s-6.48,3.36-8.28,7.57c-1.8,4.21-9.09,2.75-12.34,5.43-3.25,2.68-6.59,10.71-15.47,10.61v1.76l3.58,1.5s24.16-7.28,27.47-10.12c3.31-2.84,11.2-10.2,11.2-10.2l1.11-6.32-7.27-.22Z"></path><path fill="#fcecdb" d="M819.92,805.28h-70.35c-1.58,0-2.87-1.4-2.87-3.11h0c0-1.71,1.29-3.11,2.87-3.11h70.35c1.58,0,2.87,1.4,2.87,3.11h0c0,1.71-1.29,3.11-2.87,3.11Z"></path><path fill="#fcecdb" d="M819.92,790.73h-70.35c-1.58,0-2.87-1.4-2.87-3.11h0c0-1.71,1.29-3.11,2.87-3.11h70.35c1.58,0,2.87,1.4,2.87,3.11h0c0,1.71-1.29,3.11-2.87,3.11Z"></path><g><path fill="#efcbab" d="M781.01,298.08h-81.68c-1.73,0-3.14-1.53-3.14-3.39h0c0-1.87,1.41-3.39,3.14-3.39h81.68c1.73,0,3.14,1.53,3.14,3.39h0c0,1.87-1.41,3.39-3.14,3.39Z"></path><path fill="#efcbab" d="M781.01,311.95h-81.68c-1.73,0-3.14-1.53-3.14-3.39h0c0-1.87,1.41-3.39,3.14-3.39h81.68c1.73,0,3.14,1.53,3.14,3.39h0c0,1.87-1.41,3.39-3.14,3.39Z"></path><path fill="#efcbab" d="M781.01,325.81h-81.68c-1.73,0-3.14-1.53-3.14-3.39h0c0-1.87,1.41-3.39,3.14-3.39h81.68c1.73,0,3.14,1.53,3.14,3.39h0c0,1.87-1.41,3.39-3.14,3.39Z"></path></g><g><path fill="#efcbab" d="M920.67,199.09h-81.68c-1.73,0-3.14-1.53-3.14-3.39h0c0-1.87,1.41-3.39,3.14-3.39h81.68c1.73,0,3.14,1.53,3.14,3.39h0c0,1.87-1.41,3.39-3.14,3.39Z"></path><path fill="#efcbab" d="M920.67,212.96h-81.68c-1.73,0-3.14-1.53-3.14-3.39h0c0-1.87,1.41-3.39,3.14-3.39h81.68c1.73,0,3.14,1.53,3.14,3.39h0c0,1.87-1.41,3.39-3.14,3.39Z"></path><path fill="#efcbab" d="M920.67,226.83h-81.68c-1.73,0-3.14-1.53-3.14-3.39h0c0-1.87,1.41-3.39,3.14-3.39h81.68c1.73,0,3.14,1.53,3.14,3.39h0c0,1.87-1.41,3.39-3.14,3.39Z"></path></g><g><path fill="#efcbab" d="M920.67,395.89h-81.68c-1.73,0-3.14-1.53-3.14-3.39h0c0-1.87,1.41-3.39,3.14-3.39h81.68c1.73,0,3.14,1.53,3.14,3.39h0c0,1.87-1.41,3.39-3.14,3.39Z"></path><path fill="#efcbab" d="M920.67,409.76h-81.68c-1.73,0-3.14-1.53-3.14-3.39h0c0-1.87,1.41-3.39,3.14-3.39h81.68c1.73,0,3.14,1.53,3.14,3.39h0c0,1.87-1.41,3.39-3.14,3.39Z"></path><path fill="#efcbab" d="M920.67,423.63h-81.68c-1.73,0-3.14-1.53-3.14-3.39h0c0-1.87,1.41-3.39,3.14-3.39h81.68c1.73,0,3.14,1.53,3.14,3.39h0c0,1.87-1.41,3.39-3.14,3.39Z"></path></g><path fill="#f99746" d="M1144.07,406.36h-78.22c-12.87,0-23.4-11.39-23.4-25.31h0c0-13.92,10.53-25.31,23.4-25.31h78.22c12.87,0,23.4,11.39,23.4,25.31h0c0,13.92-10.53,25.31-23.4,25.31Z"></path><path fill="#fff" d="M1090,373.77s14.85,22.48,14.81,21.64c-.05-.84,15.1-31.94,15.1-31.94l-17.49,18.33-12.42-8.04Z"></path><polygon fill="#fffbf8" points="858.05 683.3 807.85 696.44 792.21 689.2 840.89 677.04 858.05 683.3"></polygon><rect fill="#2e3552" ry="2.92" rx="2.92" height="5.85" width="1758" y="1022.15"></rect></g></g></g></svg>