<svg viewBox="0 0 1808 1028" xmlns="http://www.w3.org/2000/svg"><g id="a"></g><g id="b"><g id="c"><g><path fill="#e8f2fa" d="M66.25,1022.62c.39-8.03-154.2-267.46,7.56-519.95,161.76-252.49,350.92-116.43,389.73-294.09C512.06-13.52,731.62-34.06,872.51,35.34c140.9,69.4,404.8-61,620.9,49.65,216.1,110.65,55.46,430.73,137.19,476.74,81.73,46.01,231.09,191.56,124,458.17l-1688.35,2.73Z"></path><g><path opacity=".3" fill="#a8ccff" d="M779.76,514.18s-15.21-113-77.42-179.17c-62.21-66.16-122.24-81.2-123.97-55.43-1.74,25.77,96.67,64.06,136.53,121.05,39.86,56.99,64.87,113.54,64.87,113.54Z"></path><path opacity=".3" fill="#a8ccff" d="M766.96,545.56s-17.71-81.09-66.81-124.94c-49.1-43.85-93.62-50.7-93.36-31.85,.25,18.85,74.02,39.98,106.35,78.69,32.33,38.7,53.82,78.11,53.82,78.11Z"></path></g><path opacity=".4" fill="#c8dffd" d="M285.75,454.62c8.9-68.6,115.43-62.03,115.43-62.03,0,0,84.34,106.45,105.23,106.42,20.89-.03-55.58-106.15-55.58-106.15,39.35-9.56,147.05,29.13,147.05,29.13,0,0,9.51,136.29,29.75,130.73,20.24-5.56-14.15-120.21-14.15-120.21,40.02,7.19,81.69,50.66,81.69,50.66,54.25,72.64-35.31,143.79-35.31,143.79,0,0,4.24,47.15,37.57,97.37h0s7.26,9.12,15.44,25.19l-10.51,1.43c-1.22-2.91-2.51-5.71-3.88-8.38,0-.02-.01-.03-.03-.05-.02-.04-.04-.08-.06-.12-.93-1.65-2.25-3.99-3.9-6.84h0s0-.02,0-.02c-4.01-6.32-6.76-11.02-8.56-14.44,0-.01-.01-.02-.01-.03-12.12-19.91-29.23-45.67-39.16-50.21,0,0,.96-1.92,1.64-5.49-.52,1.75-1.07,3.58-1.64,5.49-13.11,43.9-102.26,63.05-153.68,58.81-51.42-4.24-31.36-22.41-7.28-50.75,24.08-28.34,81.39-29.53,96.96-41.47,15.57-11.95-9.99-18.3-43.07-10.99-33.09,7.31-45.57,45.51-98.89,58.38-53.32,12.87-107.29-90.69-107.29-90.69,38.73,7.37,102.95-23.83,103.9-38,.94-14.17-97.85,.68-113.76-1.37-15.91-2.05-46.8-31.54-37.9-100.13Z"></path><path opacity=".3" fill="#a8ccff" d="M700.95,992.45s-.47,13.57,3.66,33.95l-165.35,.2c3.95-3.75,8.69-7.82,13.64-12.27,22.66-20.37,69.77-14.52,83.76-22.46,13.99-7.94-6.3-16.19-34.18-14.13-27.87,2.05-42.04,31.88-87.08,36.08-45.04,4.2-78.62-87.13-78.62-87.13,31,10.65,86.86-7.29,89.09-18.78,2.23-11.51-80.28-11.1-93.12-14.67-12.83-3.57-35.12-31.43-20.76-86.6,14.36-55.18,101.02-37.11,101.02-37.11,0,0,58.19,97.31,75.31,99.77,17.12,2.46-34.64-93.64-34.64-93.64,33.25-3.16,117.56,41.39,117.56,41.39,0,0-6.24,112.86,10.92,110.72,17.16-2.15,.78-100.23,.78-100.23,32.06,10.66,61.76,51.25,61.76,51.25,36.99,66.01-43.76,113.67-43.76,113.67Z"></path><path opacity=".4" fill="#c8dffd" d="M1331.92,842.37c-15.25,6.22-116.3,17.63-112.14,31.39,4.17,13.76,74.78,27.64,111.39,10.14,0,0-29.71,116.62-85.35,117.98-55.66,1.35-76.71-33.12-111.09-31.6-34.38,1.5-58.2,14.53-40.08,22.23,18.12,7.7,75.05-6.26,105.33,15.4,4.44,3.18,8.76,6.17,12.71,9,2.38,1.71,4.64,3.36,6.73,4.97h-202.44c0-1.76,0-3.43-.04-4.97-.18-9.16-.9-14.41-.9-14.41,0,0-104.77-46.69-67.74-132.82,0,0,31.27-53.97,69.19-71.64,0,0-7.81,122.41,13.47,122.57,21.28,.16-.45-137.08-.45-137.08,0,0,97.63-66.68,138.72-67.62,0,0-51.36,125.09-30.7,119.61,20.65-5.48,79.72-132.98,79.72-132.98,0,0,103.81-34.61,128.28,30.85,24.47,65.47,.66,102.77-14.6,108.99Z"></path><path opacity=".3" fill="#a8ccff" d="M1253.59,210.96c-13.04-51.89-94.48-35.74-94.48-35.74,0,0-55.35,90.76-71.43,92.92-16.09,2.15,33.23-87.54,33.23-87.54-31.16-3.26-110.61,37.76-110.61,37.76,0,0,4.97,105.94-11.12,103.76-16.08-2.17,.05-94.04,.05-94.04-30.17,9.71-58.34,47.52-58.34,47.52-35.22,61.59,40.15,107.04,40.15,107.04,0,0,.98,36.75-20.15,78.9h0s-4.77,7.78-9.62,21.01h8.22c.67-2.36,1.41-4.66,2.24-6.86,0-.02,0-.03,.02-.04,.01-.03,.02-.06,.04-.1,.56-1.37,1.37-3.31,2.38-5.68h0s0-.01,0-.02c2.51-5.29,4.21-9.19,5.29-12.01,0,0,0-.02,0-.03,7.54-16.59,18.39-38.21,25.63-42.74,0,0-.91-1.38-1.76-4.06,.56,1.29,1.15,2.64,1.76,4.06,14.06,32.44,84.43,37.89,123.64,29.27,39.21-8.62,22.13-20.52,1.03-39.84-21.1-19.31-65.34-14.25-78.41-21.83-13.07-7.58,6.04-15.13,32.18-12.95,26.14,2.18,39.19,30.29,81.41,34.65,42.22,4.35,74.44-81.02,74.44-81.02-29.16,9.71-81.43-7.62-83.43-18.43-2-10.81,75.41-9.68,87.47-12.91,12.07-3.23,33.19-29.16,20.15-81.06Z"></path><g><path fill="#73b471" d="M189.85,1021.53s-41.06-42.52-24.69-59.85c16.38-17.34,24.69,59.85,24.69,59.85,0,0,2.52-2.58,0,0Z"></path><path fill="#73b471" d="M199.82,965.43c20.03-.89-9.94,56.11-9.94,56.11,0,0-10.09-55.22,9.94-56.11Z"></path></g><g><path fill="#9bd399" d="M1353.91,616.87s8.3-40.52,23.4-36.49c15.1,4.03-23.4,36.49-23.4,36.49,0,0,2.28,.65,0,0Z"></path><path fill="#9bd399" d="M1387.55,603.21c7.57,12.12-33.64,13.68-33.64,13.68,0,0,26.07-25.79,33.64-13.68Z"></path></g><g><path fill="#9bd399" d="M772.41,342.13s-50.34-28.76-39.02-50.27c11.32-21.51,39.02,50.27,39.02,50.27,0,0,1.76-3.23,0,0Z"></path><path fill="#9bd399" d="M767.67,285.25c19.04-6.77,4.77,56.89,4.77,56.89,0,0-23.8-50.12-4.77-56.89Z"></path></g><g><path fill="#9bd399" d="M268.97,586.15s-24.4,47.59-41.97,36.51c-17.58-11.08,41.97-36.51,41.97-36.51,0,0-2.64-1.72,0,0Z"></path><path fill="#9bd399" d="M222,589.89c-5.33-18.24,46.97-3.77,46.97-3.77,0,0-41.65,22.01-46.97,3.77Z"></path></g><g><g><path fill="#ff912b" d="M1323.47,298.34c-3.22,2.86-16.81,6.04-17.57,5.05s4.7-14.74,7.93-17.6c3.22-2.86,7.99-2.37,10.66,1.09,2.66,3.47,2.21,8.6-1.01,11.46Z"></path><path fill="#ff912b" d="M1305.57,283.39c1.94,3.98,2.04,18.93,.98,19.53-1.06,.6-12.44-7.98-14.39-11.96-1.94-3.98-.52-8.9,3.18-10.99,3.7-2.09,8.28-.56,10.22,3.42Z"></path><path fill="#ff912b" d="M1288.57,296.37c4.16-.49,17.13,4.88,17.26,6.16,.13,1.28-11.46,9.53-15.61,10.02-4.16,.49-7.89-2.74-8.35-7.21-.45-4.47,2.55-8.49,6.7-8.98Z"></path><path fill="#ff912b" d="M1294.8,317.23c1.05-4.35,10.32-15.49,11.48-15.17,1.15,.32,4.23,14.9,3.18,19.25-1.05,4.35-5.18,6.97-9.23,5.84-4.05-1.13-6.48-5.57-5.43-9.92Z"></path><path fill="#ff912b" d="M1315.31,319.75c-3.35-2.69-9.44-16.12-8.73-17.15,.71-1.03,14.43,1.41,17.78,4.1,3.35,2.69,4.04,7.79,1.54,11.39-2.5,3.6-7.24,4.35-10.59,1.66Z"></path></g><path fill="#fddbba" d="M1309.07,302.59c0-1.48-1.12-2.68-2.5-2.68-1.38,0-2.49,1.2-2.49,2.68,0,1.48,1.12,2.68,2.5,2.68,1.38,0,2.49-1.2,2.49-2.68Z"></path></g><path fill="#fddbba" d="M1129.46,731.32c0-159.42-120.19-288.65-268.46-288.65s-268.46,129.23-268.46,288.65c0,65.91,66.26,226.12,86.96,274.55,3.67,8.6,11.66,14.1,20.46,14.1h324.33c8.76,0,16.73-5.46,20.42-14.01,20.41-47.29,84.76-202.1,84.76-274.64Z"></path><path fill="#ff912b" d="M1104.29,731.32c0,65.27-49.55,183.71-73.03,232.38-8.29,17.19-54.23,11.55-62.11,11.55l-220.75-2.8c-7.91,0-45.67,13.65-48.98,5.91-18.62-43.58-78.24-187.73-78.24-247.04,0-47.62,11.92-92.25,32.73-130.63,0,0,77.8-11.6,161.58,0,83.78,11.6,198.13-19.32,260.73,9.02h0c17.92,36.29,28.06,77.68,28.06,121.62Z"></path><path fill="#ff7121" d="M946.92,397.5v52.38c0,4.48-3.38,8.12-7.55,8.12h-156.16c-4.17,0-7.55-3.64-7.55-8.12v-52.38c0-4.48,3.38-8.12,7.55-8.12h156.16c4.17,0,7.55,3.64,7.55,8.12Z"></path><path fill="#ff912b" d="M946.92,397.5v52.38c0,4.48-3.38,8.12-7.55,8.12h-140.19c-4.16,0-7.55-3.64-7.55-8.12v-52.38c0-4.48,3.38-8.12,7.55-8.12h140.19c4.17,0,7.55,3.64,7.55,8.12Z"></path><path fill="#ff7121" d="M881.49,238.57c0,9.53-5.71,17.62-13.65,20.54-.04,.02-.08,.03-.11,.04-2.01,.74-4.18,1.14-6.43,1.14-11.15,0-20.2-9.72-20.2-21.71,0-8.61,4.66-16.05,11.42-19.56,2.66-1.39,5.64-2.16,8.78-2.16,2.39,0,4.68,.45,6.81,1.27,7.81,3.01,13.39,11.02,13.39,20.45Z"></path><path fill="#ff912b" d="M881.49,238.57c0,9.53-5.71,17.62-13.65,20.54-.04,.02-.08,.03-.11,.04-10.46-3.42-18.11-14.22-18.11-27.01,0-4.74,1.05-9.2,2.9-13.12,2.66-1.39,5.64-2.16,8.78-2.16,2.39,0,4.68,.45,6.81,1.27,7.81,3.01,13.39,11.02,13.39,20.45Z"></path><path fill="#ff7121" d="M899.77,389.38h-76.97c-4.26,0-7.69-3.97-7.27-8.64,.18-2.03,1.11-3.8,2.47-5.06,1.35-1.26,3.14-2.02,5.04-2.02,11.01,0,19.94-9.6,19.94-21.44v-24.01h36.64v24.01c0,11.84,8.93,21.44,19.94,21.44,3.61,0,6.84,2.7,7.43,6.52,.77,4.9-2.78,9.2-7.21,9.2Z"></path><path fill="#ff912b" d="M899.77,389.38h-61.83c7.46-6.73,12.29-17.51,12.29-29.66v-31.51h29.37v24.01c0,11.84,8.93,21.44,19.94,21.44,3.61,0,6.84,2.7,7.43,6.52,.77,4.9-2.78,9.2-7.21,9.2Z"></path><path fill="#97b7f8" d="M1126.05,395.57l-122.41-77.93c-10.55-6.72-22.61-10.27-34.88-10.27h-107.47v-14.39h107.47c14.66,0,29.08,4.25,41.7,12.28l122.41,77.93-6.82,12.39Z"></path><path fill="#ff7121" d="M1082.97,379.09h0c-2.84-1.97-3.67-6.09-1.83-9.14l9.66-16.09c1.83-3.06,5.66-3.94,8.5-1.97h0c2.84,1.97,3.67,6.09,1.83,9.14l-9.66,16.09c-1.83,3.06-5.66,3.94-8.5,1.97Z"></path><path fill="#ff7121" d="M900.04,300.18c0,20.18-13.34,37.01-31.05,40.84-2.49,.55-5.07,.83-7.7,.83-21.4,0-38.75-18.65-38.75-41.66s17.35-41.66,38.75-41.66c2.64,0,5.21,.28,7.7,.83,17.71,3.83,31.05,20.66,31.05,40.84Z"></path><path fill="#ff912b" d="M900.04,300.18c0,20.18-13.34,37.01-31.05,40.84-17.71-3.83-31.05-20.66-31.05-40.84s13.34-37.01,31.05-40.84c17.71,3.83,31.05,20.66,31.05,40.84Z"></path><path fill="#ff7121" d="M850.24,351.57s-.05-9.6,14.04-9.72l-16.79-4.92,2.75,14.65Z"></path><path fill="#ff7121" d="M1345.29,558.93c-38.76,59.48-115.04,73.91-170.36,32.23-11.98-9.02-21.99-19.95-29.94-32.11l-.14-.21c-.17-.27-.33-.54-.5-.8l-47.69-75.95h0c-19.07-24.36-25.27-57.65-16.59-87.88,2.61-9.09,6.57-17.91,11.92-26.12,22.76-34.94,63.7-48.01,99.44-34.86v-.02l77.15,21.19c4.71,.98,9.39,2.24,14.02,3.85l.07,.02c11.35,3.95,22.36,9.74,32.64,17.49,30.87,23.26,48.7,59.1,51.68,96.56,2.37,29.66-4.57,60.34-21.71,86.63Z"></path><path fill="#ff912b" d="M1366.99,472.31c-.9,1.97-1.85,3.88-2.82,5.77v.02c-2.49,4.76-5.21,9.31-8.15,13.62-.69,1.02-1.39,2.02-2.11,3.01-4.92,6.8-10.41,12.99-16.36,18.52-.7,.65-1.4,1.3-2.11,1.92-5.15,4.58-10.62,8.67-16.35,12.26-.7,.45-1.4,.88-2.11,1.3-2.12,1.28-4.27,2.48-6.45,3.61-1.94,1.01-3.92,1.96-5.9,2.86-1.41,.63-2.82,1.23-4.25,1.8-.7,.29-1.4,.57-2.11,.83-5.33,2.04-10.8,3.67-16.36,4.9-.7,.16-1.41,.3-2.11,.44-2.73,.55-5.49,1.01-8.26,1.36h0c-1.16,.14-2.3,.27-3.47,.38-1.54,.15-3.07,.26-4.61,.34-.7,.05-1.41,.08-2.11,.09-5.42,.2-10.89,0-16.35-.61-.3-.03-.58-.06-.88-.1-.41-.05-.82-.1-1.23-.15-.5-.06-1.01-.13-1.51-.2-5.75-.83-11.5-2.1-17.21-3.84-.7-.22-1.41-.44-2.11-.67-.02,0-.04,0-.06-.02-.77-.24-1.54-.51-2.31-.77h0c-2.85-1-5.67-2.12-8.49-3.36-1.85-.82-3.69-1.67-5.48-2.58-.71-.35-1.42-.71-2.11-1.08-.18-.09-.37-.2-.56-.3-.68-.36-1.34-.72-2-1.09-4.83-2.69-9.43-5.7-13.8-8.98-.23-.17-.46-.34-.68-.52-.48-.36-.96-.73-1.43-1.11-.11-.08-.21-.17-.32-.25-3.29-2.61-6.43-5.37-9.43-8.29v.02l-.18-.18c-.23-.22-.44-.45-.66-.66l-4.02-4.05-1.55-1.56-.21-.22-2.11-2.13-9.62-9.71-1.54-1.56-8.31-8.38-2.11-2.14-1.53-1.55-1.54-1.55-11.94-12.05-1.34-1.35-.21-.22-1.9-1.92-12.33-12.44-1.54-1.55-.33-.34h0c-.73-.6-1.44-1.2-2.16-1.83-.71-.61-1.42-1.25-2.11-1.9-2.66-2.45-5.16-5.08-7.5-7.84-.48-.56-.94-1.13-1.4-1.7-2.73-3.38-5.22-6.95-7.45-10.69-.73-1.22-1.44-2.46-2.11-3.72,0-.02-.01-.02-.02-.04-.36-.67-.72-1.36-1.06-2.04-2.8-5.5-5.07-11.29-6.79-17.28-.24-.81-.46-1.62-.67-2.43-.37-1.39-.7-2.78-1-4.19,2.21-7.69,5.38-15.18,9.55-22.28,.68-1.16,1.38-2.3,2.11-3.43,.08-.14,.17-.27,.26-.41,4.67-7.17,10.1-13.41,16.1-18.7,.7-.62,1.4-1.22,2.11-1.81,5.11-4.23,10.6-7.79,16.35-10.65,.7-.36,1.4-.69,2.11-1.02,5.28-2.45,10.76-4.33,16.35-5.61,.7-.17,1.41-.32,2.11-.46,.71-.14,1.43-.28,2.14-.41h0c1.2-.21,2.4-.39,3.61-.55,4.54-.59,9.12-.8,13.71-.61,.7,.02,1.41,.06,2.11,.11,2.56,.17,5.11,.46,7.67,.88h0c.87,.14,1.75,.3,2.62,.47,2.03,.4,4.05,.88,6.07,1.45,.7,.19,1.41,.39,2.11,.61,1.42,.43,2.83,.91,4.23,1.42v-.02l6.32,1.73,2.43,.67,3.37,.92,2.11,.58,13.29,3.65,2.42,.66h0l.63,.18,2.11,.58,18.71,5.14,.89,.24,1.22,.33,1.21,.33,15.14,4.16,2.11,.58,1.51,.42,2.42,.67,1.22,.33c3.76,.79,7.49,1.74,11.2,2.92,.7,.22,1.41,.45,2.11,.7,.24,.07,.47,.15,.71,.23l.07,.02c1.08,.38,2.15,.77,3.23,1.19h0c.75,.27,1.49,.57,2.23,.87,3.41,1.38,6.79,2.93,10.12,4.67,.71,.36,1.42,.73,2.11,1.12,1.27,.69,2.53,1.41,3.78,2.15,.64,.38,1.29,.77,1.92,1.17,3.13,1.93,6.22,4.04,9.24,6.32,.56,.42,1.11,.84,1.66,1.27,.71,.55,1.42,1.11,2.11,1.69,.95,.76,1.88,1.55,2.8,2.35,.56,.48,1.11,.96,1.66,1.45,4.25,3.8,8.2,7.87,11.85,12.15,.01,.02,.04,.04,.05,.06,.46,.54,.92,1.09,1.36,1.64,.26,.3,.51,.61,.75,.92,3.38,4.17,6.48,8.55,9.29,13.08,.4,.64,.79,1.28,1.17,1.92,2.14,3.58,4.11,7.26,5.9,11.01,.73,1.54,1.44,3.09,2.11,4.66,.04,.08,.08,.17,.11,.25,.31,.73,.62,1.46,.92,2.2,2.44,5.97,4.47,12.12,6.06,18.39,.21,.83,.42,1.67,.61,2.51,1.61,6.84,2.7,13.82,3.26,20.85,0,.05,0,.11,.01,.17Z"></path><g><g><g><path fill="#ff7121" d="M1168.72,328.39v176.36l-2.11-2.13v-174.34c.7,.02,1.41,.06,2.11,.11Z"></path><path fill="#ff7121" d="M1187.2,331.8v189.77c-.23-.17-.46-.34-.68-.52-.48-.36-.96-.73-1.43-1.11v-188.76c.7,.19,1.41,.39,2.11,.61Z"></path><path fill="#ff7121" d="M1205.66,337.11v195.91c-.71-.35-1.42-.71-2.11-1.08v-195.41l2.11,.58Z"></path><path fill="#ff7121" d="M1222.02,341.6l2.11,.58v198.25c-.7-.22-1.41-.44-2.11-.67v-198.15Z"></path></g><g><path fill="#ff7121" d="M1244.96,347.9v196.83c-.3-.03-.58-.06-.88-.1-.41-.05-.82-.1-1.23-.15v-197.15l.89,.24,1.22,.33Z"></path><path fill="#ff7121" d="M1263.42,352.97v192.27c-.7,.05-1.41,.08-2.11,.09v-192.95l2.11,.58Z"></path><path fill="#ff7121" d="M1281.89,358v184.73c-.7,.16-1.41,.3-2.11,.44v-185.86c.7,.22,1.41,.45,2.11,.7Z"></path><path fill="#ff7121" d="M1300.36,366.11v170.89c-.7,.29-1.4,.57-2.11,.83v-172.84c.71,.36,1.42,.73,2.11,1.12Z"></path></g><g><path fill="#ff7121" d="M1319.08,378.71v148.72c-.7,.45-1.4,.88-2.11,1.3v-151.71c.71,.55,1.42,1.11,2.11,1.69Z"></path><path fill="#ff7121" d="M1337.55,395.6v117.65c-.7,.65-1.4,1.3-2.11,1.92v-120.45c.46,.54,.92,1.09,1.36,1.64l.75-.77Z"></path><path fill="#ff7121" d="M1353.91,423.3c.73,1.54,1.44,3.09,2.11,4.66v63.77c-.69,1.02-1.39,2.02-2.11,3.01v-71.44Z"></path></g><g><path fill="#ff7121" d="M1091.73,368.5v55.41c-.73-1.22-1.44-2.46-2.11-3.72v-48.26c.68-1.16,1.38-2.3,2.11-3.43Z"></path><path fill="#ff7121" d="M1110.2,347.58v98.46c-.71-.61-1.42-1.25-2.11-1.9v-94.75c.7-.62,1.4-1.22,2.11-1.81Z"></path><path fill="#ff7121" d="M1128.67,335.91v128.43l-.21-.22-1.9-1.92v-125.27c.7-.36,1.4-.69,2.11-1.02Z"></path><path fill="#ff7121" d="M1147.14,329.84v153.13l-2.11-2.14v-150.53c.7-.17,1.41-.32,2.11-.46Z"></path></g></g><g><g><polygon fill="#ff7121" points="1246.17 348.23 1244.96 349.46 1242.84 351.59 1224.13 370.51 1222.02 372.65 1205.66 389.18 1203.55 391.32 1187.2 407.85 1185.08 409.99 1168.72 426.53 1166.61 428.67 1147.14 448.36 1145.02 450.49 1130.01 465.68 1128.67 464.33 1128.46 464.11 1128.67 463.9 1145.02 447.37 1147.14 445.23 1166.61 425.55 1168.72 423.41 1185.08 406.86 1187.2 404.73 1203.55 388.2 1205.66 386.06 1222.02 369.53 1224.13 367.39 1242.84 348.47 1243.74 347.56 1244.96 347.9 1246.17 348.23"></polygon><polygon fill="#ff7121" points="1264.94 353.39 1267.36 354.06 1263.42 358.04 1261.31 360.18 1244.96 376.71 1242.84 378.84 1224.13 397.77 1222.02 399.9 1205.66 416.43 1203.55 418.57 1187.2 435.11 1185.08 437.24 1168.72 453.78 1166.61 455.92 1147.14 475.6 1145.02 477.74 1143.49 479.29 1141.95 477.73 1145.02 474.63 1147.14 472.49 1166.61 452.8 1168.72 450.67 1185.08 434.13 1187.2 431.99 1203.55 415.46 1205.66 413.32 1222.02 396.78 1224.13 394.65 1242.84 375.73 1244.96 373.59 1261.31 357.06 1263.42 354.92 1264.94 353.39"></polygon><path fill="#ff7121" d="M1288.13,360.32l-6.24,6.31-2.11,2.14-16.35,16.53-2.11,2.14-16.35,16.54-2.11,2.14-18.71,18.92-2.11,2.14-16.35,16.53-2.11,2.14-16.35,16.53-2.11,2.14-16.36,16.54-2.11,2.14-9.62,9.73-1.54-1.56,11.17-11.29,2.11-2.14,16.36-16.54,2.11-2.14,16.35-16.54,2.11-2.14,16.35-16.53,2.11-2.14,18.71-18.92,2.11-2.14,16.35-16.53,2.11-2.14,16.35-16.54,2.11-2.14,4.01-4.05h0c.75,.27,1.49,.57,2.23,.87Z"></path><path fill="#ff7121" d="M1304.15,368.26c.64,.38,1.29,.77,1.92,1.17l-5.71,5.76-2.11,2.14-16.36,16.54-2.11,2.14-16.35,16.54-2.11,2.14-16.35,16.54-2.11,2.14-18.71,18.92-2.11,2.14-16.35,16.54-2.11,2.14-16.35,16.54-2.11,2.14-14.6,14.76-1.55-1.56,16.15-16.33,2.11-2.14,16.35-16.54,2.11-2.14,16.35-16.53,2.11-2.14,18.71-18.92,2.11-2.14,16.35-16.53,2.11-2.14,16.35-16.53,2.11-2.14,16.36-16.54,2.11-2.14,3.78-3.83Z"></path></g><g><path fill="#ff7121" d="M1323.54,382.52l-4.45,4.5-2.11,2.14-16.61,16.79-2.11,2.14-16.36,16.54-2.11,2.14-16.35,16.53-2.11,2.14-16.35,16.54-2.11,2.14-18.71,18.92-2.11,2.14-16.35,16.54-2.11,2.14-16.35,16.53-.68,.7c-.48-.36-.96-.73-1.43-1.11-.11-.08-.21-.17-.32-.25l.32-.32,2.11-2.14,16.35-16.53,2.11-2.14,16.35-16.54,2.11-2.14,18.71-18.92,2.11-2.14,16.35-16.54,2.11-2.14,16.35-16.54,2.11-2.14,16.36-16.54,2.11-2.14,16.61-16.79,2.11-2.14,2.8-2.83c.56,.48,1.11,.96,1.66,1.45Z"></path><path fill="#ff7121" d="M1336.8,396.37l-1.36,1.37-16.35,16.54-2.11,2.14-16.61,16.79-2.11,2.14-16.36,16.54-2.11,2.14-16.35,16.53-2.11,2.14-16.35,16.54-2.11,2.14-18.71,18.92-2.11,2.14-16.35,16.54-2.11,2.14-.56,.56c-.68-.36-1.34-.72-2-1.09l2.56-2.58,2.11-2.14,16.35-16.54,2.11-2.14,18.71-18.92,2.11-2.14,16.35-16.53,2.11-2.14,16.35-16.54,2.11-2.14,16.36-16.54,2.11-2.14,16.61-16.79,2.11-2.14,16.3-16.48,.05-.05v.11c.46,.54,.92,1.09,1.36,1.64Z"></path><path fill="#ff7121" d="M1346.84,410.36c.4,.64,.79,1.28,1.17,1.92l-10.46,10.58-2.11,2.14-16.35,16.54-2.11,2.14-16.61,16.79-2.11,2.14-16.36,16.54-2.11,2.14-16.35,16.53-2.11,2.14-16.35,16.53-2.11,2.14-18.71,18.92-2.11,2.14-.06,.06c-.77-.24-1.54-.51-2.31-.77l2.37-2.41,2.11-2.14,18.71-18.92,2.11-2.14,16.35-16.54,2.11-2.14,16.35-16.53,2.11-2.14,16.36-16.54,2.11-2.14,16.61-16.79,2.11-2.14,16.35-16.54,2.11-2.14,9.29-9.39Z"></path><path fill="#ff7121" d="M1357.05,430.4l-1.03,1.04-2.11,2.14-16.36,16.54-2.11,2.14-16.35,16.53-2.11,2.14-16.61,16.79-2.11,2.14-16.36,16.54-2.11,2.14-16.35,16.54-2.11,2.14-16.35,16.53-.88,.89c-.41-.05-.82-.1-1.23-.15-.5-.06-1.01-.13-1.51-.2l1.51-1.52,2.11-2.14,16.35-16.53,2.11-2.14,16.35-16.54,2.11-2.14,16.36-16.54,2.11-2.14,16.61-16.79,2.11-2.14,16.35-16.54,2.11-2.14,16.36-16.54,2.11-2.14,.11-.11c.31,.73,.62,1.46,.92,2.2Z"></path></g><g><path fill="#ff7121" d="M1363.72,451.3l-7.69,7.78-2.11,2.14-16.36,16.54-2.11,2.14-16.35,16.53-2.11,2.14-16.61,16.79-2.11,2.14-16.36,16.54-2.11,2.14-8.26,8.36h0c-1.16,.14-2.3,.27-3.47,.38l11.74-11.86,2.11-2.14,16.36-16.54,2.11-2.14,16.61-16.79,2.11-2.14,16.35-16.54,2.11-2.14,16.36-16.54,2.11-2.14,7.09-7.17c.21,.83,.42,1.67,.61,2.51Z"></path><path fill="#ff7121" d="M1366.98,472.14c0,.05,0,.11,.01,.17-.9,1.97-1.85,3.88-2.82,5.77v.02l-8.15,8.22-2.11,2.14-16.36,16.54-2.11,2.14-16.35,16.53-2.11,2.14-6.45,6.52c-1.94,1.01-3.92,1.96-5.9,2.86l12.36-12.49,2.11-2.14,16.35-16.54,2.11-2.14,16.36-16.54,2.11-2.14,10.96-11.08Z"></path></g><g><path fill="#ff7121" d="M1149.29,329.43h0l-2.14,2.17-2.11,2.14-16.35,16.53-2.11,2.14-16.35,16.54-2.11,2.14-16.36,16.54-2.11,2.14-8.55,8.64c.21,.81,.43,1.62,.67,2.43l7.88-7.96,2.11-2.14,16.36-16.54,2.11-2.14,16.35-16.53,2.11-2.14,16.35-16.54,2.11-2.14,5.76-5.83-3.61,.55Z"></path><path fill="#ff7121" d="M1179.02,329.74l-10.29,10.41-2.11,2.14-19.47,19.69-2.11,2.14-16.35,16.54-2.11,2.14-16.35,16.53-2.11,2.14-16.36,16.54-2.11,2.14-.02,.02c-.36-.67-.72-1.36-1.06-2.04l1.08-1.1,2.11-2.14,16.36-16.54,2.11-2.14,16.35-16.53,2.11-2.14,16.35-16.54,2.11-2.14,19.47-19.69,2.11-2.14,7.67-7.76h0c.87,.14,1.75,.3,2.62,.47Z"></path><path fill="#ff7121" d="M1197.75,334.94l2.43,.67-12.99,13.13-2.11,2.14-16.36,16.54-2.11,2.14-19.47,19.7-2.11,2.14-16.35,16.53-2.11,2.14-16.35,16.54-2.11,2.14-7.5,7.58c-.48-.56-.94-1.13-1.4-1.7l8.91-9.01,2.11-2.14,16.35-16.53,2.11-2.14,16.35-16.54,2.11-2.14,19.47-19.69,2.11-2.14,16.36-16.54,2.11-2.14,10.55-10.67Z"></path><polygon fill="#ff7121" points="1218.96 340.76 1221.38 341.42 1205.66 357.31 1203.55 359.45 1187.2 375.98 1185.08 378.12 1168.72 394.66 1166.61 396.8 1147.14 416.49 1145.02 418.62 1128.67 435.15 1126.56 437.29 1114.23 449.76 1112.68 448.2 1126.56 434.18 1128.67 432.05 1145.02 415.51 1147.14 413.37 1166.61 393.68 1168.72 391.55 1185.08 375.01 1187.2 372.87 1203.55 356.34 1205.66 354.2 1218.96 340.76"></polygon></g></g></g><path fill="#ff912b" d="M679.45,564.56c-8.19,7.16-25.53,36.13-25.53,36.13,0,0,202.15,36.6,299.84,30.54,97.7-6.06,122.46-21.52,122.46-21.52,0,0-19.13-29.99-39.56-45.14,0,0-27.01-19.15-69.05,0-36.39,16.58-75.05-20.2-133.9-16.67-31.98,1.92-53.77,22.79-84.04,14.17-37.45-10.67-57.51-8.62-70.22,2.5Z"></path><g><ellipse fill="#ffebd8" ry="135.54" rx="159.16" cy="706.22" cx="861"></ellipse><path fill="#ff912b" d="M861,826.31c-37.51,0-72.79-12.45-99.33-35.06-26.64-22.69-41.31-52.88-41.31-85.03s14.67-62.34,41.31-85.03c26.55-22.61,61.82-35.06,99.33-35.06s72.79,12.45,99.33,35.06c26.64,22.69,41.31,52.88,41.31,85.03s-14.67,62.34-41.31,85.03c-26.55,22.61-61.82,35.06-99.33,35.06Zm0-237.18c-76.02,0-137.87,52.53-137.87,117.09s61.85,117.09,137.87,117.09,137.87-52.53,137.87-117.09-61.85-117.09-137.87-117.09Z"></path><g><path fill="#ff912b" d="M749.67,690.07h10.88c6.42-.01,10.48,3.92,10.49,9.98,0,6.65-4.96,10.13-11.03,10.14h-5.48v9.54h-4.84l-.02-29.65Zm10.49,15.41c3.66,0,5.95-2.21,5.95-5.39,0-3.47-2.33-5.29-5.95-5.29h-5.63v10.68h5.64Z"></path><path fill="#ff912b" d="M779.94,690.04l20.45-.02v4.66h-15.6v7.72h13.84v4.65h-13.83v7.98h15.81v4.65l-20.64,.02-.02-29.66Z"></path><path fill="#ff912b" d="M810.28,690.01h12.29c6.46-.02,10.25,3.71,10.25,9.43,0,4.87-2.71,7.8-6.57,8.99l7.46,11.22h-5.71l-6.86-10.33h-5.99v10.34h-4.84l-.02-29.65Zm11.95,14.69c3.47,0,5.67-1.95,5.67-5.05,0-3.18-2.13-4.91-5.72-4.91h-7.05v9.96h7.1Z"></path><path fill="#ff912b" d="M842.72,689.98l20.53-.02v4.75h-15.68v8.11h13.92v4.73h-13.91v12.09h-4.84l-.02-29.65Z"></path><path fill="#ff912b" d="M872.09,707.03v-17.07h4.83v16.86c.02,5.51,2.66,8.47,6.99,8.47,4.29,0,6.93-2.8,6.93-8.27v-17.07h4.83v16.81c.02,8.86-4.63,13.31-11.84,13.32-7.17,0-11.75-4.44-11.75-13.04Z"></path><path fill="#ff912b" d="M906.29,689.93h5.16l8.4,14.01,8.38-14.03h5.16l.02,29.65h-4.85l-.02-21.26-8.7,13.99h-.16l-8.64-13.89,.02,21.18h-4.77l-.02-29.65Z"></path><path fill="#ff912b" d="M944.43,689.89l20.45-.02v4.66h-15.6v7.72h13.84v4.65h-13.83v7.98h15.81v4.65l-20.64,.02-.02-29.66Z"></path></g><g><rect fill="#ff7121" height="2.02" width="136.29" y="751.97" x="789.24"></rect><rect fill="#ff7121" height="2.02" width="136.29" y="655.96" x="789.24"></rect></g></g><path fill="#fff3e9" d="M1001.7,515.67c13.38,20.03,13.06,44.89-.72,55.54-13.78,10.65-35.8,3.05-49.19-16.98-13.38-20.03-13.06-44.89,.72-55.54,13.78-10.65,35.8-3.05,49.19,16.98Z"></path><path fill="#fff3e9" d="M928.25,505.34c2.87,10.4-.6,20.68-7.76,22.97-7.16,2.28-15.29-4.29-18.16-14.7-2.87-10.4,.6-20.68,7.76-22.97,7.16-2.28,15.29,4.29,18.16,14.7Z"></path><g><path fill="#ff912b" d="M876.52,628.71c-2.11,1.88-11.01,3.95-11.51,3.31-.5-.65,3.08-9.65,5.19-11.52,2.11-1.88,5.24-1.56,6.98,.71,1.74,2.27,1.45,5.63-.66,7.5Z"></path><path fill="#ff912b" d="M864.8,618.92c1.27,2.61,1.33,12.4,.64,12.79-.69,.39-8.15-5.23-9.42-7.83-1.27-2.61-.34-5.83,2.09-7.2,2.42-1.37,5.42-.36,6.69,2.24Z"></path><path fill="#ff912b" d="M853.67,627.42c2.72-.32,11.22,3.2,11.3,4.03,.08,.84-7.5,6.24-10.23,6.56-2.72,.32-5.17-1.79-5.47-4.72-.3-2.93,1.67-5.56,4.39-5.88Z"></path><path fill="#ff912b" d="M857.74,641.08c.69-2.85,6.76-10.14,7.52-9.93,.76,.21,2.77,9.76,2.08,12.61-.69,2.85-3.39,4.56-6.04,3.82-2.65-.74-4.24-3.65-3.56-6.5Z"></path><path fill="#ff912b" d="M871.18,642.73c-2.2-1.76-6.19-10.56-5.72-11.23,.47-.67,9.45,.93,11.64,2.69,2.2,1.76,2.65,5.1,1.01,7.46-1.64,2.36-4.74,2.85-6.94,1.09Z"></path><path fill="#ffebd8" d="M867.09,631.49c0-.97-.73-1.75-1.63-1.75-.9,0-1.63,.79-1.63,1.76,0,.97,.73,1.75,1.63,1.75,.9,0,1.63-.79,1.63-1.76Z"></path></g><g><path fill="#2a3967" d="M504.54,535.87s.89-16.57-18.59-19.49c0,0-11-3.14-21.75,8.65-14.22,15.6-5.92,48.9-10.68,55.54-4.76,6.64-39.93-7.33-33.82,29.71,3.51,21.27,31.7,56.11,67.96,59.57,0,0,30.08-4.79,13.54-32.55-4.42-7.42-14.87-16.68-5.81-30.02,1.9-2.8,9.15-71.4,9.15-71.4Z"></path><path fill="#25468f" d="M324.14,771.53c.15,.29,.31,.58,.46,.88,3.68,6.88,12.13,23.75,21.44,42.21,4.4,8.76,9.01,17.88,13.39,26.45,7.53,14.8,14.39,27.99,18.39,34.96,4.07,7.09,7.06,12.06,8.27,14.05h0c.36,.62,.44,1.34,.39,2.06-.42,6.25-.31,12.45,.27,18.56,5.61,60.06,43.28,92.24,43.28,92.24l11.2,1.78s-15.85-63.13-20.52-98.82c-.79-6.05-1.13-10.95-.86-14.15,.83-9.3-.71-22.95-3.61-38.62-5.17-27.85-14.66-62.04-22.9-89.4-.52-1.75-16.27-63-16.27-63-13.22,12.42-61.43,17.55-61.43,17.55,0,0-8.17,21.37,8.49,53.24Z"></path><path fill="#ffae73" d="M477.56,631.14s-22.88-.73-24.04,20.92c-1.16,21.65,23.37,105.42,28.42,113.02,9.2,13.83,47.65,50.41,47.65,50.41l10.1-6.13s-33.38-61.93-39.12-67.47c-9.02-8.71-12.15-104.04-23.01-110.75Z"></path><path fill="#1e3865" d="M464.75,1019.97h-46.74s-1.12-7.66,1.32-13.47c2.34-5.58,5.67-5.75,.43-14.49,2.97,3.29,12.52,4.65,19.27,3.67,.83,1.44,5.34,11.13,8.1,13.26,3.05,2.36,16.67,1.52,17.61,11.03Z"></path><path fill="#2a3967" d="M324.14,771.53c.15,.29,.31,.58,.46,.88,3.68,6.88,23.61,46.45,32.91,64.91-10.79-47.71-3.28-95.42-3.28-95.42l-30.09,29.63Z"></path><path fill="#2a3967" d="M498.16,532.82c.31-1.32-26.7,13.12-28.06,14.75-12.66,15.1-9.05,34.81-1.81,35,4.65,.12,3.75,8.43,3.75,8.43l51.77-23.55s-6.23-39.08-25.65-34.64Z"></path><path fill="#a9c2ff" d="M480.77,628.73s6.89,7.68,6.89,30.65c0,0-9.5,16.12-34.14,20.21,0,0,21.18-50.87,27.24-50.86Z"></path><path fill="#25468f" d="M360.58,722.03l.16-9.4c-17.42,2.36-60.05-22.38-60.05-22.38,0,0-18.22,13.03-20.72,50.24-1.22,18.16-8.92,94.98-9.77,117.91-.31,8.31-.41,14.25-.45,16.62,0,.01,0,.02,0,.02-.01,.72-.33,1.36-.74,1.93-3.6,4.93-6.73,10.14-9.44,15.55-26.58,53.17-12.86,124.38-12.86,124.38l6.14-1.76s22.69-73.78,37.38-106.18c2.49-5.49,4.76-9.77,6.65-12.24,5.52-7.21,11.35-19.46,17.09-34.2,10.85-27.87,46.62-140.51,46.62-140.51Z"></path><path fill="#1e3865" d="M284.06,1019.97h-46.74s-1.12-7.66,1.32-13.47c2.34-5.58,6-8.11,5.13-14.86,2.97,3.29,7.81,6.97,14.57,5.99,.83,1.44,5.34,9.17,8.11,11.3,3.05,2.36,16.67,1.52,17.61,11.03Z"></path><path fill="#a9c2ff" d="M450.37,690.38c-6.28,1.15,1.03,6.52-7.61,7.53-12.29,1.44-24.98,2.43-31.63,5.28-2.42,1.04-6.73,5.74-7.75,7.08-6.31,8.2-14.33,24.49-14.33,24.49-81.39-3.98-88.38-44.5-88.38-44.5,52.82-55.16,101.39-87.69,138.47-91.99,6.35-.74,14.37,3.59,20.09,6.33,12.99,6.22,21.53,24.14,21.53,24.14,0,0-6.54,57.27-30.4,61.65Z"></path><path fill="#8eaff1" d="M442.76,697.91c-12.29,1.44-24.98,2.43-31.63,5.28-2.72-43.64,16.44-76.47,16.44-76.47,0,0,12.5,54.68,15.19,71.19Z"></path><path fill="#ffae73" d="M453.36,619.33s-30.91-1.82-36.4,19.05c-5.49,20.86,10.3,104.14,13.71,112.73,6.2,15.65,36.37,60.31,36.37,60.31l11.09-3.63s-20.12-68.23-24.61-74.98c-7.05-10.6,9.09-104.4-.16-113.48Z"></path><path fill="#a9c2ff" d="M410.87,666.28c.08,.49,29.25,5.77,47.49-4.19,0,0,15.24-51.33-6.54-48.88-21.78,2.46-34.67,9.83-35.22,21.04-.55,11.21-5.73,32.02-5.73,32.02Z"></path><path fill="#ffae73" d="M459.24,604.6s8.59,34.47,21.53,24.14c-.36-1.66,1.89-6.5,4.55-11.42,3.4-6.28,7.45-12.7,7.45-12.7l-17.49-16.48-1.04-.98c-5.36,10.06-10.61,14.01-14.99,17.44Z"></path><path fill="#f99352" d="M492.76,604.63s-4.04,6.4-7.44,12.69c-10.87-7.21-10.88-21.68-10.05-29.18l17.49,16.49Z"></path><path fill="#ffae73" d="M493.25,612.88s-26.4-15.79-17-33.32c9.4-17.53,12.33-31.37,29.58-22.02,17.25,9.34,16.91,18.04,15.1,24.71-1.81,6.67-20.57,34.29-27.68,30.63Z"></path><path fill="#2a3967" d="M525.38,572.03c-1.21-7.78-4.89-8.52-7.45-8-9.75-17.34-25.68-10.57-25.68-10.57-8.51,11.48-20.81,13.44-20.81,13.44,0,0,3.06,6.13,15.69,9.92,3.86,1.16,8.23,.46,12.45-1.07-8.76,5.25-17.91,7.26-17.91,7.26,16.63,1.64,31.74-9.75,33.38-11.5,2.69,1.55,4.42,2.47,4.58,6.44,.23,5.93-2.82,11.74-5.34,16.37,0,0,12.91-10.61,11.09-22.28Z"></path><g><path fill="#ffba53" d="M519.3,750.04c-2.33-2.34-6-2.08-8.03,.55-51.16,66.24-45.71,164.87,13.83,224.49,59.54,59.62,151.43,58.44,209.24-1.14,2.29-2.36,2.27-6.32-.06-8.65l-214.98-215.25Z"></path><g><path fill="#ffd592" d="M513.97,917.92c-3.54,1.79-5.95,6.17-5.27,9.55,3.27,16.21,12.03,28.65,23.04,39.67,9.12,9.14,18.45,17.07,30.65,20.21,4.71,1.22,10.88-2.98,13.32-9.02l41.05-101.99c2.23-5.54-1.48-9.54-6.5-7.01l-96.29,48.59Z"></path><path fill="#ffd592" d="M579.05,983.82c-1.47,3.85-.73,8.85,1.59,10.92,11.12,9.95,24.9,13.93,38.52,14.52,11.29,.49,21.11-.82,31.25-7.02,3.92-2.4,5.88-9.91,4.25-16.19l-27.43-105.98c-1.49-5.76-6.24-6.17-8.32-.72l-39.86,104.48Z"></path><path fill="#ffd592" d="M510.18,913.28c-3.55,1.68-8.22,.92-10.18-1.62-9.43-12.22-12.94-27.05-13.69-42.17-.63-12.53,.03-23.88,5.64-35.22,2.17-4.38,9.13-6.65,14.99-4.93l98.99,29.15c5.38,1.58,5.83,6.85,.8,9.23l-96.55,45.56Z"></path><path fill="#ffd592" d="M660.14,988.4c1.11,3.96,4.5,7.69,7.41,7.63,12.99-.26,22.32-2.04,33.81-8.23,12.08-6.51,19.59-11.43,20.3-23.44,.68-11.36-85.02-88.03-85.02-88.03-4.39-3.61-8.15-.96-6.58,4.64l30.08,107.44Z"></path><path fill="#ffd592" d="M502.62,823.4c-3.69-1.15-7.3-4.76-7.17-7.89,.59-15.43,3.74-28.04,11.13-39.34,6.13-9.38,10.13-22.86,28.48-4.49l72.05,75.76c3.41,4.68,.98,8.75-4.24,7.13l-100.24-31.17Z"></path></g></g><path fill="#ffae73" d="M478.13,807.79s1.44,3.91,3.52,6.64c2.08,2.73,7.26,10.72,7.37,14.59,0,0-.31,1.72-1.6,1.4-1.3-.31-5.8-5.11-8.11-4.77,0,0-1.98,6.43-1.17,8.82,2.2,6.53-1,14.83-1.74,16.71-.73,1.88-7.08-12.59-8.58-17.75-1.01-3.46-1.58-11.43-1.31-17.93,.16-3.78-3.28-9.82-3.28-9.82l14.91,2.09Z"></path></g><g><g><path fill="#ffdeaf" d="M514.7,288.6c1.43,6.1-3.02,26.47-4.64,26.91-1.62,.44-14.49-15.26-15.91-21.36-1.43-6.1,2.02-12.29,7.7-13.82,5.68-1.53,11.43,2.17,12.86,8.27Z"></path><path fill="#ffdeaf" d="M486.36,303.93c5.85-.24,23.47,8.62,23.54,10.42,.06,1.79-16.87,12.1-22.71,12.35-5.85,.24-10.77-4.65-11-10.94-.23-6.29,4.33-11.58,10.18-11.83Z"></path><path fill="#ffdeaf" d="M491.38,334.84c1.93-5.94,16.05-20.33,17.63-19.74,1.58,.59,4.31,21.31,2.38,27.25-1.93,5.94-7.97,9.08-13.49,7.01-5.53-2.07-8.44-8.57-6.52-14.51Z"></path><path fill="#ffdeaf" d="M519.64,338.93c-4.48-4.04-11.99-23.34-10.92-24.72,1.07-1.38,20.06,3.22,24.54,7.26,4.48,4.04,5.07,11.23,1.31,16.05-3.76,4.82-10.44,5.45-14.93,1.41Z"></path><path fill="#ffdeaf" d="M534.95,312.59c-5.17,2.94-24.63,3.13-25.41,1.54-.78-1.59,10.35-18.75,15.52-21.69,5.17-2.94,11.58-.81,14.32,4.76,2.73,5.56,.75,12.46-4.42,15.39Z"></path></g><path fill="#ff912b" d="M511.03,310.74c-1.74-.89-3.82-.09-4.65,1.78-.83,1.87-.09,4.11,1.65,5,1.74,.89,3.82,.09,4.65-1.78,.83-1.87,.09-4.11-1.65-5Z"></path></g><g><g><path fill="#77c36a" d="M1014.06,964.41c-17.21,.03-60.33,42.32-69.69,51.52-9.38,9.2-57.74,4.02-65.73,2.15-1.28-.3-2.1-1.23-2.48-2.67-2.1-7.7,8.26-30.04,32.73-50.49,29.08-24.29,104.68-17.88,104.68-17.88,0,0,7.29,7.15,7.95,12.29,.38,2.85-1.31,5.08-7.46,5.09Z"></path><path fill="#77c36a" d="M1021.52,959.32c-2.17-.29-4.54-.66-7.14-1.15-72.82-13.63-135.74,59.91-135.74,59.91l-2.48-2.67c-2.1-7.7,8.26-30.04,32.73-50.49,29.08-24.29,104.68-17.88,104.68-17.88,0,0,7.29,7.15,7.95,12.29Z"></path></g><g><path fill="#77c36a" d="M1034.89,958.92c13.19-4.04,54.9,18.18,63.96,23.03,9.08,4.84,45.08-10.56,50.82-13.89,.92-.53,1.36-1.44,1.35-2.63,.04-6.4-12.47-21.07-35.41-30.97-27.26-11.75-83.9,11.03-83.9,11.03,0,0-4.13,7.2-3.58,11.3,.29,2.27,2.04,3.58,6.76,2.14Z"></path><path fill="#77c36a" d="M1028.13,956.79c1.61-.74,3.35-1.58,5.24-2.57,53.04-27.66,116.3,13.85,116.3,13.85l1.35-2.63c.04-6.4-12.47-21.07-35.41-30.97-27.26-11.75-83.9,11.03-83.9,11.03,0,0-4.13,7.2-3.58,11.3Z"></path></g><g><path fill="#9bd399" d="M1035.6,947.87c7.88-12.07,53.3-23.04,63.17-25.41,9.88-2.39,28.84-38.73,31.35-45.2,.4-1.04,.21-2.04-.49-2.96-3.72-5-22.03-7.93-45.64-.09-28.06,9.33-58.72,65.37-58.72,65.37,0,0,1.01,8.39,3.83,11.2,1.56,1.57,3.68,1.4,6.5-2.91Z"></path><path fill="#8bca88" d="M1029.1,950.78c.82-1.66,1.67-3.49,2.56-5.54,25.01-57.39,98.46-67.98,98.46-67.98l-.49-2.96c-3.72-5-22.03-7.93-45.64-.09-28.06,9.33-58.72,65.37-58.72,65.37,0,0,1.01,8.39,3.83,11.2Z"></path></g><path fill="#fff2de" d="M1008.13,931.67c1.93-1.9-21.71-43.23-41.08-47.18-21.18-4.32-52.9,1.72-51.99,33.47,.53,18.38,66.97,31.72,74.62,29.02,7.65-2.7,18.45-15.31,18.45-15.31Z"></path><path fill="#fff2de" d="M999.9,926.89s3.9-44.35,32.43-50.13c28.53-5.78,44.65-4.53,48.63,7.2,3.98,11.73,.19,30.54-11.08,38.17-11.27,7.62-43.62,18.48-43.62,18.48l-26.36-13.71Z"></path><path fill="#fff2de" d="M1003.55,957.55c-1.79,2.65,24.81,57.6,44.47,62.15,21.48,4.97,52.76-4.51,49.56-47.44-1.85-24.85-69.23-40.16-76.68-36.19-7.45,3.97-17.34,21.48-17.34,21.48Z"></path><path fill="#fff2de" d="M1012.95,962.2s-13.94,58.29-43.23,59.88c-29.28,1.59-44.81-3.54-46.03-20.03-1.22-16.49,6.78-40.76,19.57-48.5,12.79-7.74,46.98-15.28,46.98-15.28l22.71,23.93Z"></path><path fill="#fff2de" d="M1009.15,957.49l-5.79,.19c-7.64,.25-14.09-6.27-14.32-14.49l-.26-9.13c-.23-8.22,5.83-15.15,13.47-15.4l5.79-.19c7.64-.25,14.09,6.27,14.32,14.49l.26,9.13c.23,8.22-5.83,15.15-13.48,15.4Z"></path><g><path fill="#ffcea8" d="M1007.02,944.48l-2.28-.45c.17-.99,4.36-24.57,20.64-41.18l1.6,1.81c-15.75,16.05-19.92,39.58-19.96,39.81Z"></path><path fill="#ffcea8" d="M1004.2,943l-2.31-.12c1.06-22.87-12.82-49.43-12.96-49.69l2.01-1.23c.58,1.11,14.35,27.43,13.26,51.04Z"></path><path fill="#ffcea8" d="M994.71,939.87c-1.48-16.01-16.89-31.83-17.05-31.99l1.59-1.81c.66,.67,16.2,16.61,17.76,33.55l-2.3,.25Z"></path><path fill="#ffcea8" d="M1008.59,950.53l-2.19-.82c4.38-13.61,25.4-23.72,26.3-24.14l.93,2.28c-.21,.1-20.99,10.07-25.04,22.67Z"></path><path fill="#ffcea8" d="M1003.29,950.79c-6.86-14.32-26.58-22.94-26.78-23.02l.86-2.32c.84,.37,20.73,9.06,27.98,24.21l-2.06,1.13Z"></path><path fill="#ffcea8" d="M1011.92,945.98c.08,2.92-2.66,5.38-6.12,5.5-3.46,.11-6.34-2.17-6.42-5.09-.08-2.92,2.66-5.38,6.12-5.5,3.46-.11,6.34,2.16,6.42,5.09Z"></path></g><path fill="#f7cc4d" d="M992.22,897.21h0c-1.35,.67-2.96,.02-3.58-1.43l-1.53-3.59c-.62-1.45-.02-3.19,1.33-3.85h0c1.35-.67,2.96-.02,3.58,1.43l1.53,3.59c.62,1.45,.02,3.19-1.33,3.85Z"></path><path fill="#f7cc4d" d="M982.41,910.89h0c-1.07,1.1-2.79,1.06-3.82-.09l-2.53-2.85c-1.03-1.16-.99-3.01,.09-4.11h0c1.07-1.1,2.79-1.06,3.82,.09l2.54,2.85c1.03,1.16,.99,3.01-.09,4.11Z"></path><path fill="#f7cc4d" d="M981.96,928.69h0c-.62,1.45-2.24,2.09-3.59,1.42l-3.33-1.65c-1.35-.67-1.95-2.4-1.32-3.86h0c.62-1.45,2.24-2.09,3.59-1.42l3.33,1.65c1.35,.67,1.95,2.4,1.32,3.86Z"></path><path fill="#f7cc4d" d="M1028.44,901.27h0c1.08,1.1,1.13,2.94,.12,4.11l-2.51,2.87c-1.02,1.16-2.74,1.22-3.82,.12h0c-1.08-1.1-1.14-2.94-.12-4.11l2.51-2.87c1.02-1.16,2.74-1.22,3.82-.12Z"></path><path fill="#f7cc4d" d="M1037.26,924.61h0c.64,1.44,.07,3.19-1.27,3.88l-3.31,1.7c-1.34,.69-2.96,.08-3.61-1.37h0c-.64-1.44-.07-3.19,1.27-3.88l3.31-1.7c1.34-.69,2.96-.08,3.61,1.37Z"></path></g><g><path fill="#ffae73" d="M1372.85,652.21h0s-7.39,5.95-9.17,7.85c-1.78,1.9-.91,1.82,1.43,2.31,1.21,.25,2.86-.42,4.26-1.08-.95,4.38-1.54,8.92-2.11,10.85-.96,3.25-2.67,13.12,2.38,12.84,5.06-.28,11.74-11.34,13.42-16.82,1.68-5.48,7.58-10.25,7.58-10.25l-6.28-10.16s-8.01,.68-11.52,4.45Z"></path><g><g><path fill="#25468f" d="M1412.49,1001.63l10.53,4.22s45.74-68.21,51.37-128.22c.81-8.6,.75-16.98-.43-24.92-.65-4.38-.58-8.85,.13-13.22l.02-.14c.36-2.26,.81-4.99,1.32-8.12,1.49-9.16,3.53-21.69,5.87-35.97,5.38-32.84,12.35-74.83,17.77-105.69l-2.84-.98-30.7-10.65-6.34-21.67-22.86-6.47s-5.11,10.74-9.67,61.48c-.84,6.66-1.61,13.99-2.18,21.95-1.78,24.29-1.91,54.43,2.18,88.88,1.05,8.82,2.37,17.92,4.01,27.28,1.2,6.86,1.38,16.2,.88,26.94-2.3,49.06-19.05,125.29-19.05,125.29Z"></path><path fill="#2a3967" d="M1424.47,733.24l49.64,106.11c.36-2.26,.81-4.99,1.32-8.12,1.49-9.16,3.53-21.69,5.87-35.97,5.38-32.84,12.35-74.83,17.77-105.69l-2.84-.98-30.7-10.65-6.34-21.67-22.86-6.47s-5.11,10.74-9.67,61.48c-.84,6.66-1.61,13.99-2.18,21.95Z"></path><path fill="#25468f" d="M1446.31,663.43l1.15-10.6c19.25,5.5,70.69-15.36,70.69-15.36,0,0,18.65,17.63,16.2,59.88-1.2,20.62-7.72,118.22-.1,136.41,26.16,62.45,1.04,174.91,1.04,174.91l-9.62,3.17s-14.7-87.88-26.64-126.71c-2.03-6.58-3.97-11.76-5.75-14.85-5.19-9.01-10.01-23.73-14.38-41.24-8.27-33.11-14.92-76.18-19.35-109.42-.61,.03-13.24-56.2-13.24-56.2Z"></path><path fill="#ffae73" d="M1308.11,628.21l1.44,10.37s.64,0,1.75-.09c3.51-.26,12.03-.77,21.68-1.89,14.5-1.54,31.72-4.28,38.57-8.83,10.44-6.85,27.57-27.85,38.73-48.84,.32-.51,.56-1.03,.8-1.54,5.82-11.14,9.88-22.19,10.2-31.02,.24-5.4-.32-10.03-1.35-14.05-1.35-5.31-3.59-9.51-5.9-12.68-.32-.51-.64-1.03-1.12-1.46-3.82-4.88-7.57-6.94-7.57-6.94-1.91-.86-3.98,.17-6.14,2.66v.09c-1.75,1.97-3.67,4.97-5.5,8.74-.08,.09-.16,.17-.16,.26-.4,.77-.8,1.63-1.28,2.57-.16,.17-.24,.43-.32,.6-.88,1.97-1.75,4.03-2.63,6.17-9.8,22.96-20.24,57.75-28.93,68.12-3.75,4.46-20.88,13.2-34.51,19.71-9.8,4.63-17.77,8.05-17.77,8.05Z"></path><path fill="#a9c2ff" d="M1401.25,558.26c.25,.71,.52,1.41,.83,2.12,8.38,19.41,27.71,102.04,27.71,102.04,27.87,5.02,88.73-3.24,96.83-15.17,.51-5.96-12.23-39.42-21.55-50.67-1.17-1.41-2.22-2.93-3.13-4.53-2.3-4.01-3.77-8.54-4.23-13.27-1.83-18.66-1.14-36.15-1.29-46.78h0c-1.82-1.45-3.59-2.79-5.23-4.07-2.51-1.97-4.73-3.81-6.36-5.68-1.8-2.03-2.92-4.11-3.05-6.46-.09-1.77-.04-3.6,.13-5.42,.08-.86,.18-1.72,.3-2.58,1.29-9.03,4.8-17.22,4.8-17.22-8.88-3.86-21.1-4.01-25.86-3.64-50.87,3.94-62.66,26.42-62.66,26.42,8.54,5.95-3.83,26.1,2.78,44.92Z"></path><path fill="#a9c2ff" d="M1398.47,513.33s-8.04,15.08-9.25,18.96c0,0,10.43-.43,14.64,8.19,0,0,1.01-25.13-5.39-27.16Z"></path><path fill="#8eaff1" d="M1453.78,633.18c20.37-.23,37.61-22.97,48.15-41.14-2.3-4.01-3.77-8.54-4.23-13.27-1.83-18.66-1.14-36.15-1.29-46.78h0c-1.82-1.45-3.59-2.79-5.23-4.07-2.51-1.97-4.73-3.81-6.36-5.68-16.68,30.31-58.66,111.26-31.04,110.94Z"></path><path fill="#1e3865" d="M1493.41,1020.64h53.04s1.27-8.69-1.5-15.28c-2.65-6.33-6.81-9.2-5.82-16.86-3.37,3.73-8.86,7.91-16.53,6.8-.94,1.64-6.06,10.4-9.2,12.83-3.47,2.68-18.92,1.72-19.99,12.52Z"></path><path fill="#1e3865" d="M1379.54,1020.64h53.04s1.98-9.09-1.5-15.28c-3.08-5.48-1.9-8.6,.38-13.13-2.4,1.06-5.51,2.02-8.93,1.81-2.64-.16-5.44-1.45-7.89-2.98-2.28,2.8-12.06,14.71-15.11,17.07-3.47,2.68-18.92,1.72-19.99,12.52Z"></path><path fill="#ffae73" d="M1372.48,648.55l2.13,8.85s26.49-5.97,32.3-7.34h.08c9.96-2.57,21.12-5.65,30.52-9.08,6.61-2.48,12.35-5.14,16.26-7.8,.4-.26,.72-.51,1.12-.86,9.32-7.28,20.4-28.7,29.01-51.67,1.2-3.17,2.31-6.34,3.43-9.42,3.98-11.48,7.17-22.79,9.08-32.56,1.2-5.83,1.99-11.14,2.15-15.51,.08-1.54,.16-3,.08-4.37-.16-24.85-24.23-15.34-27.17-8.4-4.54,11.05-9.32,25.36-13.79,39.59-2.47,7.8-4.86,15.59-7.25,22.79-1.36,4.37-2.71,8.48-3.98,12.25-2.47,7.2-4.7,13.02-6.69,16.71-1.27,2.4-4.94,5.74-9.8,9.51-8.45,6.6-57.47,37.31-57.47,37.31Z"></path><path fill="#a9c2ff" d="M1459.56,526.91c15.34-4.55,39.12,7.52,39.12,7.52,6.32-36.06-11.68-43.87-11.68-43.87-4.62-2.06-21.92,23.02-27.44,36.35Z"></path><path fill="#2a3967" d="M1430.09,391.91c.05-1.54,1.16-18.17,24.72-19.04,0,0-11.58,1.48-13.58,6.96,0,0,7.89-6.76,14.31-4.59,6.42,2.18,10.19,14.27,10.23,18.25,.04,3.98-3.53,16.81-7.61,17.9-1.54,.41-3.32,.3-4.94,0,1.08,1.82,2.15,3.83,3.16,6.07,9.4,20.74-.29,41.02-8.25,38.78-5.1-1.44-6.55,7.93-6.55,7.93l-49.58-43.15s18.21-40.51,38.08-29.11Z"></path><path fill="#ffae73" d="M1452.32,492.59c-2.82-6.09-7.79-14.87-12-33.35l-1.43,.71-23.88,12.07s2.54,8.36,4.41,16.35c1.46,6.26,1.78,13.61,4.36,14.69,6.34,4.95,28.61-3.98,28.53-10.48Z"></path><path fill="#f99352" d="M1415.01,472.04s2.54,8.35,4.41,16.35c13.96-4.19,18.2-19.97,19.48-28.42l-23.89,12.07Z"></path><path fill="#ffae73" d="M1412.07,480.88s33.4-8.31,28.26-30.59c-5.13-22.28-4.28-38.36-25.82-34-21.54,4.36-23.71,13.97-23.68,21.85,.03,7.89,12.42,44.33,21.24,42.74Z"></path><path fill="#2a3967" d="M1388.96,425.49c3.59-8.08,7.82-7.65,10.46-6.21,15.69-15.61,31.09-2.86,31.09-2.86,5.92,15.39,18.76,21.68,18.76,21.68,0,0-5.13,5.65-20,5.52-4.54-.04-9.11-2.28-13.27-5.37,8.02,8.68,17.41,13.97,17.41,13.97-18.62-3.83-30.44-23.72-31.72-26.18-2.82,1.61-5.08,4.04-6.61,9.19-1.73,5.84-1.23,10.79-.54,18.31,0,0-10.97-15.93-5.59-28.04Z"></path></g><g><g><path fill="#9bd399" d="M1346.44,655.51c-15.07,7.08-37.85,61.84-42.79,73.75-4.96,11.92-49.17,27.21-56.84,28.85-1.23,.26-2.28-.22-3.12-1.33-4.58-5.88-3.42-29.71,10.77-57.68,16.87-33.22,85.39-58.62,85.39-58.62,0,0,8.92,3.27,11.33,7.51,1.34,2.34,.66,4.99-4.73,7.52Z"></path><path fill="#8bca88" d="M1351.17,648c-2.01,.64-4.22,1.28-6.66,1.92-68.66,17.94-97.7,108.2-97.7,108.2l-3.12-1.33c-4.58-5.88-3.42-29.71,10.77-57.68,16.87-33.22,85.39-58.62,85.39-58.62,0,0,8.92,3.27,11.33,7.51Z"></path></g><g><path fill="#9bd399" d="M1381.88,642.51c-9.19,14.67-1.12,74.02,.65,86.92,1.76,12.92-27.95,51.32-33.6,57.12-.91,.93-2.03,1.13-3.29,.68-6.8-2.33-17.7-23.11-19.67-54.89-2.33-37.77,42.86-98.71,42.86-98.71,0,0,9.16-2.38,13.3-.19,2.3,1.2,3.04,3.83-.24,9.07Z"></path><path fill="#8bca88" d="M1382.12,633.44c-1.38,1.69-2.92,3.51-4.67,5.46-49.02,54.71-28.53,147.65-28.53,147.65l-3.29,.68c-6.8-2.33-17.7-23.11-19.67-54.89-2.33-37.77,42.86-98.71,42.86-98.71,0,0,9.16-2.38,13.3-.19Z"></path></g><g><g><path fill="#ffdcbb" d="M1354.11,608.65c1.01-2.46-34.37-28.98-52.75-24.49-20.1,4.9-45.75,23.21-33.69,50.67,6.98,15.89,69.95,.33,75.7-5.18,5.75-5.51,10.74-20.99,10.74-20.99Z"></path><path fill="#ffdcbb" d="M1345.2,607.84s-12.32-40.47,10.63-57.24c22.95-16.77,37.53-22.29,45.18-13.64,7.65,8.65,11.01,26.69,3.83,38-7.18,11.31-31.67,34.09-31.67,34.09l-27.97-1.2Z"></path><path fill="#ffdcbb" d="M1359.28,633.21c-.63,3.06,42.19,40.3,61.03,36.23,20.59-4.46,44.64-25.6,26.6-61.91-10.44-21.02-74.93-6.8-80.05-.26-5.12,6.54-7.58,25.94-7.58,25.94Z"></path><path fill="#ffdcbb" d="M1369.17,633.43s8.47,56.81-16.63,70.21c-25.1,13.41-40.53,15.29-47.45,1.33-6.92-13.95-8.52-38.5-.06-50.54,8.46-12.03,35.75-32.67,35.75-32.67l28.4,11.66Z"></path><path fill="#ffdcbb" d="M1364.17,630.86l-5.01,2.54c-6.61,3.35-14.57,.28-17.69-6.82l-3.47-7.9c-3.12-7.11-.26-15.67,6.35-19.02l5.01-2.54c6.61-3.36,14.57-.28,17.69,6.82l3.47,7.9c3.12,7.11,.26,15.67-6.35,19.02Z"></path></g><path fill="#f6aa71" d="M1355.52,620.87c-.2-.95-4.89-23.32,3.48-44.56l2.04,.94c-8.1,20.53-3.41,42.85-3.36,43.08l-2.16,.55Z"></path><path fill="#f6aa71" d="M1352.61,621.03c-7.19-20.48-28.78-38.05-28.99-38.22l1.32-1.91c.91,.73,22.32,18.17,29.73,39.29l-2.07,.84Z"></path><path fill="#f6aa71" d="M1345.25,621.35c-6.98-13.43-26.1-20.97-26.29-21.05l.75-2.24c.82,.32,20.08,7.91,27.47,22.12l-1.93,1.17Z"></path><path fill="#f6aa71" d="M1359,625.17c-.99-13.73,13.85-31.21,14.48-31.95l1.63,1.62c-.15,.18-14.82,17.45-13.91,30.16l-2.2,.18Z"></path><path fill="#f7cc4d" d="M1327.93,584.97h0c-.95,1.14-2.59,1.24-3.65,.22l-2.61-2.51c-1.06-1.02-1.15-2.79-.2-3.92h0c.95-1.14,2.59-1.24,3.65-.22l2.61,2.52c1.06,1.02,1.15,2.79,.2,3.92Z"></path><path fill="#f7cc4d" d="M1324.2,600.99h0c-.55,1.41-2.07,2.08-3.38,1.49l-3.23-1.46c-1.31-.59-1.93-2.23-1.38-3.64h0c.55-1.41,2.07-2.08,3.38-1.49l3.23,1.46c1.31,.59,1.93,2.23,1.38,3.64Z"></path><path fill="#f6aa71" d="M1356.65,627.4c-11.08-9.76-31.43-9.22-31.64-9.21l-.06-2.38c.84-.02,21.38-.57,33.11,9.73l-1.41,1.85Z"></path><path fill="#f7cc4d" d="M1330.12,616.77h0c-.03,1.53-1.22,2.75-2.64,2.72l-3.51-.08c-1.42-.03-2.56-1.31-2.53-2.84h0c.03-1.53,1.22-2.75,2.64-2.72l3.51,.08c1.42,.03,2.56,1.31,2.53,2.84Z"></path><path fill="#f7cc4d" d="M1361.12,573.67h0c1.34,.52,2.04,2.12,1.56,3.55l-1.18,3.55c-.48,1.44-1.97,2.19-3.31,1.68h0c-1.34-.52-2.04-2.11-1.56-3.55l1.18-3.55c.48-1.44,1.97-2.19,3.31-1.68Z"></path><path fill="#f7cc4d" d="M1377.13,590.5h0c1.07,1,1.19,2.76,.26,3.92l-2.29,2.85c-.93,1.16-2.57,1.28-3.65,.28h0c-1.07-1-1.19-2.76-.26-3.92l2.3-2.85c.93-1.16,2.57-1.28,3.65-.28Z"></path><path fill="#f6aa71" d="M1362.5,619.63c1.11,2.53-.42,5.81-3.42,7.33-3,1.52-6.32,.7-7.43-1.82-1.11-2.53,.42-5.81,3.42-7.33,3-1.52,6.32-.7,7.43,1.82Z"></path></g></g></g></g><rect fill="#2d3554" ry="4.01" rx="4.01" height="8.03" width="1787.92" y="1019.97" x="20.08"></rect><g><g><path fill="#fddbba" d="M1184.91,1002.04h0c-10.22,.75-19.06-7.55-19.76-18.53l-10.65-167.76c-.7-10.98,7.02-20.5,17.23-21.25h0c10.22-.75,19.06,7.55,19.76,18.53l10.65,167.76c.7,10.98-7.02,20.5-17.23,21.25Z"></path><path fill="#fddbba" d="M1186.04,1019.88h0c-3.95,.29-7.37-2.92-7.64-7.16l-.83-13.07c-.27-4.25,2.71-7.92,6.66-8.21h0c3.95-.29,7.37,2.92,7.64,7.16l.83,13.07c.27,4.24-2.71,7.92-6.66,8.21Z"></path></g><path fill="#ff912b" d="M1184.83,997.81c-7.98,.58-14.88-5.89-15.42-14.47l-2.02-31.7c5.35,.89,11.36,2.36,17.54,1.75,4.52-.45,8.45,.27,11.68,1.44l1.68,26.4c.54,8.57-5.48,16-13.46,16.58Z"></path><path fill="#ff912b" d="M1185.72,1015h0c-2.06,.15-3.85-1.53-3.99-3.75l-1.06-16.66c-.14-2.22,1.42-4.14,3.48-4.29h0c2.06-.15,3.85,1.53,3.99,3.75l1.06,16.66c.14,2.22-1.42,4.14-3.48,4.29Z"></path><path fill="#ff912b" d="M1172.36,804.42h0c-11.83,.87-22.18-8.83-22.99-21.56l-5.2-81.95c-.81-12.72,8.21-23.85,20.05-24.71h0c11.83-.87,22.18,8.83,22.99,21.56l5.2,81.95c.81,12.72-8.21,23.85-20.05,24.71Z"></path><path fill="#8eaff1" d="M1214.11,827.43l-81.46,5.98c-2.16,.16-4.03-1.59-4.17-3.91l-4.02-63.34c-.15-2.32,1.48-4.33,3.64-4.49l81.46-5.98c2.16-.16,4.03,1.59,4.17,3.91l4.02,63.34c.15,2.32-1.48,4.33-3.64,4.49Z"></path></g><path fill="#ffba53" d="M1319.27,868.79v128.8c0,12.81-9.65,23.19-21.57,23.19h-57.63c-11.91,0-21.57-10.38-21.57-23.19v-128.8c0-6.41,2.42-12.2,6.31-16.4,3.9-4.2,9.29-6.8,15.25-6.8,2.49,0,4.59-1.76,5.31-4.17,.16-.57,.25-1.17,.25-1.8v-12.14c0-.57,.09-1.11,.27-1.61,.61-1.75,2.17-3,4.01-3h38.5c.73,0,1.42,.23,1.99,.62,1.04,.71,1.73,1.96,1.73,3.39v12.74c0,3.3,2.49,5.98,5.56,5.98,11.91,0,21.57,10.39,21.57,23.2Z"></path><path fill="#ffd592" d="M1319.27,868.79v128.8c0,12.81-9.65,23.19-21.57,23.19h-42.87c-11.91,0-21.57-10.38-21.57-23.19v-128.8c0-6.41,2.42-12.2,6.31-16.4,3.9-4.2,9.29-6.8,15.25-6.8,2.49,0,4.59-1.76,5.31-4.17,.16-.57,.25-1.17,.25-1.8v-12.14c0-.57,.09-1.11,.27-1.61,.61-1.75,2.17-3,4.01-3h23.74c.73,0,1.42,.23,1.99,.62,1.04,.71,1.73,1.96,1.73,3.39v12.74c0,3.3,2.49,5.98,5.56,5.98,11.91,0,21.57,10.39,21.57,23.2Z"></path><g><g><path fill="#9bd399" d="M1290.78,995.02c8.31-.12,29.42,19.98,34,24.35,4.59,4.37,27.91,1.5,31.76,.53,.62-.15,1.01-.61,1.18-1.31,.96-3.73-4.19-14.44-16.14-24.13-14.21-11.51-50.67-7.83-50.67-7.83,0,0-3.47,3.51-3.76,6-.16,1.38,.66,2.44,3.64,2.4Z"></path><path fill="#8bca88" d="M1287.15,992.62c1.05-.16,2.19-.36,3.44-.61,35.08-7.14,65.96,27.89,65.96,27.89l1.18-1.31c.96-3.73-4.19-14.44-16.14-24.13-14.21-11.51-50.67-7.83-50.67-7.83,0,0-3.47,3.51-3.76,6Z"></path></g><g><path fill="#9bd399" d="M1280.69,992.53c-6.4-1.85-26.39,9.2-30.73,11.61-4.35,2.41-21.84-4.76-24.64-6.32-.45-.25-.67-.69-.67-1.26-.06-3.09,5.88-10.27,16.9-15.23,13.09-5.88,40.59,4.68,40.59,4.68,0,0,2.04,3.45,1.8,5.43-.13,1.1-.96,1.75-3.25,1.08Z"></path><path fill="#8bca88" d="M1283.94,991.44c-.78-.34-1.63-.74-2.55-1.2-25.8-12.95-56.08,7.58-56.08,7.58l-.67-1.26c-.06-3.09,5.88-10.27,16.9-15.23,13.09-5.88,40.59,4.68,40.59,4.68,0,0,2.04,3.45,1.8,5.43Z"></path></g><g><path fill="#9bd399" d="M1280.27,987.19c-3.89-5.77-25.89-10.72-30.68-11.79-4.79-1.08-14.18-18.48-15.44-21.59-.2-.5-.11-.98,.22-1.43,1.76-2.44,10.59-4,22.04-.39,13.61,4.29,28.79,31.12,28.79,31.12,0,0-.43,4.06-1.78,5.44-.74,.77-1.77,.71-3.16-1.36Z"></path><path fill="#8bca88" d="M1283.43,988.55c-.41-.79-.83-1.67-1.27-2.66-12.46-27.53-48-32.07-48-32.07l.22-1.43c1.76-2.44,10.59-4,22.04-.39,13.61,4.29,28.79,31.12,28.79,31.12,0,0-.43,4.06-1.78,5.44Z"></path></g><g><path fill="#fff3e9" d="M1293.43,979.16c-.94-.9,10.2-21.04,19.53-23.1,10.2-2.25,25.56,.42,25.33,15.77-.13,8.88-32.13,15.84-35.85,14.59-3.71-1.25-9.01-7.25-9.01-7.25Z"></path><path fill="#fff3e9" d="M1297.37,976.79s-2.18-21.39-15.99-23.96c-13.82-2.57-21.6-1.85-23.44,3.85-1.84,5.7,.11,14.75,5.6,18.35,5.5,3.59,21.19,8.59,21.19,8.59l12.64-6.83Z"></path><path fill="#fff3e9" d="M1295.81,991.62c.88,1.27-11.6,28.01-21.06,30.36-10.34,2.57-25.51-1.77-24.25-22.53,.73-12.02,33.17-19.93,36.79-18.07,3.63,1.86,8.52,10.24,8.52,10.24Z"></path><path fill="#fff3e9" d="M1291.3,993.94s7.12,28.05,21.27,28.59c14.15,.54,21.62-2.05,22.1-10.03,.48-7.97-3.54-19.63-9.77-23.27-6.23-3.64-22.79-7.02-22.79-7.02l-10.81,11.73Z"></path><path fill="#fff3e9" d="M1293.11,991.64l2.8,.05c3.69,.06,6.76-3.14,6.82-7.11l.06-4.41c.06-3.97-2.92-7.27-6.61-7.33l-2.8-.05c-3.69-.06-6.76,3.14-6.82,7.11l-.06,4.41c-.06,3.97,2.92,7.27,6.61,7.33Z"></path><path fill="#fddbba" d="M1294.05,985.34c-.02-.11-2.21-11.45-9.9-19.08l.76-.89c7.97,7.9,10.15,19.25,10.24,19.73l-1.1,.24Z"></path><path fill="#fddbba" d="M1295.4,984.6c-.68-11.39,5.79-24.21,6.06-24.75l.98,.58c-.07,.13-6.59,13.06-5.93,24.1l-1.12,.08Z"></path><path fill="#fddbba" d="M1299.97,983.02l-1.12-.1c.64-8.2,8.04-16.01,8.36-16.34l.78,.86c-.07,.08-7.41,7.83-8.02,15.58Z"></path><path fill="#fddbba" d="M1293.33,988.27c-2.04-6.06-12.14-10.71-12.24-10.76l.44-1.11c.43,.2,10.65,4.91,12.86,11.46l-1.05,.41Z"></path><path fill="#f7cc4d" d="M1300.89,962.39h0c.66,.31,1.43-.01,1.72-.72l.72-1.74c.29-.71-.01-1.54-.67-1.85h0c-.66-.31-1.43,.01-1.72,.72l-.71,1.74c-.29,.71,.01,1.54,.67,1.85Z"></path><path fill="#f7cc4d" d="M1305.71,968.93h0c.53,.53,1.36,.49,1.85-.07l1.21-1.4c.49-.57,.46-1.46-.07-1.98h0c-.53-.52-1.36-.49-1.85,.07l-1.21,1.4c-.49,.57-.46,1.46,.07,1.98Z"></path><path fill="#fddbba" d="M1295.89,988.36l-1-.53c3.4-7.37,12.95-11.72,13.35-11.9l.43,1.11c-.1,.04-9.57,4.36-12.78,11.33Z"></path><path fill="#f7cc4d" d="M1306.05,977.52h0c.31,.7,1.09,.99,1.74,.66l1.6-.82c.65-.33,.92-1.18,.61-1.87h0c-.31-.7-1.09-.99-1.74-.66l-1.6,.82c-.65,.33-.92,1.18-.61,1.87Z"></path><path fill="#f7cc4d" d="M1283.42,964.63h0c-.52,.54-.53,1.43-.03,1.99l1.23,1.37c.5,.55,1.33,.57,1.85,.03h0c.52-.54,.53-1.43,.03-1.99l-1.23-1.37c-.5-.55-1.33-.57-1.85-.03Z"></path><path fill="#f7cc4d" d="M1279.31,975.97h0c-.3,.7-.01,1.54,.64,1.86l1.61,.8c.65,.32,1.43,.01,1.73-.69h0c.3-.7,.01-1.54-.64-1.86l-1.61-.8c-.65-.32-1.43-.01-1.73,.69Z"></path><path fill="#fddbba" d="M1291.69,986.1c-.02,1.41,1.32,2.58,2.99,2.61,1.67,.03,3.05-1.09,3.07-2.51,.02-1.41-1.32-2.58-2.99-2.61-1.67-.03-3.05,1.09-3.07,2.51Z"></path></g></g></g></g></g></svg>