<svg xmlns:xlink="http://www.w3.org/1999/xlink" xmlns="http://www.w3.org/2000/svg" version="1.1" viewBox="0 0 1024 1024" height="1024px" width="1024px">
    <title>购物车空空如也</title>
    <defs>
        <linearGradient id="linearGradient-1" y2="44.0501254%" x2="50%" y1="-29.88559%" x1="50%">
            <stop offset="0%" stop-color="#CFDFFA"></stop>
            <stop offset="100%" stop-opacity="0" stop-color="#EAF0FC"></stop>
        </linearGradient>
        <linearGradient id="linearGradient-2" y2="69.8229089%" x2="53.6226986%" y1="33.7484636%" x1="50%">
            <stop offset="0%" stop-color="#CFDFFA"></stop>
            <stop offset="100%" stop-opacity="0" stop-color="#EAF0FC"></stop>
        </linearGradient>
        <linearGradient id="linearGradient-3" y2="66.4977364%" x2="53.6226986%" y1="36.47456%" x1="50%">
            <stop offset="0%" stop-color="#CFDFFA"></stop>
            <stop offset="100%" stop-opacity="0" stop-color="#EAF0FC"></stop>
        </linearGradient>
        <linearGradient id="linearGradient-4" y2="100%" x2="57.28025%" y1="11.4973736%" x1="50%">
            <stop offset="0%" stop-color="#BFD4FA"></stop>
            <stop offset="100%" stop-color="#5792F0"></stop>
        </linearGradient>
        <linearGradient id="linearGradient-5" y2="131.881015%" x2="51.9400923%" y1="11.4973736%" x1="50%">
            <stop offset="0%" stop-color="#BFD4FA"></stop>
            <stop offset="100%" stop-color="#5792F0"></stop>
        </linearGradient>
        <linearGradient id="linearGradient-6" y2="128.49897%" x2="74.2827921%" y1="13.0877007%" x1="50%">
            <stop offset="0%" stop-color="#BFD4FA"></stop>
            <stop offset="100%" stop-color="#5792F0"></stop>
        </linearGradient>
        <linearGradient id="linearGradient-7" y2="131.881015%" x2="54.0733641%" y1="11.4973736%" x1="50%">
            <stop offset="0%" stop-color="#BFD4FA"></stop>
            <stop offset="100%" stop-color="#5792F0"></stop>
        </linearGradient>
        <linearGradient id="linearGradient-8" y2="131.881015%" x2="51.9795749%" y1="11.4973736%" x1="50%">
            <stop offset="0%" stop-color="#BFD4FA"></stop>
            <stop offset="100%" stop-color="#5792F0"></stop>
        </linearGradient>
        <linearGradient id="linearGradient-9" y2="131.881015%" x2="55.3643684%" y1="11.4973736%" x1="50%">
            <stop offset="0%" stop-color="#BFD4FA"></stop>
            <stop offset="100%" stop-color="#5792F0"></stop>
        </linearGradient>
        <linearGradient id="linearGradient-10" y2="53.7022797%" x2="74.2827921%" y1="48.2590898%" x1="50%">
            <stop offset="0%" stop-color="#BFD4FA"></stop>
            <stop offset="100%" stop-color="#5792F0"></stop>
        </linearGradient>
        <linearGradient id="linearGradient-11" y2="59.4401314%" x2="50%" y1="22.383373%" x1="4.78553268%">
            <stop offset="0%" stop-color="#5792F0"></stop>
            <stop offset="100%" stop-opacity="0" stop-color="#BFD4FA"></stop>
        </linearGradient>
        <linearGradient id="linearGradient-12" y2="31.1449267%" x2="-17.9385803%" y1="80.6513029%" x1="172.267767%">
            <stop offset="0%" stop-color="#5792F0"></stop>
            <stop offset="100%" stop-color="#BFD4FA"></stop>
        </linearGradient>
        <linearGradient id="linearGradient-13" y2="38.2047225%" x2="59.5493644%" y1="55.4190356%" x1="120.810505%">
            <stop offset="0%" stop-color="#5792F0"></stop>
            <stop offset="100%" stop-color="#BFD4FA"></stop>
        </linearGradient>
        <linearGradient id="linearGradient-14" y2="-11.5290622%" x2="20.4920716%" y1="150.023261%" x1="103.104856%">
            <stop offset="0%" stop-color="#5792F0"></stop>
            <stop offset="100%" stop-color="#BFD4FA"></stop>
        </linearGradient>
        <linearGradient id="linearGradient-15" y2="-11.5290622%" x2="17.8562587%" y1="150.023261%" x1="107.848478%">
            <stop offset="0%" stop-color="#5792F0"></stop>
            <stop offset="100%" stop-color="#BFD4FA"></stop>
        </linearGradient>
        <linearGradient id="linearGradient-16" y2="24.278077%" x2="-17.9385803%" y1="91.8142343%" x1="172.267767%">
            <stop offset="0%" stop-color="#5792F0"></stop>
            <stop offset="100%" stop-color="#BFD4FA"></stop>
        </linearGradient>
        <linearGradient id="linearGradient-17" y2="79.9447898%" x2="7.28091586%" y1="39.1737558%" x1="87.9236244%">
            <stop offset="0%" stop-color="#5792F0"></stop>
            <stop offset="100%" stop-opacity="0.5" stop-color="#BFD4FA"></stop>
        </linearGradient>
        <linearGradient id="linearGradient-18" y2="80.2920255%" x2="144.920412%" y1="31.2626962%" x1="24.8382163%">
            <stop offset="0%" stop-color="#BFD4FA"></stop>
            <stop offset="100%" stop-color="#5792F0"></stop>
        </linearGradient>
        <linearGradient id="linearGradient-19" y2="63.9265576%" x2="7.28091586%" y1="44.9649901%" x1="87.9236244%">
            <stop offset="0%" stop-color="#5792F0"></stop>
            <stop offset="100%" stop-opacity="0.5" stop-color="#BFD4FA"></stop>
        </linearGradient>
        <linearGradient id="linearGradient-20" y2="54.6474322%" x2="7.28091586%" y1="48.3197666%" x1="87.9236244%">
            <stop offset="0%" stop-color="#5792F0"></stop>
            <stop offset="100%" stop-opacity="0.5" stop-color="#BFD4FA"></stop>
        </linearGradient>
        <linearGradient id="linearGradient-21" y2="100%" x2="50%" y1="-19.0038784%" x1="50%">
            <stop offset="0%" stop-color="#FFCDA5"></stop>
            <stop offset="100%" stop-color="#FFE8D1"></stop>
        </linearGradient>
        <linearGradient id="linearGradient-22" y2="100%" x2="50%" y1="0%" x1="50%">
            <stop offset="0%" stop-color="#FFF2DF"></stop>
            <stop offset="100%" stop-color="#FEE0BC"></stop>
        </linearGradient>
        <linearGradient id="linearGradient-23" y2="73.6326896%" x2="100%" y1="11.7098971%" x1="14.3474826%">
            <stop offset="0%" stop-color="#BFD4FA"></stop>
            <stop offset="100%" stop-color="#5792F0"></stop>
        </linearGradient>
        <linearGradient id="linearGradient-24" y2="100%" x2="59.1092742%" y1="-31.010887%" x1="43.5046289%">
            <stop offset="0%" stop-color="#BFD4FA"></stop>
            <stop offset="100%" stop-color="#5792F0"></stop>
        </linearGradient>
        <linearGradient id="linearGradient-25" y2="100%" x2="50%" y1="0%" x1="50%">
            <stop offset="0%" stop-color="#FEE127"></stop>
            <stop offset="100%" stop-color="#F9AB21"></stop>
        </linearGradient>
    </defs>
    <g fill-rule="evenodd" fill="none" stroke-width="1" stroke="none" id="购物车空空如也">
        <rect height="1024" width="1024" y="0" x="0" id="矩形"></rect>
        <g transform="translate(22.000000, 149.000000)" id="编组-3">
            <g id="背景">
                <ellipse ry="245.556879" rx="471.469207" cy="752.386277" cx="471.469207" fill="url(#linearGradient-1)" id="椭圆形"></ellipse>
                <path fill="url(#linearGradient-2)" id="云" d="M799.533197,114.146743 C799.533197,128.284866 785.960599,139.595365 768.816264,139.595365 L673.808075,139.595365 C656.66374,138.464315 642.376795,127.719341 642.376795,113.015693 C642.376795,103.401769 648.80592,94.9188953 658.092435,90.3946959 C657.378088,88.6981211 656.66374,87.0015463 656.66374,85.3049715 C656.66374,75.6910476 665.950255,67.2081736 678.094159,67.2081736 C683.09459,67.2081736 687.380674,68.9047484 690.95241,71.1668481 C699.524578,58.1597747 715.240218,49.1113758 733.813247,49.1113758 C759.529749,49.1113758 780.245821,66.6426487 780.245821,88.1325961 L780.245821,90.3946959 C791.675377,94.3533704 799.533197,103.401769 799.533197,114.146743 Z"></path>
                <path fill="url(#linearGradient-3)" id="云" d="M163.26804,0 C187.502409,0 208.119328,15.4881467 215.76032,37.105965 L251.630339,37.1063728 C261.295322,37.1063728 269.130339,44.9413897 269.130339,54.6063728 L269.130339,96.0018462 C269.130339,105.666829 261.295322,113.501846 251.630339,113.501846 L77.0884692,113.501846 C67.4234861,113.501846 59.5884692,105.666829 59.5884692,96.0018462 L59.5888491,84.1247885 C55.4376464,77.4442645 53.0402858,69.5602884 53.0402858,61.1163787 C53.0402858,37.0066331 72.5850964,17.4618225 96.694842,17.4618225 C104.487178,17.4618225 111.80266,19.5034734 118.135542,23.0810284 C128.244228,9.0984458 144.693606,0 163.26804,0 Z"></path>
                <g transform="translate(166.978678, 559.869684)" id="草">
                    <ellipse ry="3.92891006" rx="12.5725122" cy="76.6137462" cx="26.3236974" fill="#CCDCF6" id="椭圆形"></ellipse>
                    <path fill-rule="nonzero" fill="url(#linearGradient-4)" id="路径-42" d="M12.9749293,75.0750569 C14.6869743,46.4851448 21.8592792,29.9374618 34.4918437,25.4320077 C39.465296,24.7679995 45.0082945,23.7696153 41.1433524,30.2150816 C37.2784104,36.6605479 26.9288045,34.1521904 16.5795418,75.0580155 C15.6434758,76.8069432 14.4419383,76.8126237 12.9749293,75.0750569 Z"></path>
                    <path fill-rule="nonzero" fill="url(#linearGradient-5)" id="路径-41" d="M12.7387575,74.7168719 C9.37776148,48.0133354 6.62689947,31.2200046 4.48617149,24.3368794 C1.27507953,14.0121917 -5.56193428,-5.85797445 8.66756456,1.65941412 C22.8970634,9.17680269 24.5794263,47.737367 18.0019565,71.2046169 C15.9575409,77.1428885 14.2031412,78.3136402 12.7387575,74.7168719 Z"></path>
                </g>
                <g fill-rule="nonzero" transform="translate(673.926164, 506.266290)" id="草">
                    <path fill="url(#linearGradient-6)" id="路径-43" d="M64.6872343,93.7467625 C62.2138456,82.4881104 54.9906595,74.6179132 43.017676,70.136171 C29.3449661,65.7410564 21.8540599,60.5167111 30.4097456,56.7285763 C37.634554,56.1542703 53.0425432,50.5276709 64.6872343,84.1359394 C65.497645,87.392752 65.497645,90.5963597 64.6872343,93.7467625 Z"></path>
                    <path fill="url(#linearGradient-7)" id="路径-44" d="M65.2950424,95.5325355 C58.0943158,68.6537932 49.9142916,49.0299263 40.7549698,36.6609347 C34.0295266,28.208436 34.5007882,16.1135445 40.7549698,13.3797782 C47.1567804,12.6678587 58.9555169,11.5667483 67.8394206,57.889871 C68.4005097,61.0761585 71.5308806,79.7165986 67.8394206,91.7466113 C67.2930276,93.3976326 66.4449015,94.6596074 65.2950424,95.5325355 Z"></path>
                    <path fill="url(#linearGradient-8)" id="路径-45" d="M66.9580883,89.4616833 C70.2148771,77.4343609 69.8013925,61.7414768 65.7176344,42.3830311 C59.4711165,23.6167477 48.809021,0.532167495 68.2426649,0 C76.1269852,1.07214915 85.6475074,9.33649966 82.0501534,50.5250649 C79.8579684,67.145474 76.0453524,76.9639459 72.0441353,89.4616833 C70.6483673,90.2409632 68.9530183,90.2409632 66.9580883,89.4616833 Z"></path>
                    <path fill="url(#linearGradient-9)" id="路径-46" d="M70.7623442,94.1327866 C69.458692,60.1242145 75.6828149,35.7177174 89.4347131,20.9132952 C93.148295,15.9662472 107.276393,11.3329896 107.223059,26.8407379 C105.74814,33.508972 102.592128,47.7448186 84.3932573,69.4645291 C78.3977602,77.3038018 74.4573731,88.7591583 74.4189659,91.4450148 C74.3933611,93.2355857 73.1744872,94.1315097 70.7623442,94.1327866 Z"></path>
                    <path fill="url(#linearGradient-10)" id="路径-47" d="M0,98.6232163 C13.6179771,96.0850643 21.1281063,93.9303875 22.5303874,92.1591858 C24.6338092,89.5023833 43.1639978,78.0949719 54.7193473,87.703595 C57.234763,84.4708612 65.3019464,81.9562031 69.9186224,87.703595 C72.0307791,78.6296793 85.2073199,72.8184461 90.9379325,73.7598886 C97.391501,73.2548401 116.443406,73.4649707 117.867302,98.6232163 C112.669198,98.7442363 73.3800974,98.7442363 0,98.6232163 Z"></path>
                </g>
            </g>
            <polygon points="370.950215 609.006813 727.218801 817.213292 980 683.961313 597.820171 552.572486" opacity="0.3" fill-rule="nonzero" fill="url(#linearGradient-11)" id="Path-10"></polygon>
            <g fill-rule="nonzero" transform="translate(260.086073, 108.950629)" id="编组-2">
                <g transform="translate(206.910166, 326.183414) rotate(1.000000) translate(-206.910166, -326.183414) translate(3.320171, 139.768314)" id="编组">
                    <circle r="17.2611791" cy="286.524304" cx="210.586385" fill="#8AB4F7" id="椭圆形备份-3"></circle>
                    <circle r="17.2611791" cy="322.77278" cx="17.2611791" fill="#8AB4F7" id="椭圆形备份-4"></circle>
                    <polygon points="98.8078646 295.87361 214.338541 313.220399 231.060515 308.759424 115.943321 291.633257" fill="#8AB4F7" id="路径-36"></polygon>
                    <polygon points="160.948109 283.790785 276.478785 301.137573 293.20076 296.676598 178.083566 279.550432" fill="#8AB4F7" id="路径-36备份-3"></polygon>
                    <polygon points="33.215384 307.956435 148.74606 330.481578 165.468035 326.020603 50.3508406 303.716083" fill="#8AB4F7" id="路径-36备份-2"></polygon>
                    <polygon points="222.992895 274.210731 335.884503 283.856236 332.925104 276.167017 220.707434 265.95747" fill="#8AB4F7" id="路径-36备份"></polygon>
                    <polygon points="127.864938 222.571745 101.660165 288.380104 109.899958 286.88277 135.851954 221.623889" fill="#8AB4F7" id="路径-30"></polygon>
                    <polygon points="249.121852 210.644028 221.274228 311.958978 229.351517 310.023335 256.67871 210.225001" fill="#8AB4F7" id="路径-27"></polygon>
                    <polygon points="199.28637 215.588529 212.624009 267.177325 14.4746818 305.741523 23.0448108 311.678848 222.980716 274.200354 207.126571 214.153743" fill="#8AB4F7" id="路径-31"></polygon>
                    <polygon points="301.519081 204.659537 334.243465 282.334843 109.197134 338.572731 122.270979 343.900416 347.660067 288.507253 311.310532 203.175598" fill="#8AB4F7" id="路径-32"></polygon>
                    <circle r="17.2611791" cy="355.569021" cx="112.197664" fill="#8AB4F7" id="椭圆形备份-5"></circle>
                    <circle r="17.2611791" cy="299.596023" cx="334.315322" fill="#8AB4F7" id="椭圆形备份-2"></circle>
                    <path fill="url(#linearGradient-12)" id="路径-37" d="M358.344733,54.8132689 L371.674302,37.2261002 L403.360038,32.4986914 C408.957846,27.4124941 408.403327,23.4840686 401.696479,20.7134149 C392.3447,22.0336571 379.989976,23.8940345 364.632306,26.2945472 L345.580295,51.7160173 L358.344733,54.8132689 Z"></path>
                    <path fill="url(#linearGradient-12)" id="路径-37备份-2" d="M253.051541,34.099854 L266.381109,16.5126853 L298.066845,11.7852765 C303.664654,6.69907915 303.110134,2.77065364 296.403287,0 C287.051508,1.3202422 274.696783,3.18061962 259.339113,5.58113226 L240.287103,31.0026023 L253.051541,34.099854 Z"></path>
                    <polygon points="2.72388939 99.366345 241.968013 27.3203377 241.89184 157.790688 21.0249209 197.072647" fill="url(#linearGradient-13)" id="路径-34"></polygon>
                    <polygon points="241.972265 27.3165348 241.605014 158.444076 305.704724 204.659537 358.480972 54.2074621" fill="url(#linearGradient-14)" id="路径-35"></polygon>
                    <polygon points="2.72388939 98.1219344 13.638566 201.030676 91.3293315 226.938115 91.3293315 115.864821" fill="url(#linearGradient-15)" id="路径-28"></polygon>
                    <polygon points="91.3293315 115.864821 358.480972 54.2074621 317.685715 204.659537 91.3293315 226.938115" fill="url(#linearGradient-16)" id="路径-29"></polygon>
                </g>
                <path transform="translate(115.398093, 78.474383) rotate(-23.000000) translate(-115.398093, -78.474383)" stroke="url(#linearGradient-17)" id="路径-20" d="M192.21034,94.6590431 C133.396956,99.9389385 87.5579809,92.920408 54.6934154,73.6034516 C28.6938741,57.6305327 36.5540722,25.8277871 61.2925202,25.8277871 C86.0309681,25.8277871 101.034693,41.5117682 101.034693,65.8794066 C101.034693,90.247045 84.8746325,118.596408 61.2925202,131.12098"></path>
                <path transform="translate(28.935757, 195.555228) rotate(-14.000000) translate(-28.935757, -195.555228)" fill="url(#linearGradient-18)" id="路径-18" d="M55.0567755,188.949416 C46.5624259,177.967612 36.0679223,177.967612 23.5732647,188.949416 C16.9651978,195.143323 12.606902,205.048798 2.81473881,205.048798 C33.5232115,215.754915 50.9372237,210.388455 55.0567755,188.949416 Z"></path>
                <path transform="translate(46.669032, 185.318982) rotate(-14.000000) translate(-46.669032, -185.318982)" stroke="url(#linearGradient-19)" id="路径-19" d="M66.3519252,176.118935 C63.2033154,182.2523 50.0813867,188.385664 26.9861391,194.519028"></path>
                <path transform="translate(407.396461, 110.112247) rotate(-10.000000) translate(-407.396461, -110.112247)" fill="url(#linearGradient-18)" id="路径-18备份" d="M433.517479,103.506435 C425.023129,92.5246305 414.528626,92.5246305 402.033968,103.506435 C395.425901,109.700342 391.067606,119.605817 381.275442,119.605817 C411.983915,130.311934 429.397927,124.945473 433.517479,103.506435 Z"></path>
                <path transform="translate(425.800583, 101.137946) rotate(-10.000000) translate(-425.800583, -101.137946)" stroke="url(#linearGradient-19)" id="路径-19备份" d="M445.483476,91.9378995 C442.334866,98.0712638 429.212937,104.204628 406.11769,110.337992"></path>
                <path transform="translate(417.494902, 63.146908) rotate(-12.000000) translate(-417.494902, -63.146908)" stroke="url(#linearGradient-20)" id="路径-22" d="M450.686626,54.1846889 C424.076137,66.1343138 401.948321,72.1091262 384.303178,72.1091262"></path>
            </g>
            <g transform="translate(539.970526, 398.784371)" id="人物">
                <ellipse ry="15.7156402" rx="49.1113758" cy="241.627969" cx="63.1171682" fill="#CCDCF6" id="椭圆形"></ellipse>
                <rect height="15.7156402" width="15.7156402" y="56.9691959" x="49.9805201" fill="url(#linearGradient-21)" id="矩形"></rect>
                <ellipse ry="4.91113758" rx="2.94668255" cy="44.2002382" cx="77.8505809" transform="translate(77.850581, 44.200238) rotate(22.000000) translate(-77.850581, -44.200238)" fill="#FEE0BC" id="椭圆形"></ellipse>
                <ellipse ry="4.91113758" rx="2.94668255" cy="44.2002382" cx="36.5970253" transform="translate(36.597025, 44.200238) scale(-1, 1) rotate(23.000000) translate(-36.597025, -44.200238)" fill="#FEE0BC" id="椭圆形备份-2"></ellipse>
                <circle r="19.6445503" cy="41.2535556" cx="57.8383403" fill="url(#linearGradient-22)" id="椭圆形"></circle>
                <path fill-rule="nonzero" fill="url(#linearGradient-23)" id="路径-52" d="M48.0203781,230.268863 L47.205821,235.592165 C43.8884996,235.695909 40.2809599,236.671023 36.383202,238.517506 C33.8750085,240.126729 33.7633757,240.855869 33.68263,242.241481 C33.6287996,243.165222 40.7154419,243.165222 54.9425567,242.241481 L54.9425567,228.317916 L48.0203781,230.268863 Z"></path>
                <path transform="translate(81.637087, 235.626101) scale(-1, 1) translate(-81.637087, -235.626101)" fill-rule="nonzero" fill="url(#linearGradient-23)" id="路径-52备份" d="M85.3450237,230.268863 L84.5304666,235.592165 C81.2131452,235.695909 77.6056055,236.671023 73.7078476,238.517506 C71.1996541,240.126729 71.0880212,240.855869 71.0072756,242.241481 C70.9534452,243.165222 78.0400874,243.165222 92.2672023,242.241481 L92.2672023,228.317916 L85.3450237,230.268863 Z"></path>
                <polygon points="40.4388989 133.010068 46.1089831 232.137535 57.2238031 231.980894 62.0257497 140.484017 69.5049798 231.941602 79.9550032 231.771782 82.7496652 133.224705" fill-rule="nonzero" fill="url(#linearGradient-24)" id="路径-49"></polygon>
                <path fill="#FEE0BC" id="路径-50" d="M103.020806,91.7161363 C104.48381,90.5530219 106.00188,90.1034907 107.575016,90.3675428 C108.637416,90.3916602 109.247438,90.1280616 109.405083,89.576747 C111.238084,89.2965295 111.971482,89.6530944 111.605276,90.6464416 C111.23907,91.6397889 110.778986,91.9963538 110.225024,91.7161363 L112.748918,92.8729308 L115.148203,91.1785975 C118.118289,91.2132587 119.24456,92.2106062 118.527015,94.17064 C117.282991,96.2186253 113.886104,98.7857856 109.405083,96.6475839 C108.422438,95.899995 107.528877,95.5615457 106.7244,95.632236 L103.020806,91.7161363 Z"></path>
                <path transform="translate(8.726965, 97.397746) scale(-1, 1) rotate(-19.000000) translate(-8.726965, -97.397746)" fill="#FEE0BC" id="路径-50备份" d="M0.869144386,95.6450463 C2.33214882,94.4819319 3.85021879,94.0324007 5.42335431,94.2964528 C6.48575401,94.3205702 7.09577626,94.0569717 7.25342107,93.5056571 C9.08642293,93.2254396 9.81982085,93.5820045 9.45361483,94.5753517 C9.08740881,95.568699 8.62732461,95.9252638 8.07336223,95.6450463 L10.5972566,96.8018408 L12.9965415,95.1075076 C15.9666275,95.1421688 17.0928981,96.1395163 16.3753531,98.09955 C15.1313292,100.147535 11.7344422,102.714696 7.25342107,100.576494 C6.27077614,99.828905 5.37721522,99.4904557 4.57273831,99.5611461 L0.869144386,95.6450463 Z"></path>
                <path fill="url(#linearGradient-25)" id="路径-48" d="M49.4105557,64.1999313 L59.1882581,70.6403446 L66.2702738,63.8169078 L87.5871157,71.7795397 L92.6996167,98.8857178 L102.897377,90.3649314 L109.706489,96.6006232 L93.9168136,120.314838 C89.3848034,125.144751 86.0094493,125.144751 83.7907513,120.314838 C83.2958016,117.498938 81.8737998,107.899107 79.5247461,91.5153466 L84.0612917,134.131044 L39.2042789,134.593956 L42.3336034,91.5317579 C41.723272,111.042801 38.8288518,120.63716 33.6503427,120.314838 C29.9422869,119.329395 22.2456745,113.686204 10.5605053,103.385264 L13.5244856,95.4330633 L27.5454611,102.803036 L30.4658648,76.3417855 L49.4105557,64.1999313 Z"></path>
                <ellipse ry="6.87559261" rx="8.84004764" cy="6.87559261" cx="56.2415756" fill="#483029" id="椭圆形"></ellipse>
                <path fill="#483029" id="路径-51" d="M35.4068525,43.2180107 C49.0284513,35.8264153 56.3698098,29.6950986 57.4309278,24.8240604 C59.7311815,31.4335389 73.8482438,41.6698326 79.4550032,41.5745226 C82.5568685,32.629732 83.4154155,24.2092747 73.6196459,15.9980261 C63.8238764,7.78677758 52.5286323,7.74063772 40.1561889,15.9980261 C31.8377794,22.9901816 30.2546673,32.0635097 35.4068525,43.2180107 Z"></path>
            </g>
        </g>
    </g>
</svg>