<svg viewBox="0 0 1211.74 1211.74" xmlns:xlink="http://www.w3.org/1999/xlink" xmlns="http://www.w3.org/2000/svg"><defs><style>.a,.s,.v{fill:none;}.b{fill:#009fe8;}.c{fill:#99a5e8;}.d{fill:#fce4d6;}.e{fill:#231815;}.f{fill:#e6ae8b;}.g{clip-path:url(#a);}.h{fill:#036eb7;}.i{fill:#fff;}.j{fill:#f09dc1;}.k{clip-path:url(#b);}.l{fill:#7dccf3;}.m{clip-path:url(#c);}.n{opacity:0.5;}.o{fill:#ffe791;}.p{fill:#a9aaaa;}.q{fill:#a9b0b0;}.r{clip-path:url(#d);}.s{stroke:#fff;}.s,.v{stroke-linecap:round;stroke-linejoin:round;stroke-width:3.78px;}.t{fill:#ca0915;}.u{clip-path:url(#e);}.v{stroke:#231815;}</style><clipPath id="a"><path d="M800.63,1200.52H322.17s3.29-77.24,20.4-119a60.51,60.51,0,0,1,21.91-26.75c37.73-25.85,80.8-39.47,120.46-46.66V853.41H637.83v154.71c39.66,7.19,82.76,20.81,120.49,46.66a60.51,60.51,0,0,1,21.91,26.75C797.34,1123.28,800.63,1200.52,800.63,1200.52Z" class="a"></path></clipPath><clipPath id="b"><path d="M645,625.06s-62.2-18.47-142.57-15c0,0-12,98.07,83.35,95a51.11,51.11,0,0,0,33.31-13.45C631.66,680,646.2,659,645,625.06Z" class="a"></path></clipPath><clipPath id="c"><path d="M720.53,625.06s45.23-18.47,103.67-15c0,0,8.75,98.07-60.6,95-8.89-.4-17.53-4.89-24.23-13.45C730.26,680,719.68,659,720.53,625.06Z" class="a"></path></clipPath><clipPath id="d"><path d="M310.93,545.29l5.69,39.5s26.12-7.7,52.23,8.37c0,0,153.24-115.08,447.53-133.31l-16.73-69.13S538.94,377,310.93,545.29Z" class="b"></path></clipPath><clipPath id="e"><path d="M478.83,970.45s50.37,19.4,88.89,18.92v48.52S509,1041.4,467.28,1010Zm165.85,0s-40.48,19.4-71.43,18.92v48.52s47.19,3.51,80.71-27.9Z" class="a"></path></clipPath></defs><rect height="1211.74" width="1211.74" class="c"></rect><path d="M322.17,1204.3a3.76,3.76,0,0,1-2.73-1.17,3.71,3.71,0,0,1-1.05-2.77c.13-3.19,3.52-78.39,20.67-120.26a64.19,64.19,0,0,1,23.27-28.44c32.43-22.21,72.39-37.91,118.82-46.69V853.41a3.79,3.79,0,0,1,3.79-3.78H637.83a3.78,3.78,0,0,1,3.78,3.78V1005c46.47,8.78,86.44,24.48,118.85,46.69a64.15,64.15,0,0,1,23.28,28.44c17.15,41.87,20.54,117.07,20.67,120.26a3.71,3.71,0,0,1-1,2.77,3.76,3.76,0,0,1-2.73,1.17Z" class="d"></path><path d="M637.83,853.41v154.71c39.66,7.19,82.76,20.81,120.49,46.66a60.51,60.51,0,0,1,21.91,26.75c17.11,41.75,20.4,119,20.4,119H322.17s3.29-77.24,20.4-119a60.51,60.51,0,0,1,21.91-26.75c37.73-25.85,80.8-39.47,120.46-46.66V853.41H637.83m0-7.57H484.94a7.57,7.57,0,0,0-7.57,7.57v148.43c-45.64,9-85,24.68-117.17,46.69a68,68,0,0,0-24.64,30.13c-17.4,42.48-20.82,118.33-20.95,121.53a7.55,7.55,0,0,0,7.56,7.89H800.63a7.55,7.55,0,0,0,7.56-7.89c-.13-3.2-3.55-79-21-121.53a68,68,0,0,0-24.63-30.12c-32.14-22-71.54-37.71-117.22-46.7V853.41a7.56,7.56,0,0,0-7.56-7.57Z" class="e"></path><path d="M637.65,860.08V970.45c-114.51-27.89-152.89-89.74-152.89-89.74V837.84L583,852.13Z" class="f"></path><g class="g"><rect rx="1.89" height="262.23" width="574.07" y="997.44" x="270.29" class="h"></rect><path d="M842.47,999.33v258.45H272.18V999.33H842.47m0-3.78H272.18a3.78,3.78,0,0,0-3.78,3.78v258.45a3.78,3.78,0,0,0,3.78,3.78H842.47a3.79,3.79,0,0,0,3.79-3.78V999.33a3.79,3.79,0,0,0-3.79-3.78Z" class="e"></path><rect rx="1.89" height="213.32" width="46.89" y="994.52" x="550.04" class="i"></rect><path d="M595,996.41V1206H551.93V996.41H595m0-3.78H551.93a3.78,3.78,0,0,0-3.78,3.78V1206a3.78,3.78,0,0,0,3.78,3.78H595a3.78,3.78,0,0,0,3.78-3.78V996.41a3.78,3.78,0,0,0-3.78-3.78Z" class="e"></path><rect rx="1.89" height="213.32" width="13.3" y="994.52" x="566.84" class="h"></rect><path d="M578.24,996.41V1206h-9.51V996.41h9.51m0-3.78h-9.51a3.79,3.79,0,0,0-3.79,3.78V1206a3.79,3.79,0,0,0,3.79,3.78h9.51A3.78,3.78,0,0,0,582,1206V996.41a3.78,3.78,0,0,0-3.78-3.78Z" class="e"></path><path d="M365.78,1219.89h-.2L300.19,1213a1.88,1.88,0,0,1-1.69-1.8l-3.72-89.85c0-.11,0-.21,0-.32l12.74-99.64a1.83,1.83,0,0,1,.23-.68c.29-.52,7.17-12.83,13.19-17.89s86.26-21.24,102.31-24.45a2.21,2.21,0,0,1,.37,0,1.33,1.33,0,0,1,.28,0l73.69,11.3a1.89,1.89,0,0,1,1.56,2.25L492.62,1024a1.89,1.89,0,0,1-1.73,1.51,136.2,136.2,0,0,0-37.77,9.47c-18.29,7.49-42.39,22.5-53.3,51.46a1.87,1.87,0,0,1-1.25,1.15c-.16,0-16.89,5.21-24.94,31.89-8.3,27.51-6,97.71-6,98.41a1.89,1.89,0,0,1-1.89,2Z" class="i"></path><path d="M423.63,980.19l73.68,11.3-6.55,32.18s-71.1,4.76-92.71,62.14c0,0-17.74,5-26.23,33.16s-6,99-6,99l-65.39-6.92-3.72-89.85,12.74-99.64s6.94-12.46,12.76-17.36,101.46-24,101.46-24m0-3.79a3.82,3.82,0,0,0-.75.08c-.24,0-24.22,4.85-48.61,10.2-50.19,11-53.13,13.47-54.54,14.66-6.28,5.28-13.33,17.87-13.63,18.41a3.81,3.81,0,0,0-.44,1.36l-12.74,99.64a3.39,3.39,0,0,0,0,.64l3.71,89.85a3.78,3.78,0,0,0,3.39,3.6l65.4,6.92.39,0a3.79,3.79,0,0,0,3.79-3.91c0-.71-2.34-70.59,5.87-97.8,7.71-25.55,23-30.43,23.67-30.62a3.73,3.73,0,0,0,2.48-2.3c8.55-22.71,26.1-39.65,52.14-50.34a134.23,134.23,0,0,1,37.29-9.37,3.79,3.79,0,0,0,3.45-3L501,992.25a3.8,3.8,0,0,0-3.14-4.5l-73.68-11.3a3.66,3.66,0,0,0-.57-.05Z" class="e"></path><path d="M782.83,1212.37a1.91,1.91,0,0,1-1.18-.42,1.86,1.86,0,0,1-.7-1.36c-.05-.73-4.5-73-12.15-100.63-7.42-26.77-24.79-33.87-25-33.94a1.88,1.88,0,0,1-1.1-1.14c-8-23.12-27.39-39.56-57.65-48.87A165.77,165.77,0,0,0,641,1018.9a1.88,1.88,0,0,1-1.53-.78,1.91,1.91,0,0,1-.28-1.7l10.9-34a1.86,1.86,0,0,1,1.49-1.29l67.62-11.31.31,0a1.81,1.81,0,0,1,.4,0c14.74,3.22,88.55,19.51,94,24.5s11.85,17.37,12.11,17.89a2.07,2.07,0,0,1,.2.64l11.69,99.64c0,.1,0,.2,0,.29l-3.41,89.85a1.9,1.9,0,0,1-1.6,1.8l-49.81,7.85Z" class="i"></path><path d="M719.55,971.73s87.77,19.15,93.11,24,11.71,17.36,11.71,17.36l11.69,99.64-3.41,89.85-49.82,7.86s-4.42-72.89-12.21-101-26.1-35.2-26.1-35.2C724.78,1017.13,641.76,1017,641,1017h0l10.9-34,67.62-11.3m0-3.79a3.36,3.36,0,0,0-.63.06l-67.61,11.3a3.77,3.77,0,0,0-3,2.58l-10.9,34a3.79,3.79,0,0,0,3.6,4.94,166.86,166.86,0,0,1,43.5,7c29.66,9.13,48.64,25.16,56.42,47.67a3.76,3.76,0,0,0,2.21,2.3c.66.26,16.68,6.93,23.81,32.68,7.6,27.42,12,99.51,12.09,100.24a3.78,3.78,0,0,0,1.4,2.72,3.82,3.82,0,0,0,2.37.83,2.88,2.88,0,0,0,.59,0l49.82-7.85a3.79,3.79,0,0,0,3.19-3.59l3.41-89.85a3.88,3.88,0,0,0,0-.59l-11.69-99.64a4,4,0,0,0-.39-1.28c-.28-.54-6.75-13.13-12.52-18.43-1.32-1.2-4.07-3.72-50.24-14.75-22.39-5.34-44.41-10.15-44.63-10.2a3.57,3.57,0,0,0-.8-.09Z" class="e"></path></g><path d="M572.39,673.1c-19.53,0-35.43-16.4-35.43-36.55S552.86,600,572.39,600s35.42,16.4,35.42,36.55S591.92,673.1,572.39,673.1Z" class="i"></path><path d="M572.39,601.89c18.51,0,33.53,15.52,33.53,34.66s-15,34.65-33.53,34.65-33.53-15.51-33.53-34.65,15-34.66,33.53-34.66m0-3.78c-20.58,0-37.32,17.24-37.32,38.44S551.81,675,572.39,675s37.31-17.25,37.31-38.44S593,598.11,572.39,598.11Z" class="e"></path><ellipse ry="36.55" rx="28.97" cy="636.55" cx="785.22" class="i"></ellipse><path d="M785.22,601.89c14.95,0,27.07,15.52,27.07,34.66s-12.12,34.65-27.07,34.65-27.08-15.51-27.08-34.65,12.12-34.66,27.08-34.66m0-3.78c-17,0-30.87,17.24-30.87,38.44S768.2,675,785.22,675s30.86-17.25,30.86-38.44-13.85-38.44-30.86-38.44Z" class="e"></path><path d="M643.55,914.23a407.47,407.47,0,0,1-57.72-4.45c-131.6-19-223.07-118.87-244.69-267.17-3.14-21.57-5.09-40.79-5.94-58.75-3.93-77.45,12.14-134.81,49.1-175.34,20.26-22.21,47.34-39.73,80.48-52.07,35.47-13.22,79.19-21,129.94-23.07,7.15-.3,14.21-.45,21-.45,56.24,0,99.78,9.94,133.13,30.38,30.46,18.67,52.38,46.2,67,84.17C835,497.12,840.22,560,842.23,639.17c2.67,107-17.11,180.69-60.49,225.17a155,155,0,0,1-59.27,37.6C699.71,910.1,673.16,914.23,643.55,914.23Z" class="d"></path><path d="M615.71,336.72c114.54,0,169.63,42.13,196.59,112.12,19.52,50.67,24.25,116,26.15,190.43,4.61,184.78-58.85,271.18-194.9,271.18A400.35,400.35,0,0,1,586.37,906c-130.3-18.81-220.1-117.32-241.49-264-2.87-19.76-5-39.32-5.9-58.39-6.55-129.2,39.58-237.59,255.9-246.52q10.73-.44,20.83-.44m0-7.57v0c-6.85,0-14,.15-21.15.45-51.15,2.11-95.26,9.95-131.11,23.3-33.71,12.55-61.28,30.41-81.95,53.07-20.1,22-34.36,49.4-42.39,81.34-7.06,28.06-9.58,59.71-7.7,96.75.86,18.07,2.81,37.41,6,59.1,5.39,36.94,15.15,71.41,29,102.46,13.74,30.76,31.5,58.17,52.79,81.48a269.2,269.2,0,0,0,74,57.08,286.18,286.18,0,0,0,92.12,29.34,409.51,409.51,0,0,0,58.27,4.5c30,0,57-4.21,80.2-12.52A158.53,158.53,0,0,0,784.45,867c22.06-22.63,38.39-53.37,48.53-91.36,10-37.38,14.36-83.32,13-136.54-2-79.55-7.33-142.81-26.65-193-14.93-38.77-37.35-66.92-68.55-86-34-20.81-78.14-30.93-135.09-30.93Z" class="e"></path><path d="M679,854.37a1.9,1.9,0,0,1-1.59-.87,1.93,1.93,0,0,1-.1-1.89l22.42-44a1.89,1.89,0,0,1,1.69-1h.22a1.9,1.9,0,0,1,1.62,1.43l10.34,42.25a1.89,1.89,0,0,1-.31,1.58,1.91,1.91,0,0,1-1.42.76Z" class="j"></path><path d="M701.4,808.5l10.35,42.25L679,852.47l22.42-44m0-3.79a3.78,3.78,0,0,0-3.37,2.07l-22.42,44a3.79,3.79,0,0,0,3.37,5.5h.2L712,854.53a3.79,3.79,0,0,0,3.47-4.68L705.08,807.6a3.78,3.78,0,0,0-3.24-2.86l-.44,0Z" class="e"></path><path d="M354,782.35c-28.19,0-55.95-24.25-74.26-64.87-17.66-39.2-14.42-85,7.71-109,12.57-13.59,29-21.08,46.36-21.08,25.86,0,55.71,18.13,64.12,58.63,6.84,32.91,8.9,70.32,5.15,93.09-1.64,9.94-9.55,30.8-27.74,38.65A53.68,53.68,0,0,1,354,782.35Z" class="d"></path><path d="M333.81,591.21c26.72,0,52.86,19.25,60.42,55.62,6.78,32.65,8.74,69.7,5.11,91.7-1.68,10.19-9.6,28.94-25.5,35.79A49.7,49.7,0,0,1,354,778.57c-28.21,0-54-25.45-70.81-62.65-16.83-37.36-14.26-81.8,7-104.84,12.37-13.39,28.07-19.87,43.58-19.87m0-7.57c-18.39,0-35.84,7.92-49.14,22.3-11.43,12.37-18.46,30.73-19.81,51.71A131.61,131.61,0,0,0,276.29,719c8.89,19.71,20.27,36.23,32.92,47.76,13.88,12.65,29.37,19.35,44.79,19.35a57.42,57.42,0,0,0,22.84-4.87c19.69-8.49,28.22-30.86,30-41.5,3.83-23.19,1.75-61.16-5.17-94.48-3.91-18.81-12.72-34.59-25.48-45.63a64.87,64.87,0,0,0-42.35-16Z" class="e"></path><path d="M391,615.87l-.77.51a3.86,3.86,0,0,1,.58,1,3.78,3.78,0,0,1-2.38,4.78,3.74,3.74,0,0,1-4.42-1.74l-.87.57,11.59,107,5.8.71a3.76,3.76,0,0,1,7.3-.76,3.58,3.58,0,0,1,.13,1.68l.36,0C432,664.44,391,615.87,391,615.87Z" class="d"></path><path d="M296.51,638.91a2.56,2.56,0,0,0,4.94.83c2.48-6.74,7.78-17.53,19.26-16.16,19.33,2.32-2.91,34.2-7,71.18-5.66,51.48,48.66,64.67,62.25,34.93,16.2-35.48-27-42.35-22.64-56.91,12.69-42.85-11.81-61.42-24.6-62.15C314.23,609.8,296,621.57,296.51,638.91Z" class="f"></path><path d="M645.11,622.6s-76.07-32.33-167.76-20c0,0,21.62,78.81,62.18,93.25Z" class="e"></path><path d="M581.5,707c-26.46,0-47-8-60.91-23.78-25.18-28.46-20.22-71.61-20-73.43a1.89,1.89,0,0,1,1.8-1.66c6.64-.29,13.43-.43,20.18-.43,69.87,0,122.49,15.38,123,15.54a1.9,1.9,0,0,1,1.35,1.75c1.19,34.7-13.76,56.12-26.51,68a53.12,53.12,0,0,1-34.54,14c-1.47,0-3,.07-4.38.07Z" class="i"></path><path d="M522.57,609.6C593,609.6,645,625.06,645,625.06c1.16,34-13.38,54.89-25.91,66.54a51.11,51.11,0,0,1-33.31,13.45c-1.47,0-2.9.07-4.32.07-90.68,0-79-95.09-79-95.09,6.84-.3,13.55-.43,20.1-.43m0-3.79c-6.78,0-13.59.15-20.26.43a3.8,3.8,0,0,0-3.6,3.33,119,119,0,0,0,.43,26.34c2.41,19.7,9.34,36.5,20,48.58,14.33,16.2,35.3,24.41,62.32,24.41,1.45,0,3,0,4.44-.07a55,55,0,0,0,35.76-14.46c13-12.13,28.34-34,27.12-69.44a3.77,3.77,0,0,0-2.7-3.49c-.53-.16-53.41-15.63-123.55-15.63Z" class="e"></path><g class="k"><path d="M553.83,690c-21.25,0-38.9-21.45-40.2-48.82-.63-13.43,2.8-26.27,9.66-36.15,7-10,16.64-15.84,27.23-16.34.48,0,1,0,1.46,0,21.25,0,38.91,21.44,40.2,48.81,1.32,27.92-15.23,51.47-36.88,52.49C554.81,689.93,554.32,690,553.83,690Z" class="l"></path><path d="M552,590.5c20.06,0,37.07,20.69,38.31,47,1.27,26.92-14.44,49.53-35.08,50.51l-1.38,0c-20.06,0-37.06-20.69-38.31-47-1.27-26.92,14.44-49.53,35.08-50.51l1.38,0m0-3.79h0l-1.55,0c-11.19.53-21.38,6.62-28.69,17.15-7.1,10.22-10.65,23.47-10,37.32,1.34,28.38,19.83,50.62,42.09,50.62.52,0,1,0,1.56,0,11.18-.53,21.37-6.62,28.69-17.15,7.09-10.22,10.64-23.47,10-37.32C592.73,609,574.24,586.71,552,586.71Z" class="e"></path><ellipse transform="translate(-29.01 26.76) rotate(-2.7)" ry="37.42" rx="28.7" cy="627.91" cx="552.37" class="b"></ellipse><circle r="11.87" cy="631.87" cx="531.05" class="i"></circle><circle r="8.46" cy="667.26" cx="570.79" class="i"></circle></g><path d="M644.91,559.87a238.49,238.49,0,0,1-38.67,3.06c-7.63-.24-15.2-1.29-22.86-1.31-12.7.11-25.83.67-38.49,1.92-5.15.53-10.33,1-15.46,1.75l-7.77,1a.76.76,0,0,1-.38-1.47,278,278,0,0,1,61.32-15.25c7.92-.83,15.9-2.54,23.93-2.37a78.4,78.4,0,0,1,16,2,76.43,76.43,0,0,1,7.85,2.12,54.83,54.83,0,0,1,14.94,7.15.82.82,0,0,1-.39,1.47Z" class="e"></path><path d="M720.48,622.6s55.31-32.33,122-20c0,0-15.72,78.81-45.22,93.25Z" class="e"></path><path d="M766.74,707c-1.06,0-2.15,0-3.23-.07-9.71-.43-18.81-5.47-25.63-14.18-9.25-11.83-20.1-33.19-19.24-67.74a1.9,1.9,0,0,1,1.17-1.71c.39-.15,38.8-15.6,89.78-15.6,4.92,0,9.88.14,14.73.43a1.88,1.88,0,0,1,1.77,1.72c.19,2.18,4.47,53.68-20.48,80.95C795.77,701.56,782.7,707,766.74,707Z" class="i"></path><path d="M809.59,609.6c4.76,0,9.64.13,14.61.43,0,0,8.48,95.09-57.47,95.09-1,0-2.07,0-3.13-.07-8.89-.4-17.53-4.89-24.23-13.45C730.26,680,719.68,659,720.53,625.06c0,0,37.86-15.46,89.06-15.46m0-3.78v0c-51.35,0-88.92,15.1-90.49,15.74a3.78,3.78,0,0,0-2.35,3.41c-.88,35.11,10.2,56.88,19.64,69,7.16,9.15,16.76,14.44,27,14.9,1.11,0,2.22.07,3.3.07,16.52,0,30.07-5.66,40.27-16.81,25.51-27.88,21.17-80.19,21-82.4a3.77,3.77,0,0,0-3.54-3.44c-4.89-.29-9.88-.43-14.84-.43Z" class="e"></path><g class="m"><path d="M755.05,692.61c-.37,0-.75,0-1.13,0-16-1-28.23-24.57-27.27-52.46.94-27.39,14-48.84,29.74-48.84.38,0,.75,0,1.13,0,16,1,28.23,24.57,27.27,52.46-.93,27.38-14,48.84-29.74,48.84Z" class="l"></path><path d="M756.39,593.16c.33,0,.67,0,1,0,15,1,26.44,23.59,25.51,50.51-.9,26.32-13.27,47-27.85,47-.33,0-.67,0-1,0-15-1-26.44-23.59-25.51-50.51.9-26.32,13.27-47,27.85-47m0-3.78c-8.45,0-16.38,5.5-22.31,15.48-5.56,9.36-8.87,21.85-9.33,35.18-1,29.39,11.75,53.3,29,54.42.42,0,.84,0,1.25,0,8.45,0,16.38-5.5,22.31-15.49,5.56-9.35,8.87-21.84,9.33-35.18,1-29.39-11.75-53.29-29.05-54.41-.41,0-.83,0-1.25,0Z" class="e"></path><ellipse transform="translate(110.16 1373.6) rotate(-88.82)" ry="20.88" rx="37.41" cy="630.58" cx="756.11" class="b"></ellipse><ellipse ry="11.87" rx="8.63" cy="634.54" cx="771.62" class="i"></ellipse><ellipse ry="8.46" rx="6.15" cy="669.92" cx="742.72" class="i"></ellipse></g><path d="M720.23,558.42c7.27-7.35,18.22-10.86,28.27-11.26,6-.17,12,1.54,17.87,2.4,3.9.78,7.79,1.45,11.6,2.52a156.75,156.75,0,0,1,22.18,7.68c3.56,1.57,7,3.32,10.49,5a.76.76,0,0,1,.34,1,.76.76,0,0,1-.84.41c-7.41-1.24-15.11-2.66-22.56-3.33s-15-1.17-22.28-1.27c-5.53,0-10.93,1.06-16.41,1.3a107,107,0,0,1-13.62-.78,123.32,123.32,0,0,1-14.53-2.3.86.86,0,0,1-.51-1.43Z" class="e"></path><g class="n"><path d="M608.08,722.85c-53.68,0-106.73-18.08-157.68-53.75a3.77,3.77,0,0,1-1.61-3.18l1.42-69.42a3.78,3.78,0,0,1,3.78-3.71l449.11.38a3.79,3.79,0,0,1,3.78,3.86l-1.43,70a3.81,3.81,0,0,1-1.16,2.65c-.55.53-13.79,13.21-36.1,26-20.62,11.85-53.17,26-91.09,26-26,0-51.42-6.57-75.61-19.53C693.19,706.55,658.82,722.85,608.08,722.85Z" class="b"></path><path d="M454,596.57,903.1,597l-1.44,70s-52.77,51-124.56,51c-23.55,0-49.15-5.49-75.61-20.06,0,0-36.42,21.19-93.41,21.19-42.55,0-96.57-11.8-155.51-53.06L454,596.57m0-7.57a7.56,7.56,0,0,0-7.56,7.42L445,665.85a7.57,7.57,0,0,0,3.23,6.35c27.89,19.52,56.82,34,86,43a249.77,249.77,0,0,0,73.85,11.39c48.43,0,82.34-14.67,93.38-20.18,24.22,12.64,49.64,19,75.64,19,38.76,0,71.95-14.4,93-26.49,22.72-13,36.28-26,36.85-26.59a7.56,7.56,0,0,0,2.31-5.29l1.44-70a7.56,7.56,0,0,0-7.56-7.72L454,589Z" class="e"></path></g><path d="M773.93,732.54a131.29,131.29,0,0,1-24.16-2.25c-23.59-4.47-39.68-14.81-48.19-21.67-10.33,6.79-30.19,17.19-59.68,21.55a191,191,0,0,1-27.87,2c-51.46,0-108.13-18.48-168.45-54.93a11.55,11.55,0,0,1-5.55-9.85l.13-72.84a11.5,11.5,0,0,1,11.48-11.46l451.27.77a11.5,11.5,0,0,1,11.47,11.5l-.13,72.84a11.5,11.5,0,0,1-4.59,9.16c-48.75,36.63-94.34,55.19-135.5,55.19Zm-71.56-50.27c.22,0,.45,0,.67,0a11.54,11.54,0,0,1,8,4c.11.11,15.07,16.49,44,21.66a105.13,105.13,0,0,0,18.46,1.59c34.77,0,75.47-16.29,117.78-47.13l.1-55.57-428.29-.73L463,660.88C517.6,693,568.38,709.2,614,709.2h0a169,169,0,0,0,23.41-1.58c37.69-5.29,57.08-22.21,57.27-22.38a11.47,11.47,0,0,1,7.71-3Z" class="o"></path><path d="M451.64,586.86h0l451.26.77a7.69,7.69,0,0,1,7.68,7.71l-.12,72.84a7.72,7.72,0,0,1-3.08,6.15c-48.18,36.19-92.88,54.43-133.23,54.43h-.23a126.37,126.37,0,0,1-23.45-2.19c-24.81-4.7-41-16-48.67-22.68-9.16,6.42-29.24,17.92-60.46,22.54a186.2,186.2,0,0,1-27.33,2c-39.65,0-95.57-11.53-166.49-54.39a7.68,7.68,0,0,1-3.71-6.6l.12-72.84a7.7,7.7,0,0,1,7.7-7.69M614,713a172.42,172.42,0,0,0,23.95-1.62c39.23-5.51,59.07-23.14,59.27-23.32a7.76,7.76,0,0,1,5.18-2h0l.45,0a7.67,7.67,0,0,1,5.38,2.65c.12.14,15.6,17.44,46.18,22.91a108.13,108.13,0,0,0,19.13,1.66c36.15,0,77.69-16.69,121.57-49l.1-61.28-435.85-.74L459.22,663c66.41,39.38,118.25,50,154.73,50m-162.3-133.7h0a15.3,15.3,0,0,0-15.27,15.25l-.12,72.84a15.34,15.34,0,0,0,7.37,13.09c33.12,20,65.67,34.84,96.73,44C566,732.1,590.74,736,614,736a194.57,194.57,0,0,0,28.44-2c28.13-4.17,47.76-13.73,58.9-20.67A114,114,0,0,0,749.07,734a136.18,136.18,0,0,0,24.85,2.32h.24c42,0,88.35-18.83,137.78-56a15.36,15.36,0,0,0,6.1-12.19l.12-72.83a15.26,15.26,0,0,0-15.24-15.3l-451.26-.77Zm15.15,79.42.08-48.85,420.72.71-.09,49.87c-41.1,29.64-80.45,45.28-114,45.28a101.54,101.54,0,0,1-17.8-1.54c-27-4.82-41.22-19.81-41.86-20.49a15.36,15.36,0,0,0-10.56-5.18l-.91,0a15.32,15.32,0,0,0-10.26,3.93c-.48.42-19.22,16.4-55.28,21.46A164.51,164.51,0,0,1,614,705.42c-44.37,0-93.86-15.71-147.15-46.71Z" class="e"></path><path d="M406.6,706.42a3.76,3.76,0,0,1-3.78-3.89c1.29-43.52-7.59-75.41-26.4-94.78-17.25-17.77-38.61-20.42-49.8-20.42a52.39,52.39,0,0,0-6.78.38,3.66,3.66,0,0,1-.57,0,3.79,3.79,0,0,1-3.67-2.86c-10.68-42.29-14.47-81.81-11.27-117.45,2.58-28.65,9.64-54.87,21-77.95,19.46-39.51,44.53-55.93,45.58-56.61a4.23,4.23,0,0,1,.47-.25c13.44-6.17,33.18-9.3,58.66-9.3a332.35,332.35,0,0,1,37.71,2.15,3.8,3.8,0,0,1,3.3,4L463.33,467.8a3.77,3.77,0,0,1-.65,1.92l-32.27,47.36,2.82,185.5a3.74,3.74,0,0,1-1.08,2.71,3.78,3.78,0,0,1-2.7,1.13Z" class="p"></path><path d="M430.05,327.12a328.2,328.2,0,0,1,37.23,2.13l-7.73,138.34-32.94,48.35,2.84,186.7H406.6c3.25-109.54-58.37-119.09-80-119.09a54.4,54.4,0,0,0-7.35.42C272.91,400.38,373,336.08,373,336.08c15.49-7.12,38-9,57.08-9m0-7.57c-26,0-46.3,3.25-60.24,9.65a8.4,8.4,0,0,0-.93.51c-1.09.7-27,17.68-46.93,58.12-11.58,23.5-18.77,50.17-21.39,79.28-3.24,36.07.59,76,11.37,118.72a7.57,7.57,0,0,0,7.33,5.71,7.65,7.65,0,0,0,1.16-.09h0a48.27,48.27,0,0,1,6.2-.34c10.6,0,30.8,2.51,47.08,19.27C391.77,629,400.29,660,399,702.41a7.58,7.58,0,0,0,7.57,7.8h22.85a7.58,7.58,0,0,0,7.57-7.69l-2.81-184.29,31.6-46.38a7.64,7.64,0,0,0,1.3-3.84l7.73-138.34a7.57,7.57,0,0,0-6.6-7.93,332.87,332.87,0,0,0-38.19-2.19Z" class="e"></path><path d="M368.85,597a3.76,3.76,0,0,1-2-.57,66,66,0,0,0-34.54-9.65,58.68,58.68,0,0,0-14.63,1.69,3.53,3.53,0,0,1-1.06.15,3.78,3.78,0,0,1-3.75-3.24l-5.69-39.5a3.75,3.75,0,0,1,1.5-3.58c84-62,181.7-106.53,290.34-132.33,88.35-21,159.58-23.26,186.11-23.26,9.39,0,14.5.27,14.71.28a3.78,3.78,0,0,1,3.48,2.89L820.06,459a3.78,3.78,0,0,1-3.44,4.66C665.28,473,552.22,508.55,484,536.71c-73.9,30.52-112.51,59.19-112.89,59.48A3.8,3.8,0,0,1,368.85,597Z" class="q"></path><path d="M785.14,390.45c9.4,0,14.51.27,14.51.27l16.73,69.13C522.09,478.08,368.85,593.16,368.85,593.16A69.4,69.4,0,0,0,332.32,583a61.11,61.11,0,0,0-15.7,1.84l-5.69-39.5C507.05,400.57,727.34,390.45,785.14,390.45m0-7.57c-26.66,0-98.24,2.28-187,23.35A852.32,852.32,0,0,0,456.62,453.1a766.4,766.4,0,0,0-150.18,86.1,7.58,7.58,0,0,0-3,7.17l5.69,39.5a7.58,7.58,0,0,0,7.5,6.49,7.42,7.42,0,0,0,2.13-.31,55.63,55.63,0,0,1,13.56-1.53,62.11,62.11,0,0,1,32.56,9.09,7.57,7.57,0,0,0,8.51-.4c.38-.28,38.82-28.79,112.38-59.13,67.89-28,180.43-63.34,331.08-72.67a7.58,7.58,0,0,0,6.89-9.34L807,388.94a7.56,7.56,0,0,0-7-5.78c-.22,0-5.42-.28-14.91-.28Z" class="e"></path><path d="M310.93,545.29l5.69,39.5s26.12-7.7,52.23,8.37c0,0,153.24-115.08,447.53-133.31l-16.73-69.13S538.94,377,310.93,545.29Z" class="b"></path><g class="r"><path d="M331.14,607a1.72,1.72,0,0,1-.39,0l-17.61-3.64a1.89,1.89,0,0,1-1.51-1.82l-.61-37a1.91,1.91,0,0,1,.62-1.43c40-36.17,90.43-67.32,149.83-92.58,47.48-20.19,100.78-36.69,158.43-49,98.13-21,175.92-22.73,176.69-22.74h0a1.89,1.89,0,0,1,1.84,1.45l11.09,46a1.89,1.89,0,0,1-1.69,2.33c-172.54,13.74-292.63,56-363,88.94-76.23,35.74-112.11,68.65-112.47,69A1.87,1.87,0,0,1,331.14,607Z" class="i"></path><path d="M796.63,400.6l11.09,46C472.92,473.3,331.14,605.07,331.14,605.07l-17.62-3.64-.61-37c174.74-158,483.72-163.86,483.72-163.86m0-3.78h-.08c-.77,0-78.74,1.72-177,22.78C561.74,432,508.32,448.5,460.73,468.74c-59.6,25.34-110.18,56.6-150.36,92.92a3.76,3.76,0,0,0-1.24,2.87l.61,37a3.79,3.79,0,0,0,3,3.65l17.61,3.63a3.36,3.36,0,0,0,.77.08,3.75,3.75,0,0,0,2.57-1c.35-.33,36.15-33.13,112.18-68.75,70.19-32.89,190-75,362.13-88.68a3.78,3.78,0,0,0,3.38-4.66l-11.1-46a3.77,3.77,0,0,0-3.67-2.89Z" class="e"></path></g><path d="M282.6,649.23a3.78,3.78,0,0,1-3.58-2.58c-23-68.76-31.34-131.53-24.66-186.57,5.36-44.22,20.35-83.57,44.53-116.95,41.2-56.88,94.07-76.33,96.3-77.13a3.79,3.79,0,0,1,1.27-.23,3.78,3.78,0,0,1,3.17,5.86c-.56.87-1.12,1.74-1.67,2.62q25.25-36.76,66.07-61.33c55.45-33.29,117.6-40.27,160-40.27,6,0,12.15.14,18.19.42,39.26,1.84,114.27,11.5,175.64,55.48,27.7,19.85,49.39,44.48,64.47,73.22,16.87,32.15,25.6,69.74,25.93,111.73.85,107.58-43.85,155.67-87.09,202.16-5.32,5.73-10.82,11.64-16.08,17.52a3.78,3.78,0,0,1-5.93-4.68c38.17-55.19,54.77-109.86,60.88-155.8a55.6,55.6,0,0,1-2.84,8.81c-17.46,68.37-53.48,98.48-55,99.73a3.78,3.78,0,0,1-5.77-4.64,351.33,351.33,0,0,0,37.68-140.55c-3.77,48-15.09,84.62-26.23,110.16-19.77,45.34-42.74,66.23-43.71,67.1a3.79,3.79,0,0,1-5.6-5c26.56-36.95,36.23-75.53,28.73-114.68-10-52.15-49.22-93.86-73.16-109.17C698.1,374.19,682.23,369,667,369a62.27,62.27,0,0,0-43,16.91c-29.08,27.51-42.75,28-61.67,28.65-5.2.19-10.59.38-16.91,1.15-51.95,6.38-87.94,49-109,83.71a347.57,347.57,0,0,0-33.84,75.33,3.8,3.8,0,0,1-3.64,2.75h-.24a3.78,3.78,0,0,1-3.5-3.2c-7.48-48.54-5.49-86.65.21-115.67C373,517,369.32,573.2,369.28,573.94a3.78,3.78,0,0,1-7.18,1.43c-26-53.14-26.8-98.81-22-129.58-17.29,61.83-8.06,131.84-7.93,132.77a3.79,3.79,0,0,1-7.21,2.05c-18.56-41.7-24.61-75.42-25.24-100.77-16.58,75.73-13.34,164.38-13.3,165.46a3.77,3.77,0,0,1-3.09,3.87A4,4,0,0,1,282.6,649.23Z" class="o"></path><path d="M624,176.43q9,0,18,.42c114.44,5.37,261,61.8,262.43,236.68.94,119.59-55.41,164.84-102.21,217.13,109.78-158.74,46.4-313.6,46.4-313.6,24.13,124.06,5,163.18,5,163.18-17.32,68.19-53.82,98.07-53.82,98.07,66.52-131.23,26.8-245.93,26.8-245.93,27.42,195.36-65,278.11-65,278.11,78.76-109.56-8.65-205.7-45.47-229.25-18-11.52-34.63-16-49.19-16a66.08,66.08,0,0,0-45.61,18c-35.93,34-46.87,25.17-76.45,28.8-103.57,12.71-146,161.75-146,161.75C384,477,407.32,422.3,421,399.79c2.79-4.17,5.73-8.27,8.82-12.25A77.58,77.58,0,0,0,421,399.79c-49.43,73.74-55.52,173.92-55.52,173.92-53.2-108.79-1.24-186.17-1.24-186.17-53.2,65.89-35.88,191.54-35.88,191.54-35.5-79.77-24.62-129.52-18.44-147q1.44-3.58,3-7a50.54,50.54,0,0,0-3,7C277.35,513.4,282.6,645.45,282.6,645.45,182.39,346.37,396.47,269.56,396.47,269.56c-25.3,38.73-27.88,83.37-27.88,83.37C397.32,223.55,514.42,176.43,624,176.43m0-7.57h0a360.34,360.34,0,0,0-83.87,9.59c-28.8,6.91-55.06,17.42-78.06,31.22a216.35,216.35,0,0,0-60.94,53.93,7.61,7.61,0,0,0-7.23-1.17c-.58.21-14.41,5.23-33.42,17.43a242.32,242.32,0,0,0-64.67,61.05c-24.56,33.9-39.77,73.85-45.22,118.72-6.75,55.6,1.61,118.93,24.83,188.22A7.56,7.56,0,0,0,282.6,653a8,8,0,0,0,1.37-.13,7.57,7.57,0,0,0,6.2-7.74c0-.33-1.27-33.25,1.45-75.57,1.44-22.44,3.72-43.4,6.79-62.56,3.31,21.24,10.24,46.33,23.06,75.13a7.57,7.57,0,0,0,6.91,4.5,7.47,7.47,0,0,0,2.08-.3,7.57,7.57,0,0,0,5.42-8.31,402.09,402.09,0,0,1-1.94-69.87c.24-4,.56-8.25,1-12.6.13,1.34.27,2.68.42,4,3,25.79,10.85,51.85,23.36,77.44a7.57,7.57,0,0,0,6.8,4.24,8.24,8.24,0,0,0,1.48-.14,7.57,7.57,0,0,0,6.07-7,414.5,414.5,0,0,1,9.12-58.39c1.34-5.95,2.93-12.42,4.81-19.25-1.2,22.42-.16,48.44,4.45,78.33a7.56,7.56,0,0,0,7,6.41h.48a7.58,7.58,0,0,0,7.28-5.5,344.48,344.48,0,0,1,33.52-74.54c20.6-33.89,55.73-75.58,106.12-81.77,6.16-.76,11.46-.94,16.58-1.12,19-.67,34-1.2,64.14-29.69A58.5,58.5,0,0,1,667,372.78c14.54,0,29.72,5,45.11,14.84,23.39,15,61.72,55.71,71.48,106.7,7.3,38.08-2.15,75.68-28.08,111.75a7.57,7.57,0,0,0,11.2,10.06c.7-.63,12.61-11.46,26.61-33.93a7.57,7.57,0,0,0,11.29,2c1.14-.94,21-17.55,38.61-53.34A357.14,357.14,0,0,1,796,626.35a7.57,7.57,0,0,0,11.86,9.35c5.24-5.85,10.73-11.75,16-17.46,21.51-23.13,43.75-47,60.51-78.83,19-35.95,28-77.14,27.6-125.94-.34-42.6-9.21-80.77-26.37-113.46-15.35-29.27-37.43-54.34-65.61-74.54-62.17-44.55-138-54.32-177.67-56.18-6.1-.28-12.28-.43-18.37-.43Z" class="e"></path><circle r="12.45" cy="763.1" cx="358.42" class="f"></circle><path d="M357.6,786.35a27,27,0,1,1,27-27A27,27,0,0,1,357.6,786.35Zm0-42.57a15.61,15.61,0,1,0,15.61,15.61A15.63,15.63,0,0,0,357.6,743.78Z" class="p"></path><path d="M357.6,734.31a25.07,25.07,0,1,1-25.07,25.08,25.11,25.11,0,0,1,25.07-25.08m0,42.57a17.5,17.5,0,1,0-17.5-17.49,17.52,17.52,0,0,0,17.5,17.49m0-46.35a28.86,28.86,0,1,0,28.86,28.86,28.88,28.88,0,0,0-28.86-28.86Zm0,42.57a13.72,13.72,0,1,1,13.72-13.71A13.73,13.73,0,0,1,357.6,773.1Z" class="e"></path><path d="M360.8,859.51q-.87,0-1.77-.09l-.35-.07C340,853.69,337.5,829.73,337.5,807a122.89,122.89,0,0,1,.76-13.83c.53-4.67,3.62-7.54,6.32-7.62H345a8.21,8.21,0,0,1,6.43,2.58,8.51,8.51,0,0,1,1.92,6.76,109.24,109.24,0,0,0-.66,12.11c0,24.63,4.1,34.86,6.29,34.86l.31,0h0c2.35,0,6.54-11.64,6.54-34.84,0-15-2.8-24.6-4.47-29-1.16-3-3.59-5.64-7.22-7.72a8.31,8.31,0,0,1-4.36-7.17c0-4.7,4.25-8.51,9.47-8.51,17.62,0,25.51,26.31,25.51,52.38C384.74,832.41,378.45,859.51,360.8,859.51Z" class="p"></path><path d="M359.23,756.55c16.31,0,23.61,25.36,23.61,50.49,0,24.34-6.1,50.58-22,50.58a14.08,14.08,0,0,1-1.58-.09C343,852.62,339.39,832.17,339.39,807a121.64,121.64,0,0,1,.75-13.62c.41-3.63,2.68-5.88,4.49-5.93H345c5.09,0,6.87,3.68,6.47,7.24a110.18,110.18,0,0,0-.68,12.32c0,20.7,3,36.75,8.19,36.75l.3,0h0c4.94,0,8.43-15.72,8.43-36.73,0-13.44-2.21-23.39-4.6-29.65a17.55,17.55,0,0,0-8-8.69,6.45,6.45,0,0,1-3.41-5.53c0-3.66,3.39-6.62,7.57-6.62m0,13.23h0m0-17c-6.26,0-11.36,4.67-11.36,10.41a10.2,10.2,0,0,0,5.31,8.81c3.24,1.86,5.39,4.14,6.39,6.76,1.63,4.25,4.35,13.59,4.35,28.3,0,20.1-3.06,30.18-4.84,32.64-1.73-2.42-4.55-12.23-4.55-32.64a107.87,107.87,0,0,1,.65-11.9,10.54,10.54,0,0,0-2.39-8.23A10,10,0,0,0,345,783.7h-.43c-4.06.12-7.56,4.12-8.14,9.3a126.38,126.38,0,0,0-.77,14c0,14.9,1.28,25.71,4,34,3.54,10.69,9.76,17.45,18.5,20.1a4.13,4.13,0,0,0,.7.14,18.89,18.89,0,0,0,2,.1c19,0,25.82-28.08,25.82-54.36,0-13.83-2.12-26.65-6-36.1-6.13-15-15-18.18-21.43-18.18Z" class="e"></path><path d="M354.14,763.1s2-5.09,8.63-2.65c7.23,2.65,12.08,16.32,12.08,16.32" class="s"></path><path d="M338.71,746.27s6.34-8.23,15.89-9" class="s"></path><path d="M359.51,737.3a14.21,14.21,0,0,1,9.78,3.71" class="s"></path><path d="M348.54,802.74s-3,42.92,9.88,44.82" class="s"></path><path d="M742.25,755.11c-1.2,12.14-15.56,27.26-27.7,26.06s-17.46-18.25-16.27-30.39a22.09,22.09,0,0,1,44,4.33Z" class="f"></path><path d="M724.86,762c-14.92,0-27.05-12.51-27.05-27.9s12.13-27.9,27.05-27.9,27.06,12.52,27.06,27.9S739.78,762,724.86,762Z" class="d"></path><path d="M724.86,708.09c13.9,0,25.17,11.65,25.17,26s-11.27,26-25.17,26-25.16-11.64-25.16-26,11.27-26,25.16-26m0-3.78c-16,0-29,13.36-29,29.79s13,29.79,29,29.79,28.95-13.36,28.95-29.79-13-29.79-28.95-29.79Z" class="e"></path><path d="M512.5,1144.69a7.59,7.59,0,0,1-4.11-1.21c-9.87-6.37-68.25-64.34-73.24-101.59-4.37-32.55,19.53-47.76,32.78-51.25a26.32,26.32,0,0,1,6.06-1,3.55,3.55,0,0,1,3.9,4.57,4.61,4.61,0,0,0,0,1.54c1.11,4.23-2.3,8.54-6.09,9.56-1,.28-25.34,7.22-21.67,34.61,3.49,26,41.61,74.83,66.46,90.89a7.57,7.57,0,0,1-4.11,13.92Z" class="p"></path><path d="M474,991.49c3.33,0,1.49,2.44,2.09,4.7.79,3-1.73,6.44-4.75,7.25-1.12.3-26.94,7.7-23.06,36.69,3.51,26.18,41.36,75.45,67.31,92.23a5.67,5.67,0,0,1-3.08,10.44,5.61,5.61,0,0,1-3.08-.91c-10-6.46-67.56-64.17-72.4-100.25-4.19-31.24,18.7-45.83,31.39-49.17a24.59,24.59,0,0,1,5.58-1m0-3.78h0a27.66,27.66,0,0,0-6.52,1.09c-13.83,3.65-38.74,19.49-34.2,53.34,5.07,37.8,64.12,96.48,74.09,102.93a9.46,9.46,0,0,0,10.28-15.89c-24.55-15.86-62.18-63.94-65.62-89.55-3.45-25.77,19.33-32.27,20.3-32.54,5.24-1.4,8.71-7,7.41-11.87a6.43,6.43,0,0,1,0-.89,6,6,0,0,0-1.27-4.89,5.83,5.83,0,0,0-4.52-1.73Z" class="e"></path><path d="M465.84,1075.66a4.27,4.27,0,0,1-1.19-.16c-2.93-.78-72.22-19.81-67.07-68.25,2.06-19.42,21.05-33.06,39.41-46.25,17.22-12.38,33.49-24.08,34.56-38.73.69-9.48-5-19.94-17.42-32-11.58-11.25-23.2-22-34.43-32.41C366.76,808.83,352,765,348,743.25a3.6,3.6,0,0,1,.72-3,3.14,3.14,0,0,1,2.41-1.14,3.38,3.38,0,0,1,2.11.76c1.44,1.14,2,3.25,2.4,4.94.08.31.15.61.23.87,10.87,37.34,33.79,71.83,70.06,105.44,11.27,10.43,22.92,21.22,34.59,32.55,14.48,14.06,21.07,26.89,20.17,39.24-1.38,18.93-20.17,32.43-38.33,45.49-16.74,12-34,24.46-35.66,39.79-4.32,40.58,59.72,58.26,60.37,58.44a4.58,4.58,0,0,1-1.18,9Z" class="t"></path><path d="M351.08,741a1.55,1.55,0,0,1,.94.35c1.15.92,1.57,3.43,2,4.85,6.86,23.55,22.76,62,70.6,106.31,11.3,10.46,23,21.29,34.55,32.52,14.05,13.64,20.46,26,19.6,37.74-1.32,18.06-19.74,31.3-37.56,44.11-17.07,12.26-34.71,24.94-36.42,41.11-4.5,42.24,61.09,60.29,61.76,60.47a2.69,2.69,0,0,1-.69,5.28,2.71,2.71,0,0,1-.68-.09c-2.89-.77-70.68-19.41-65.7-66.23,2-18.57,20.61-32,38.63-44.92,17.59-12.64,34.21-24.58,35.35-40.12.73-10.07-5.15-21-18-33.48-11.52-11.18-23.18-22-34.46-32.44-51.84-48-66.85-90.48-71.18-113.59a1.46,1.46,0,0,1,1.27-1.87m0-3.79h0a5,5,0,0,0-3.86,1.83,5.51,5.51,0,0,0-1.13,4.53c3,15.73,9.06,32.08,18.18,48.58,12.7,23,30.92,45.57,54.15,67.09,11.22,10.39,22.83,21.15,34.4,32.38,12,11.63,17.49,21.6,16.84,30.48-1,13.77-16.92,25.21-33.77,37.33-18.71,13.44-38,27.33-40.19,47.59-5.32,50,65.47,69.48,68.48,70.28a6,6,0,0,0,1.66.22,6.47,6.47,0,0,0,1.66-12.72c-.62-.17-63.11-17.56-59-56.41,1.54-14.49,18.48-26.66,34.86-38.44,18.54-13.32,37.69-27.09,39.14-46.9,1-12.94-5.84-26.27-20.74-40.74-11.67-11.32-23.34-22.13-34.62-32.58-36-33.37-58.76-67.58-69.54-104.58-.06-.24-.13-.52-.21-.81-.47-1.86-1.12-4.41-3.05-6a5.27,5.27,0,0,0-3.29-1.18Z" class="e"></path><path d="M558.23,1189.53a27.31,27.31,0,0,1-12.9-3.57,1.9,1.9,0,0,1-.54-.44l-94.07-110.47a1.9,1.9,0,0,1-.42-1.55,1.86,1.86,0,0,1,.92-1.32l12.87-7.4.28-.13a5.36,5.36,0,0,1,1.91-.33c3.5,0,7.88,3,9.89,5.13,3.31,3.53,7.66,8.69,12.7,14.67,13.3,15.79,31.52,37.42,49.61,51.63,3.57,2.81,7,5.41,10.31,7.91,11.92,9,21.33,16.14,25.46,24.21a13.83,13.83,0,0,1-.77,13.58A17.56,17.56,0,0,1,558.23,1189.53Z" class="t"></path><path d="M466.28,1066.21c2.83,0,6.74,2.65,8.51,4.53,11.91,12.69,37.35,46.72,62.52,66.5,16.31,12.82,30.21,21.64,35.25,31.49,4.12,8-2.49,18.9-14.33,18.9a25.36,25.36,0,0,1-12-3.34l-94.07-110.47,12.88-7.4a3.55,3.55,0,0,1,1.24-.21m0-3.78h0a7.25,7.25,0,0,0-2.58.45,3.47,3.47,0,0,0-.55.26l-12.87,7.4a3.77,3.77,0,0,0-1,5.73l94.07,110.47a3.71,3.71,0,0,0,1.09.88,29.12,29.12,0,0,0,13.79,3.8,19.44,19.44,0,0,0,16.87-9,15.71,15.71,0,0,0,.83-15.42c-4.32-8.46-13.89-15.7-26-24.86-3.31-2.5-6.73-5.09-10.29-7.88-17.93-14.1-36.07-35.64-49.32-51.37-5.06-6-9.42-11.18-12.77-14.75-2.17-2.3-6.95-5.72-11.27-5.72Z" class="e"></path><path d="M550.37,1186.71a19.24,19.24,0,0,1-4.59-.58c-14.9-3.65-72.81-53.64-95.51-88.5-4.9-7.53-6-15.49-2.82-21.28a10.89,10.89,0,0,1,9.59-5.95c4.65,0,9.3,2.91,13.1,8.2,24.72,34.49,80.26,81.83,88.29,87.79a10.87,10.87,0,0,1,3.92,12.32C561.07,1182.58,557.25,1186.71,550.37,1186.71Z" class="t"></path><path d="M457,1072.29c3.64,0,7.82,2.2,11.56,7.41,25.49,35.56,81.89,83.15,88.7,88.21,7,5.21,3.78,16.91-6.93,16.91a17.66,17.66,0,0,1-4.14-.53c-13.92-3.41-71.57-52.68-94.37-87.69-8.52-13.09-3-24.31,5.18-24.31m0-3.78h0a12.73,12.73,0,0,0-11.25,6.94c-3.48,6.41-2.39,15.09,2.9,23.22,10.37,15.92,29,36.49,51.15,56.43,15.27,13.76,36.35,30.62,45.49,32.87a21.49,21.49,0,0,0,5,.64c6.6,0,11.88-3.57,13.77-9.3a12.76,12.76,0,0,0-4.58-14.44c-8-5.94-63.29-53.07-87.89-87.37-4.15-5.8-9.35-9-14.63-9Z" class="e"></path><path d="M562.18,1167.41s5.34,6,10.32.65l.75,2.32s-7.87.85-8.78,7.45Z" class="e"></path><path d="M666.59,1075.23a1.9,1.9,0,0,1-1.62-2.88c7.34-12,8.86-23.34,10.08-32.47,3.44-25.6-20.53-33.31-25.37-34.59-3.88-1-7.29-5.35-6.17-9.58a4.89,4.89,0,0,0,0-1.54,3.55,3.55,0,0,1,3.9-4.57,26.58,26.58,0,0,1,6.05,1c14.52,3.84,40.84,19.48,36.57,51.26l-.19,1.48c-1.24,9.38-2.65,20-9.27,30.94a1.88,1.88,0,0,1-1.61.92Z" class="p"></path><path d="M647.43,991.49a24.67,24.67,0,0,1,5.58,1c12.69,3.34,39.36,17.93,35.17,49.17-1.27,9.51-2.44,20.52-9.2,31.69H666.59c7.52-12.29,9.12-24.13,10.34-33.2,3.89-29-25.73-36.39-26.84-36.69-3-.81-5.55-4.23-4.75-7.25.6-2.26-1.24-4.7,2.09-4.7m0-3.78a5.87,5.87,0,0,0-4.53,1.73,6,6,0,0,0-1.26,4.89,5.11,5.11,0,0,1,0,.91c-1.29,4.9,2.18,10.45,7.43,11.85l.08,0c4.57,1.21,27.21,8.49,24,32.51-1.2,8.95-2.7,20.09-9.82,31.73a3.78,3.78,0,0,0,3.23,5.76H679a3.76,3.76,0,0,0,3.23-1.83c6.83-11.27,8.26-22.11,9.52-31.67l.2-1.48c4.44-33.09-22.89-49.36-37.95-53.33a27.69,27.69,0,0,0-6.55-1.1Z" class="e"></path><path d="M672.32,1064.51a3.79,3.79,0,0,1-.63-7.52c2-.34,49.23-8.83,49.39-51.42.17-45.62,20.45-93.17,47.18-110.6,19-12.42,28.49-37.13,31.66-47.18a4.37,4.37,0,0,1,.37-1l1.57-2.57a90.79,90.79,0,0,0,5.07-9,1.9,1.9,0,0,1,1.71-1.09,1.8,1.8,0,0,1,.6.1,1.9,1.9,0,0,1,1.25,2.19c-.11.5-1.06,5-1.35,6l0,.12c-2,7.12-13.17,43.39-36.7,58.74C748,917.21,728.8,963,728.65,1005.6c-.18,48.86-55.15,58.76-55.7,58.86A4.46,4.46,0,0,1,672.32,1064.51Z" class="t"></path><path d="M808.64,836s-1,4.92-1.32,5.92c-.53,1.85-11.42,41.79-36,57.79-24.85,16.22-44.45,62.72-44.6,105.87-.18,47.4-53.59,56.91-54.13,57a1.66,1.66,0,0,1-.32,0,1.89,1.89,0,0,1-.31-3.76c2.08-.35,50.81-9.09,51-53.28.16-45,20.08-91.91,46.32-109,23.35-15.22,32.39-48.37,32.63-48.76A127.16,127.16,0,0,0,808.64,836m0-3.78a3.77,3.77,0,0,0-3.42,2.17,89.9,89.9,0,0,1-5,8.87l-1.57,2.57a6.13,6.13,0,0,0-.55,1.38c-3.11,9.86-12.36,34.08-30.89,46.16-13.32,8.69-25.52,24.93-34.36,45.74a175.47,175.47,0,0,0-13.68,66.45c-.15,41-45.87,49.23-47.82,49.56a5.67,5.67,0,0,0,.94,11.27,5,5,0,0,0,1-.08,90,90,0,0,0,28.55-11.27c18.71-11.57,28.64-28.67,28.72-49.44A164,164,0,0,1,743.28,944c8.05-19.09,18.75-33.69,30.15-41.13,24.09-15.71,35.46-52.57,37.49-59.8l0-.12c.3-1.08,1.2-5.33,1.38-6.17a3.78,3.78,0,0,0-2.49-4.37,3.65,3.65,0,0,0-1.21-.2Zm0,7.57h0Z" class="e"></path><path d="M726.15,991.26a7.64,7.64,0,0,1-7.56-7.71c0-3.5,3.07-15.49,4.89-22.32,4.81-18,14.68-37.37,15.1-38.19a7.52,7.52,0,0,1,6.74-4.13,7.65,7.65,0,0,1,3.44.83,7.56,7.56,0,0,1,3.3,10.18c-.39.77-9.62,19-13.95,35.22-3.84,14.35-4.34,18.29-4.39,18.78A7.42,7.42,0,0,1,726.15,991.26Z" class="t"></path><path d="M745.32,920.8a5.67,5.67,0,0,1,5,8.26c-.09.19-9.67,19.05-14.09,35.59-4.13,15.43-4.44,19-4.45,19.18a5.56,5.56,0,0,1-5.68,5.54,5.8,5.8,0,0,1-5.67-5.82c0-2.4,1.76-10.35,4.83-21.84,4.74-17.72,14.54-37,15-37.81a5.66,5.66,0,0,1,5.06-3.1m0-3.78h0a9.42,9.42,0,0,0-8.43,5.16c-.42.82-10.37,20.38-15.23,38.56-2.27,8.46-5,19.28-5,22.81a9.54,9.54,0,0,0,9.45,9.6,9.29,9.29,0,0,0,9.46-9.11c.07-.59.65-4.68,4.33-18.41,4.27-16,13.71-34.67,13.81-34.86a9.45,9.45,0,0,0-4.14-12.72,9.55,9.55,0,0,0-4.29-1Z" class="e"></path><polygon points="812.26 836.98 815.02 823.46 809.37 824.94 806.14 833.55 805.7 834.65 809.66 834.21 809.37 837.51 812.26 836.98" class="e"></polygon><path d="M624,1174.32a14.19,14.19,0,0,1-10.83-4.77,11.38,11.38,0,0,1-2.73-9.23c1.16-7.63,6.86-16,14.07-26.48,2-2.92,4.07-5.94,6.2-9.18,10.76-16.34,19.63-38.6,26.11-54.85,2.46-6.17,4.58-11.49,6.31-15.23,1.1-2.38,4.59-7.28,8.39-7.28a2.43,2.43,0,0,1,.38,0l12.42,2.24a1.88,1.88,0,0,1,1.41,2.57l-46.16,114.08a1.93,1.93,0,0,1-.38.59c-5.81,6.2-11.46,7.51-15.19,7.51Z" class="t"></path><path d="M671.56,1049.19h.05l12.41,2.24-46.17,114.08c-4.64,5-9.54,6.91-13.81,6.91-7.24,0-12.63-5.64-11.69-11.81,1.4-9.24,10.26-20.14,20-34.91,15-22.77,26.36-56.92,32.56-70.33,1.06-2.29,4.12-6.18,6.67-6.18m0-3.78c-5.09,0-9.1,6.2-10.11,8.37-1.75,3.79-3.88,9.13-6.34,15.32-6.45,16.18-15.28,38.34-25.94,54.52-2.12,3.22-4.18,6.23-6.17,9.14-7.36,10.74-13.17,19.22-14.39,27.28a13.21,13.21,0,0,0,3.17,10.74,16,16,0,0,0,12.26,5.43c4.1,0,10.3-1.41,16.58-8.11a3.75,3.75,0,0,0,.74-1.17l46.17-114.08a3.78,3.78,0,0,0-2.84-5.14l-12.41-2.24a3.05,3.05,0,0,0-.6-.06Z" class="e"></path><path d="M631.08,1169.63a9.91,9.91,0,0,1-8.88-5.22,9.37,9.37,0,0,1,.71-9.84c4.88-7,37-60.13,47.6-94.4,2.12-6.82,6.47-10.89,11.62-10.89a10.15,10.15,0,0,1,8,4.15c3.06,4,3.85,10,2.15,16.45-8.93,34.07-42.3,90.12-53.39,97.23a14.46,14.46,0,0,1-7.79,2.52Z" class="t"></path><path d="M682.13,1051.17c5.86,0,11.24,7,8.3,18.23-9,34.18-42.24,89.48-52.58,96.11a12.58,12.58,0,0,1-6.77,2.23c-6.56,0-10.26-6.87-6.61-12.09,4.14-5.93,36.86-59.55,47.85-94.92,2.06-6.63,6-9.56,9.81-9.56m0-3.78c-6,0-11,4.57-13.42,12.21-10.59,34.06-42.49,86.93-47.35,93.88a11.22,11.22,0,0,0-.83,11.8,11.78,11.78,0,0,0,10.55,6.24,16.32,16.32,0,0,0,8.82-2.82c6.85-4.4,19-23,28.05-39,12.53-22.08,22.06-43.7,26.14-59.29,1.85-7,.94-13.64-2.49-18.08a12,12,0,0,0-9.47-4.89Z" class="e"></path><path d="M620.38,1156.63s-2.69,6.28-8.16,3.42l0,2.06s6.59-1.55,9.11,3.43Z" class="e"></path><path d="M348.21,745.78a1.88,1.88,0,0,1-1.81-1.32l-5.69-18.1A1.9,1.9,0,0,1,342,724l7.11-2.24a2.16,2.16,0,0,1,.56-.08,1.89,1.89,0,0,1,1.81,1.32l5.69,18.1a1.89,1.89,0,0,1-1.24,2.37l-7.11,2.24A2.1,2.1,0,0,1,348.21,745.78Z" class="t"></path><path d="M349.62,723.56l5.69,18.09-7.1,2.24-5.7-18.09,7.11-2.24m0-3.79a3.7,3.7,0,0,0-1.13.18l-7.11,2.24a3.79,3.79,0,0,0-2.48,4.74l5.7,18.1a3.76,3.76,0,0,0,4.74,2.47l7.11-2.24a3.77,3.77,0,0,0,2.47-4.74l-5.69-18.1a3.8,3.8,0,0,0-3.61-2.65Z" class="e"></path><path d="M342.48,733c-.53,0-1.05,0-1.59-.06a19.81,19.81,0,0,1,1.55-39.55c.53,0,1.05,0,1.59.06A19.81,19.81,0,0,1,342.48,733Z" class="t"></path><path d="M342.44,695.29c.48,0,.95,0,1.44.06a17.91,17.91,0,0,1-1.4,35.77c-.48,0-1,0-1.44-.06a17.91,17.91,0,0,1,1.4-35.77m0-3.78h0a21.7,21.7,0,0,0-1.7,43.33c.58,0,1.16.07,1.74.07a21.8,21.8,0,0,0,21.61-20,21.7,21.7,0,0,0-19.91-23.34c-.58-.05-1.16-.07-1.74-.07Z" class="e"></path><path d="M354.35,761.37a10.37,10.37,0,1,1,9.85-7.15A10.31,10.31,0,0,1,354.35,761.37Z" class="t"></path><path d="M354.35,742.54A8.35,8.35,0,0,1,357,743a8.47,8.47,0,0,1-2.63,16.52,8.25,8.25,0,0,1-2.62-.42,8.47,8.47,0,0,1,2.62-16.52m0-3.79h0a12.27,12.27,0,1,0,3.8.61,12.23,12.23,0,0,0-3.8-.61Z" class="e"></path><path d="M562.3,1039.9c-17.57,0-62.13-2.77-96.16-28.4a1.88,1.88,0,0,1-.68-2L477,969.92a1.91,1.91,0,0,1,1-1.16,1.89,1.89,0,0,1,.84-.2,1.79,1.79,0,0,1,.68.13c.49.19,49.26,18.79,86.79,18.79h1.42a1.92,1.92,0,0,1,1.33.55,1.88,1.88,0,0,1,.56,1.35v48.52a1.89,1.89,0,0,1-1.78,1.89C567.75,1039.78,565.77,1039.9,562.3,1039.9Z" class="h"></path><path d="M478.83,970.45S528,989.37,566.3,989.37h1.42v48.52s-2,.12-5.42.12c-15.47,0-60.93-2.35-95-28l11.55-39.54m0-3.78a3.77,3.77,0,0,0-3.63,2.72l-11.55,39.54A3.77,3.77,0,0,0,465,1013c34.49,26,79.54,28.77,97.3,28.77,3.53,0,5.56-.12,5.64-.12a3.79,3.79,0,0,0,3.56-3.78V989.37a3.77,3.77,0,0,0-3.78-3.79H566.3c-37.16,0-85.63-18.48-86.11-18.67a3.76,3.76,0,0,0-1.36-.25Z" class="e"></path><path d="M577.61,1039.9c-2.82,0-4.43-.12-4.5-.12a1.9,1.9,0,0,1-1.75-1.89V989.37a1.88,1.88,0,0,1,.56-1.35,1.9,1.9,0,0,1,1.33-.55h1.14c30,0,69.08-18.55,69.47-18.73a1.83,1.83,0,0,1,.82-.19,1.75,1.75,0,0,1,.81.19,1.86,1.86,0,0,1,1,1.27l9.28,39.54a1.86,1.86,0,0,1-.55,1.81c-27.47,25.75-63.45,28.53-77.64,28.53Z" class="h"></path><path d="M644.68,970.45,654,1010c-27.39,25.67-63.92,28-76.36,28-2.77,0-4.35-.12-4.35-.12V989.37h1.14c30.8,0,70.29-18.92,70.29-18.92m0-3.78A3.78,3.78,0,0,0,643,967c-.39.19-39.09,18.55-68.65,18.55h-1.14a3.79,3.79,0,0,0-3.78,3.79v48.52a3.77,3.77,0,0,0,3.5,3.77c.07,0,1.75.13,4.63.13,14.42,0,51-2.83,78.95-29a3.78,3.78,0,0,0,1.09-3.62l-9.28-39.54a3.78,3.78,0,0,0-3.68-2.92Z" class="e"></path><g class="u"><rect rx="1.89" height="213.32" width="47.77" y="965.63" x="546.49" class="i"></rect><path d="M592.37,967.53v209.53h-44V967.53h44m0-3.79h-44a3.79,3.79,0,0,0-3.79,3.79v209.53a3.79,3.79,0,0,0,3.79,3.78h44a3.78,3.78,0,0,0,3.78-3.78V967.53a3.79,3.79,0,0,0-3.78-3.79Z" class="e"></path><rect rx="1.89" height="213.32" width="13.3" y="965.63" x="563.72" class="h"></rect><path d="M575.13,967.53v209.53h-9.51V967.53h9.51m0-3.79h-9.51a3.79,3.79,0,0,0-3.79,3.79v209.53a3.79,3.79,0,0,0,3.79,3.78h9.51a3.78,3.78,0,0,0,3.78-3.78V967.53a3.79,3.79,0,0,0-3.78-3.79Z" class="e"></path></g><path d="M401.14,1090.63s11.44,35.34,9.93,109.89" class="v"></path><path d="M731.56,1083.08s19.22,61.22,19.43,120.18" class="v"></path></svg>